<svg xmlns="http://www.w3.org/2000/svg" xmlns:xlink="http://www.w3.org/1999/xlink" width="360" zoomAndPan="magnify" viewBox="0 0 270 337.499995" height="450" preserveAspectRatio="xMidYMid meet" version="1.0"><defs><g/><clipPath id="07b1d53bfc"><path d="M 0.199219 0 L 269.800781 0 L 269.800781 337 L 0.199219 337 Z M 0.199219 0 " clip-rule="nonzero"/></clipPath><clipPath id="e375734279"><path d="M 51.066406 52.5 L 218 52.5 L 218 282 L 51.066406 282 Z M 51.066406 52.5 " clip-rule="nonzero"/></clipPath></defs><g clip-path="url(#07b1d53bfc)"><path fill="#ffffff" d="M 0.199219 0 L 269.800781 0 L 269.800781 337 L 0.199219 337 Z M 0.199219 0 " fill-opacity="1" fill-rule="nonzero"/><path fill="#8c52ff" d="M 0.199219 0 L 269.800781 0 L 269.800781 337 L 0.199219 337 Z M 0.199219 0 " fill-opacity="1" fill-rule="nonzero"/></g><g clip-path="url(#e375734279)"><path fill="#070304" d="M 61.980469 263.878906 C 63.667969 256.976562 68.179688 253.398438 75.304688 252.773438 C 74.269531 251.109375 73.242188 249.65625 72.40625 248.105469 C 64.941406 234.246094 71.457031 218.609375 86.558594 214.207031 C 87.871094 213.820312 87.78125 213.03125 87.996094 212.09375 C 89.59375 204.988281 89.132812 197.65625 90.496094 190.527344 C 91.632812 184.574219 93.457031 178.867188 96.734375 173.714844 C 97.320312 172.789062 97.59375 172.015625 97.09375 170.875 C 96.457031 169.414062 96.707031 167.9375 97.757812 166.597656 C 99.234375 164.734375 99.070312 161.65625 97.546875 159.855469 C 94.417969 156.164062 92.355469 151.898438 90.855469 146.882812 C 89.445312 149.035156 88.46875 151.0625 87.019531 152.761719 C 85.542969 154.5 84.042969 156.203125 82.21875 157.617188 C 81.117188 158.46875 80.582031 158.640625 80.269531 156.964844 C 79.832031 154.589844 78.917969 152.324219 77.96875 150.097656 C 76.304688 146.246094 73.832031 143.105469 70.066406 141.078125 C 68.917969 140.453125 67.832031 139.703125 66.691406 139.039062 C 61.441406 135.949219 57.277344 132.035156 56.390625 125.070312 C 55.277344 126.605469 54.929688 127.882812 54.503906 129.144531 C 54.316406 129.710938 54.277344 130.609375 53.566406 130.609375 C 52.804688 130.609375 52.902344 129.695312 52.792969 129.160156 C 51.066406 121.539062 51.992188 114.3125 56.117188 107.617188 C 60.566406 100.414062 66.804688 94.808594 72.894531 89.082031 C 76.167969 86.003906 79.570312 83.074219 83.09375 80.285156 C 88.40625 76.097656 94.332031 73.882812 101.183594 74.609375 C 101.96875 74.695312 102.65625 74.546875 103.34375 74.132812 C 111.746094 69.042969 118.820312 62.585938 124.148438 54.269531 C 124.558594 53.617188 124.808594 52.503906 125.859375 52.78125 C 126.734375 53.003906 126.910156 53.992188 127.085938 54.804688 C 127.371094 56.21875 127.597656 57.644531 127.910156 59.371094 C 130.386719 57.132812 132.960938 55.355469 135.886719 54.144531 C 137.097656 53.644531 138.335938 53.191406 139.648438 53.015625 C 140.136719 52.953125 140.648438 53.003906 140.972656 53.429688 C 141.359375 53.941406 140.910156 54.34375 140.660156 54.71875 C 139.023438 57.132812 137.609375 59.648438 136.9375 62.535156 C 136.6875 63.585938 136.6875 64.164062 138.046875 64.289062 C 147.75 65.164062 156.5 68.765625 164.75 73.746094 C 165.9375 74.457031 167.0625 74.707031 168.449219 74.59375 C 173.789062 74.167969 178.839844 75.332031 183.164062 78.496094 C 193.015625 85.679688 202.191406 93.632812 210.203125 102.851562 C 216.765625 110.394531 218.816406 119.214844 217.003906 128.972656 C 216.890625 129.609375 216.992188 130.609375 216.21875 130.699219 C 215.390625 130.785156 215.390625 129.746094 215.117188 129.160156 C 214.542969 127.957031 214.253906 126.59375 213.316406 125.394531 C 212.753906 126.945312 212.304688 128.382812 211.71875 129.757812 C 209.667969 134.574219 205.527344 137.277344 201.265625 139.730469 C 196.203125 142.617188 192.351562 146.457031 190.617188 152.136719 C 190.089844 153.851562 189.488281 155.566406 189.191406 157.328125 C 188.925781 158.855469 188.476562 158.691406 187.550781 157.878906 C 184.050781 154.800781 181.101562 151.285156 178.914062 146.707031 C 178.414062 147.984375 178.027344 148.910156 177.6875 149.859375 C 176.589844 152.949219 175.1875 155.976562 172.976562 158.328125 C 170.175781 161.304688 170.636719 164.144531 172.328125 167.261719 C 172.890625 168.300781 172.976562 169.476562 172.5625 170.488281 C 171.988281 171.902344 172.414062 172.925781 173.113281 174.128906 C 178.050781 182.496094 180.113281 191.664062 180.328125 201.273438 C 180.414062 205.238281 181.640625 209.039062 181.566406 212.992188 C 181.539062 214.246094 182.613281 214.070312 183.339844 214.292969 C 192.527344 217.207031 198.328125 223.199219 199.816406 232.859375 C 200.753906 238.949219 199.402344 244.679688 196.140625 249.933594 C 195.589844 250.808594 194.992188 251.644531 194.203125 252.820312 C 200.816406 253.257812 205.253906 256.511719 207.441406 262.652344 C 208.953125 265.582031 208.492188 268.394531 206.816406 271.046875 C 204.992188 273.949219 202.140625 275.199219 198.851562 275.6875 C 193.078125 276.527344 187.265625 276.027344 181.464844 276.089844 C 179.277344 276.113281 177.425781 276.476562 175.914062 278.203125 C 174.640625 279.652344 172.851562 280.328125 170.976562 280.640625 C 164.902344 281.65625 158.8125 282.40625 152.636719 281.605469 C 151.472656 281.453125 150.285156 281.578125 149.113281 281.492188 C 145.625 281.230469 142.472656 280.179688 140.109375 277.425781 C 139.324219 276.511719 138.375 276.113281 137.199219 276.125 C 136.4375 276.136719 135.671875 276.175781 134.921875 276.113281 C 132.535156 275.886719 130.574219 276.386719 128.824219 278.300781 C 126.996094 280.277344 124.398438 281.179688 121.734375 281.390625 C 114.507812 281.992188 107.269531 282.191406 100.058594 281.003906 C 97.109375 280.515625 94.445312 279.539062 92.371094 277.3125 C 91.433594 276.3125 90.257812 276.125 88.96875 276.125 C 84.132812 276.136719 79.292969 276.164062 74.457031 276.113281 C 71.667969 276.089844 68.957031 275.675781 66.453125 274.285156 C 64.65625 273.285156 63.316406 271.859375 62.265625 270.097656 C 61.078125 268.019531 61.742188 265.957031 61.980469 263.878906 Z M 61.980469 263.878906 " fill-opacity="1" fill-rule="nonzero"/></g><path fill="#fdfdfd" d="M 117.496094 270.910156 C 117.496094 270.835938 117.507812 270.773438 117.496094 270.695312 C 117.421875 269.921875 118.523438 268.808594 117.660156 268.519531 C 116.570312 268.171875 116.257812 269.597656 115.882812 270.433594 C 115.035156 272.308594 114.960938 274.324219 115.171875 276.339844 C 115.308594 277.613281 114.796875 278.113281 113.570312 278.089844 C 112.671875 278.078125 111.769531 278.128906 110.882812 278.128906 C 107.535156 278.113281 107.382812 277.953125 107.769531 274.539062 C 107.972656 272.75 108.359375 270.996094 109.132812 269.347656 C 109.320312 268.957031 109.820312 268.433594 109.257812 268.058594 C 108.621094 267.632812 108.257812 268.296875 107.945312 268.695312 C 106.308594 270.722656 105.746094 273.125 105.707031 275.664062 C 105.683594 276.875 105.496094 277.765625 103.996094 277.363281 C 102.78125 277.039062 100.808594 277.925781 100.933594 275.425781 C 101.046875 273.097656 101.53125 270.910156 102.90625 268.984375 C 103.171875 268.621094 103.707031 268.234375 103.109375 267.78125 C 102.621094 267.40625 102.207031 267.769531 101.832031 268.109375 C 99.78125 269.945312 99.082031 272.398438 98.921875 274.988281 C 98.808594 276.777344 98.132812 276.511719 97.046875 275.863281 C 94.644531 274.4375 93.570312 271.910156 94.042969 268.695312 C 94.605469 264.878906 96.671875 261.742188 98.707031 258.625 C 99.757812 257.023438 100.082031 255.546875 99.734375 253.621094 C 97.234375 239.75 94.78125 225.863281 93.644531 211.804688 C 92.871094 202.199219 92.730469 192.605469 95.855469 183.285156 C 95.984375 182.898438 96.15625 182.507812 96.296875 182.132812 C 97.53125 181.609375 97.921875 182.683594 98.296875 183.371094 C 101.007812 188.386719 105.195312 191.941406 109.785156 195.082031 C 116.808594 199.898438 124.597656 202.671875 133.058594 203.574219 C 135.511719 203.835938 137.886719 203.210938 140.210938 202.609375 C 151.460938 199.722656 161.273438 194.46875 168.613281 185.171875 C 169.476562 184.085938 170.1875 182.910156 170.964844 181.757812 C 171.363281 181.171875 171.601562 180.308594 172.613281 180.484375 C 174.9375 185.5 175.988281 190.828125 176.375 196.292969 C 177.0625 206.0625 175.988281 215.746094 174.652344 225.402344 C 173.300781 235.121094 171.550781 244.765625 169.777344 254.410156 C 169.5 255.898438 169.726562 257.074219 170.527344 258.300781 C 172.3125 261.015625 173.988281 263.804688 174.953125 266.933594 C 176.125 270.785156 175.238281 273.949219 172.589844 275.625 C 170.964844 276.652344 170.714844 276.539062 170.613281 274.636719 C 170.5 272.273438 169.699219 270.183594 168.050781 268.46875 C 167.636719 268.046875 167.0625 267.445312 166.488281 267.90625 C 165.875 268.40625 166.613281 268.871094 166.902344 269.285156 C 168.1875 271.195312 168.5625 273.359375 168.601562 275.601562 C 168.636719 278.050781 166.589844 277.050781 165.386719 277.375 C 164.199219 277.703125 163.675781 277.1875 163.699219 275.863281 C 163.726562 273.710938 163.5 271.574219 162.289062 269.695312 C 161.824219 268.96875 161.4375 268.132812 160.074219 268.046875 C 160.585938 270.097656 161.460938 271.898438 161.636719 273.886719 C 162 278.039062 162.011719 278.078125 157.886719 278.101562 C 154.425781 278.128906 154.398438 278.128906 154.375 274.601562 C 154.363281 272.835938 154.050781 271.160156 153.175781 269.621094 C 152.8125 268.984375 152.539062 268.207031 151.25 268.21875 C 152.125 271.046875 152.8125 273.835938 152.289062 276.726562 C 152.113281 277.039062 151.847656 277.375 151.5 277.300781 C 148.585938 276.664062 145.699219 275.976562 143.574219 273.613281 C 141.386719 271.160156 141.359375 268.40625 142.324219 265.492188 C 143.148438 262.316406 145.0625 259.8125 147.300781 257.511719 C 147.988281 256.8125 148.585938 256.148438 148.574219 255.035156 C 148.425781 242.890625 148.75 230.730469 148.175781 218.585938 C 148.113281 217.382812 147.886719 216.195312 147.511719 214.980469 C 145.222656 220.273438 145 225.878906 144.835938 231.492188 C 143.910156 236.085938 140.898438 239.25 137.484375 242.0625 C 135.710938 243.527344 133.886719 243.425781 132.023438 241.863281 C 128.484375 238.898438 125.773438 235.371094 124.949219 230.65625 C 124.761719 225.378906 124.433594 220.109375 122.410156 215.09375 C 121.597656 217.609375 121.382812 220.1875 121.371094 222.75 C 121.296875 233.394531 121.320312 244.039062 121.246094 254.683594 C 121.234375 256.035156 121.859375 256.875 122.734375 257.710938 C 126.023438 260.863281 127.886719 264.691406 128.273438 269.234375 C 127.308594 272.886719 122.597656 276.8125 118.859375 277.078125 C 117.910156 277.140625 117.195312 276.9375 117.285156 275.777344 C 117.421875 274.175781 117.085938 272.523438 117.496094 270.910156 Z M 117.496094 270.910156 " fill-opacity="1" fill-rule="nonzero"/><path fill="#fdfdfd" d="M 175.226562 145.972656 C 172.664062 155.078125 167 161.621094 158.625 165.871094 C 155.625 167.386719 152.488281 168.550781 149.011719 169.636719 C 149.449219 168.5625 149.773438 167.761719 150.085938 166.972656 C 145.925781 170.164062 142.722656 174.816406 136.660156 175.078125 C 137.148438 173.703125 138.511719 172.925781 138.296875 171.3125 C 137.296875 171.25 136.722656 172.039062 136.011719 172.464844 C 130.785156 175.578125 128.121094 175.242188 123.960938 170.824219 C 122.496094 169.273438 121.109375 167.671875 119.535156 165.933594 C 119.195312 167.324219 120.171875 168.1875 120.160156 169.25 C 105.597656 165.761719 96.019531 156.453125 93.792969 143.042969 C 93.332031 138.691406 95.996094 136.027344 98.996094 133.613281 C 100.445312 132.449219 102.144531 131.574219 103.894531 130.996094 C 108.410156 129.507812 111.519531 126.496094 113.734375 122.417969 C 113.996094 121.929688 114.332031 121.492188 114.621094 121.027344 C 116.085938 119.691406 117.347656 118.199219 118.007812 116.289062 C 118.785156 112.234375 119.660156 108.207031 119.484375 104.015625 C 119.347656 100.875 118.820312 97.835938 117.757812 94.910156 C 116.410156 91.144531 113.882812 89.992188 110.070312 91.320312 C 105.457031 92.933594 101.945312 95.921875 99.457031 100.089844 C 98.15625 102.265625 96.671875 104.367188 95.996094 106.878906 C 95.84375 107.457031 95.558594 108.03125 94.957031 108.332031 C 94.144531 107.980469 94.78125 107.144531 94.320312 106.707031 C 93.96875 102.675781 93.757812 98.636719 94.246094 94.609375 C 93.09375 92.070312 94.496094 89.867188 95.445312 87.792969 C 96.859375 84.675781 98.882812 81.875 101.34375 79.4375 C 101.933594 78.847656 102.621094 78.722656 103.308594 78.472656 C 109.859375 74.78125 115.898438 70.480469 120.195312 64.148438 C 120.972656 63.011719 121.597656 61.773438 122.308594 60.597656 C 122.546875 60.210938 122.695312 59.609375 123.347656 59.835938 C 123.808594 59.996094 123.820312 60.472656 123.847656 60.886719 C 123.921875 62.199219 123.949219 63.511719 124.035156 64.8125 C 124.085938 65.539062 124.359375 66.203125 125.097656 66.453125 C 125.808594 66.703125 126.246094 66.140625 126.671875 65.703125 C 128.835938 63.5 130.734375 61.023438 133.75 59.371094 C 133.410156 61.261719 133.011719 62.910156 132.835938 64.589844 C 132.660156 66.265625 133.421875 67.464844 135.222656 67.589844 C 146.410156 68.390625 156.3125 72.730469 165.6875 78.546875 C 165.8125 78.597656 165.949219 78.609375 166.089844 78.660156 C 170.613281 80.425781 176.101562 89.929688 175.414062 94.734375 C 175.25 95.871094 175.1875 97.046875 175.5 98.1875 C 175.640625 101.1875 175.589844 104.179688 175.113281 107.15625 C 174.488281 108.46875 174.078125 107.804688 173.75 106.980469 C 172.777344 104.453125 171.488281 102.078125 169.886719 99.925781 C 167.152344 96.222656 163.925781 93.03125 159.398438 91.542969 C 154.914062 90.054688 152.363281 91.28125 150.960938 95.785156 C 149.25 101.289062 148.910156 106.878906 150.488281 112.496094 C 150.613281 112.960938 150.738281 113.421875 150.785156 113.910156 C 150.722656 117.148438 152.488281 119.390625 154.789062 121.367188 C 155.335938 122.242188 155.699219 123.21875 156.164062 124.128906 C 158.039062 127.808594 161.136719 129.921875 164.886719 131.246094 C 169.550781 132.898438 173.027344 135.75 174.777344 140.515625 C 175.453125 142.316406 175.613281 144.105469 175.226562 145.972656 Z M 175.226562 145.972656 " fill-opacity="1" fill-rule="nonzero"/><path fill="#f0b97c" d="M 175.5 98.1875 C 174.953125 97.523438 175.113281 96.710938 175.164062 95.996094 C 175.5 90.492188 172.914062 86.164062 169.574219 82.175781 C 168.4375 80.8125 167.164062 79.5625 165.6875 78.535156 C 171.75 77.585938 177.414062 78.511719 182.316406 82.414062 C 192.265625 90.320312 202.265625 98.175781 209.84375 108.582031 C 211.96875 111.507812 213.429688 114.722656 213.53125 118.464844 C 212.417969 116.988281 211.730469 115.25 210.441406 113.921875 C 210.003906 113.484375 209.617188 112.972656 209.117188 112.609375 C 208.667969 112.285156 208.203125 111.535156 207.542969 112.035156 C 206.867188 112.535156 207.390625 113.148438 207.667969 113.683594 C 209.21875 116.710938 209.804688 119.941406 209.691406 123.316406 C 209.65625 124.292969 209.566406 125.242188 209.140625 126.144531 C 208.59375 127.621094 207.578125 128.671875 206.277344 129.546875 C 203.480469 131.449219 200.417969 132.898438 197.503906 134.601562 C 193.539062 136.914062 190.351562 139.964844 188.339844 144.144531 C 188.039062 144.757812 187.851562 145.59375 187.050781 145.621094 C 186.128906 145.644531 185.902344 144.730469 185.640625 144.058594 C 183.828125 139.277344 182.351562 134.398438 180.914062 129.507812 C 180.328125 127.519531 179.75 125.53125 178.925781 123.628906 C 177.652344 120.691406 177.613281 117.636719 178.027344 114.523438 C 178.238281 109.144531 178.527344 103.753906 177.101562 98.460938 C 176.777344 97.234375 176.339844 96.046875 175.5 94.945312 C 175.5 96.035156 175.5 97.109375 175.5 98.1875 Z M 175.5 98.1875 " fill-opacity="1" fill-rule="nonzero"/><path fill="#f0b97d" d="M 103.308594 78.472656 C 98.433594 82.8125 94.769531 87.84375 94.246094 94.621094 C 93.21875 94.523438 93.257812 95.433594 93.042969 95.996094 C 91.746094 99.386719 91.167969 102.941406 91.167969 106.542969 C 91.183594 110.582031 91.042969 114.648438 91.84375 118.652344 C 92.320312 121.929688 91.46875 125.082031 90.980469 128.269531 C 89.933594 135 87.78125 141.417969 85.132812 147.660156 C 84.882812 148.261719 84.742188 149.136719 83.84375 149.046875 C 83.082031 148.972656 83.042969 148.171875 82.894531 147.609375 C 81.40625 142.105469 77.78125 138.242188 73.355469 134.964844 C 71.253906 133.398438 69.105469 131.898438 67.28125 129.972656 C 62.765625 125.230469 61.792969 119.539062 62.554688 113.285156 C 62.84375 110.945312 63.179688 108.667969 64.292969 106.554688 C 63.265625 108.480469 62.679688 110.683594 60.71875 111.984375 C 58.929688 113.535156 57.703125 115.550781 56.191406 117.875 C 56.078125 116.375 56.464844 115.398438 56.855469 114.4375 C 58.855469 109.394531 62.179688 105.253906 65.84375 101.363281 C 71.816406 95.023438 78.28125 89.207031 84.992188 83.640625 C 90.34375 79.171875 96.433594 77.460938 103.308594 78.472656 Z M 103.308594 78.472656 " fill-opacity="1" fill-rule="nonzero"/><path fill="#c0bfbf" d="M 82.59375 219.835938 C 84.667969 218.210938 87.230469 217.847656 89.644531 217.082031 C 90.582031 216.796875 90.65625 217.398438 90.71875 218.070312 C 91.78125 230.332031 94.167969 242.402344 96.132812 254.535156 C 96.28125 255.4375 96.121094 256.136719 95.644531 256.863281 C 92.78125 261.238281 90.230469 265.730469 90.507812 271.234375 C 90.558594 272.121094 90.03125 272.246094 89.332031 272.234375 C 84.980469 272.210938 80.632812 272.183594 76.28125 272.210938 C 75.167969 272.222656 74.867188 271.734375 74.855469 270.710938 C 74.84375 268.09375 75.480469 265.65625 76.492188 263.277344 C 76.707031 262.765625 77.320312 262.027344 76.566406 261.652344 C 75.941406 261.339844 75.480469 262.117188 75.144531 262.605469 C 73.617188 264.84375 73.042969 267.371094 72.90625 270.046875 C 72.867188 270.671875 73.429688 271.949219 71.941406 271.796875 C 70.753906 271.671875 69.617188 271.460938 69.691406 269.746094 C 69.792969 267.78125 70.054688 265.90625 70.96875 264.140625 C 71.332031 263.441406 71.628906 262.714844 71.769531 261.914062 C 68.355469 263.503906 68.03125 266.695312 67.691406 270.046875 C 66.203125 269.285156 65.730469 268.070312 65.578125 266.65625 C 65.078125 261.953125 68.09375 257.738281 72.867188 256.824219 C 76.96875 256.035156 81.105469 255.722656 84.84375 258.3125 C 85.21875 258.5625 85.605469 258.925781 86.59375 258.714844 C 83.195312 255.109375 79.207031 252.332031 76.753906 248.195312 C 76.117188 243.964844 76.003906 239.699219 76.554688 235.472656 C 77.21875 230.355469 78.867188 225.550781 81.882812 221.300781 C 82.195312 220.863281 82.542969 220.410156 82.59375 219.835938 Z M 82.59375 219.835938 " fill-opacity="1" fill-rule="nonzero"/><path fill="#c0bfbf" d="M 172.652344 180.496094 C 171.015625 182.097656 170.136719 184.246094 168.6875 186 C 160.148438 196.355469 148.886719 201.808594 135.9375 204 C 131.234375 204.800781 126.597656 203.261719 122.171875 201.796875 C 114.132812 199.144531 107.121094 194.753906 101.296875 188.527344 C 99.957031 187.101562 99.019531 185.4375 97.984375 183.824219 C 97.558594 183.160156 97.359375 182.234375 96.332031 182.132812 C 96.871094 179.605469 98.308594 177.492188 99.433594 174.964844 C 106.070312 182.882812 114.746094 186.960938 124.097656 189.890625 C 125.097656 190.203125 125.449219 190.726562 125.609375 191.765625 C 126.386719 196.519531 129.171875 199.871094 133.222656 202.296875 C 134.335938 202.960938 135.375 202.6875 136.347656 202.109375 C 140.347656 199.796875 142.949219 196.417969 143.449219 191.765625 C 143.597656 190.351562 144.125 189.976562 145.300781 189.625 C 153.925781 187.023438 161.964844 183.335938 168.414062 176.792969 C 168.902344 176.304688 169.375 175.804688 169.851562 175.316406 C 169.886719 175.277344 169.976562 175.265625 170.164062 175.191406 C 171.265625 176.804688 172.152344 178.554688 172.652344 180.496094 Z M 172.652344 180.496094 " fill-opacity="1" fill-rule="nonzero"/><path fill="#eeb97f" d="M 150.3125 114.023438 C 148.363281 107.707031 148.535156 101.414062 150.597656 95.171875 C 152.023438 90.84375 154.761719 89.441406 159.050781 90.832031 C 165.339844 92.859375 169.339844 97.460938 172.453125 102.988281 C 173.1875 104.304688 173.988281 105.605469 174.300781 107.117188 C 174.5 108.09375 174.839844 106.96875 175.101562 107.167969 C 174.789062 111.207031 174.5625 115.261719 174.164062 119.300781 C 173.539062 125.542969 174.027344 131.710938 175.675781 137.726562 C 176.464844 140.605469 175.988281 143.269531 175.203125 145.984375 C 174.890625 138.601562 171.1875 133.800781 164.164062 131.535156 C 159.199219 129.933594 156.125 126.480469 154.5 121.617188 C 155.074219 121.089844 155.675781 121.464844 156.25 121.578125 C 160.4375 122.464844 164.199219 119.964844 164.976562 115.761719 C 165.027344 115.488281 165.027344 115.210938 165.089844 114.949219 C 165.425781 113.335938 165.976562 113.136719 167.3125 114.125 C 167.699219 114.410156 167.964844 114.835938 168.527344 115.097656 C 167.402344 111.945312 165.613281 109.46875 162.738281 107.855469 C 157.914062 105.167969 152.648438 107.394531 151.1875 112.722656 C 151.074219 113.234375 151.261719 114.046875 150.3125 114.023438 Z M 150.3125 114.023438 " fill-opacity="1" fill-rule="nonzero"/><path fill="#efb87f" d="M 94.320312 106.71875 C 94.53125 107.128906 94.730469 107.53125 94.980469 108.007812 C 96.734375 103.054688 99.09375 98.5 102.945312 94.933594 C 105.320312 92.734375 108.046875 91.007812 111.320312 90.34375 C 114.246094 89.742188 116.507812 90.769531 117.746094 93.472656 C 120.046875 98.511719 120.382812 103.851562 119.820312 109.257812 C 119.570312 111.683594 118.898438 114.074219 118.410156 116.476562 C 117.621094 115.863281 117.796875 114.972656 117.835938 114.1875 C 117.945312 111.121094 116.382812 109.105469 113.859375 107.707031 C 111.257812 106.265625 108.597656 106.457031 106.207031 108.019531 C 103.644531 109.707031 101.769531 112.097656 100.65625 115.148438 C 101.359375 115.125 101.683594 114.636719 102.121094 114.386719 C 103.257812 113.746094 103.683594 114.1875 103.933594 115.335938 C 105.121094 120.726562 108.269531 122.652344 113.570312 121.289062 C 114.035156 121.164062 114.496094 120.976562 114.960938 121.277344 C 112.570312 126.308594 109.046875 129.996094 103.570312 131.722656 C 100.945312 132.546875 98.621094 134.101562 96.808594 136.277344 C 95.15625 138.242188 93.894531 140.378906 93.808594 143.042969 C 93.320312 142.019531 93.121094 140.953125 93.480469 139.855469 C 96.320312 131.398438 95.933594 122.777344 94.871094 114.097656 C 94.570312 111.660156 94.15625 109.207031 94.320312 106.71875 Z M 94.320312 106.71875 " fill-opacity="1" fill-rule="nonzero"/><path fill="#fdfdfd" d="M 174.703125 248.480469 C 176.289062 238.472656 178.140625 228.492188 179.152344 218.398438 C 179.226562 217.609375 179.140625 217.007812 180.414062 217.296875 C 198.027344 221.261719 199.703125 238.960938 192.601562 248.554688 C 191.726562 249.59375 190.539062 249.21875 189.527344 249.054688 C 185.164062 248.382812 180.941406 248.832031 176.765625 250.195312 C 174.75 250.832031 174.488281 250.546875 174.703125 248.480469 Z M 174.703125 248.480469 " fill-opacity="1" fill-rule="nonzero"/><path fill="#c1bfbf" d="M 124.972656 230.679688 C 126.496094 234.546875 128.523438 238.074219 131.660156 240.902344 C 134.097656 243.101562 135.847656 243.078125 138.285156 240.851562 C 141.171875 238.210938 143.285156 235.058594 144.863281 231.519531 C 144.875 238.910156 144.875 246.292969 144.925781 253.683594 C 144.925781 254.621094 144.511719 255.222656 143.949219 255.859375 C 140.074219 260.1875 137.585938 265.054688 138.171875 271.058594 C 138.261719 272.023438 137.9375 272.273438 137.0625 272.246094 C 135.472656 272.210938 133.648438 272.75 132.359375 272.136719 C 130.824219 271.410156 132.136719 269.496094 131.933594 268.09375 C 131.273438 263.464844 129.261719 259.550781 126.171875 256.160156 C 125.261719 255.160156 124.898438 254.160156 124.910156 252.847656 C 124.960938 245.453125 124.960938 238.074219 124.972656 230.679688 Z M 124.972656 230.679688 " fill-opacity="1" fill-rule="nonzero"/><path fill="#c1bfbf" d="M 167.539062 164.332031 C 168.0625 165.972656 167.5 167.023438 166.714844 168.0625 C 162.3125 173.914062 156.125 177.167969 149.574219 179.945312 C 145.6875 181.597656 141.460938 182.144531 137.574219 183.746094 C 136.847656 184.046875 136.785156 183.535156 136.484375 183.195312 C 135.761719 182.371094 134.5 181.996094 133.886719 182.609375 C 132.296875 184.183594 130.972656 182.960938 129.511719 182.648438 C 123.382812 181.347656 117.585938 179.21875 112.171875 176.066406 C 108.808594 174.101562 105.707031 171.8125 103.457031 168.5625 C 102.71875 167.5 101.957031 166.398438 102.21875 164.746094 C 103.15625 165.359375 103.996094 165.910156 104.820312 166.460938 C 109.519531 169.613281 114.710938 171.652344 120.132812 173.113281 C 121.347656 173.441406 122.371094 174.003906 123.359375 174.828125 C 125.847656 176.90625 128.636719 178.332031 132.058594 177.90625 C 132.597656 177.84375 133.183594 177.882812 133.699219 178.042969 C 138.648438 179.558594 142.5625 177.316406 146.335938 174.578125 C 146.835938 174.214844 147.210938 173.742188 147.863281 173.578125 C 154.9375 171.765625 161.613281 169.074219 167.539062 164.332031 Z M 167.539062 164.332031 " fill-opacity="1" fill-rule="nonzero"/><path fill="#c0bebe" d="M 174.703125 248.480469 C 175.089844 248.929688 174.1875 250.457031 175.890625 249.820312 C 181.015625 247.90625 186.277344 247.769531 191.617188 248.695312 C 191.929688 248.742188 192.277344 248.605469 192.601562 248.554688 C 190.839844 251.582031 188.113281 253.699219 185.601562 256.011719 C 184.566406 256.960938 183.390625 257.789062 182.753906 259.289062 C 186.726562 256.722656 190.851562 255.222656 195.539062 256.773438 C 195.503906 256.824219 195.453125 256.925781 195.414062 256.925781 C 192.492188 257 192.242188 259.101562 191.890625 261.316406 C 191.492188 263.816406 190.566406 266.21875 190.054688 268.707031 C 189.789062 269.972656 189.828125 271.085938 190.492188 272.171875 C 187.039062 272.199219 183.589844 272.210938 180.152344 272.246094 C 179.328125 272.261719 178.890625 272.085938 178.953125 271.097656 C 179.238281 266.292969 177.277344 262.179688 174.777344 258.3125 C 173.625 256.550781 173.203125 254.910156 173.789062 252.898438 C 174.1875 251.457031 174.390625 249.957031 174.703125 248.480469 Z M 174.703125 248.480469 " fill-opacity="1" fill-rule="nonzero"/><path fill="#9c5d36" d="M 60.703125 111.984375 C 62.09375 109.59375 63.480469 107.191406 64.855469 104.804688 C 64.34375 107.769531 63.265625 110.496094 62.980469 113.484375 C 62.242188 121.101562 64.054688 127.582031 70.582031 132.210938 C 72.429688 133.523438 74.230469 134.9375 75.992188 136.363281 C 79.96875 139.589844 82.632812 143.667969 83.769531 149.148438 C 88.480469 139.203125 90.707031 129.070312 91.832031 118.640625 C 92.605469 122.890625 92.417969 127.15625 91.730469 131.359375 C 90.621094 138.101562 88.632812 144.53125 84.394531 150.0625 C 83.929688 150.660156 83.59375 151.347656 82.804688 151.6875 C 82.019531 150.9375 81.894531 149.847656 81.492188 148.933594 C 79.070312 143.367188 74.816406 139.578125 69.679688 136.589844 C 66.578125 134.789062 63.429688 132.972656 61.628906 129.660156 C 58.703125 124.28125 59.578125 118.890625 61.84375 113.535156 C 62.054688 113.035156 62.515625 112.496094 62.203125 111.996094 C 61.804688 111.332031 61.21875 112.171875 60.703125 111.984375 Z M 60.703125 111.984375 " fill-opacity="1" fill-rule="nonzero"/><path fill="#9a5d34" d="M 178.027344 114.535156 C 177.328125 119.078125 179.464844 122.980469 180.753906 127.09375 C 182.425781 132.421875 183.902344 137.816406 185.828125 143.054688 C 186.128906 143.882812 186.300781 144.769531 187.140625 145.582031 C 188.753906 141.21875 191.527344 137.839844 195.277344 135.375 C 198.039062 133.5625 201.003906 132.074219 203.867188 130.410156 C 205.828125 129.269531 207.730469 128.019531 209.117188 126.167969 C 208.417969 129.746094 205.980469 132.035156 203.203125 134.039062 C 201.589844 135.199219 199.878906 136.25 198.164062 137.277344 C 193.003906 140.367188 189.316406 144.65625 187.300781 150.363281 C 187.152344 150.800781 187.175781 151.460938 186.652344 151.574219 C 186.003906 151.710938 185.789062 151.011719 185.488281 150.597656 C 180.777344 144.132812 178.589844 136.738281 177.5625 128.894531 C 177.015625 124.742188 177.601562 120.640625 177.613281 116.511719 C 177.640625 115.847656 177.5 115.109375 178.027344 114.535156 Z M 178.027344 114.535156 " fill-opacity="1" fill-rule="nonzero"/><path fill="#f9f9f9" d="M 190.476562 272.160156 C 189.238281 271.910156 188.941406 271.132812 189.226562 269.984375 C 189.851562 267.445312 190.441406 264.90625 191.054688 262.367188 C 191.214844 261.703125 191.351562 261.015625 191.566406 260.363281 C 191.929688 259.25 191.089844 257.6875 192.117188 257.0625 C 192.976562 256.523438 194.378906 256.835938 195.527344 256.773438 C 196.429688 257.585938 197.628906 257.023438 198.652344 257.476562 C 201.980469 258.964844 204.292969 262.503906 204.253906 266.207031 C 204.242188 267.855469 203.554688 269.070312 202.089844 270.121094 C 201.703125 266.804688 201.628906 263.480469 198.128906 261.714844 C 197.679688 262.730469 198.402344 263.277344 198.691406 263.890625 C 199.554688 265.742188 199.980469 267.65625 199.953125 269.695312 C 199.941406 270.835938 199.441406 271.484375 198.316406 271.722656 C 197.265625 271.949219 196.640625 271.886719 196.679688 270.507812 C 196.753906 268.21875 196.414062 265.945312 195.328125 263.890625 C 194.839844 262.964844 194.453125 261.828125 193.164062 261.589844 C 192.589844 262.339844 193.203125 262.953125 193.429688 263.515625 C 194.277344 265.59375 194.527344 267.757812 194.703125 269.972656 C 194.839844 271.722656 194.253906 272.421875 192.515625 272.234375 C 191.867188 272.171875 191.164062 272.183594 190.476562 272.160156 Z M 190.476562 272.160156 " fill-opacity="1" fill-rule="nonzero"/><path fill="#dda979" d="M 141.210938 191.578125 C 140.710938 194.929688 138.660156 197.65625 135.648438 199.746094 C 134.75 200.371094 133.921875 199.960938 133.171875 199.410156 C 130.574219 197.519531 128.710938 195.09375 127.984375 191.914062 C 127.308594 188.9375 128.996094 187.175781 132.046875 187.574219 C 132.324219 187.613281 132.773438 187.726562 132.847656 187.613281 C 134.785156 184.574219 136.648438 188.214844 138.734375 187.75 C 140.3125 187.398438 141.160156 189.425781 141.210938 191.578125 Z M 141.210938 191.578125 " fill-opacity="1" fill-rule="nonzero"/><path fill="#b37752" d="M 129.398438 185.3125 C 127.285156 187.289062 125.171875 187.851562 122.460938 186.773438 C 116.210938 184.308594 110.132812 181.582031 105.019531 177.105469 C 102.933594 175.277344 101.121094 173.214844 99.820312 170.738281 C 99.496094 170.125 99.183594 169.5 99.484375 168.773438 C 99.707031 168.238281 100.082031 167.886719 100.519531 168.523438 C 107.371094 178.707031 118.132812 182.097656 129.148438 185.085938 C 129.199219 185.125 129.234375 185.1875 129.398438 185.3125 Z M 129.398438 185.3125 " fill-opacity="1" fill-rule="nonzero"/><path fill="#fafaf9" d="M 82.59375 219.835938 C 83.242188 220.011719 83.542969 220.125 82.945312 220.886719 C 79.679688 225.128906 77.929688 229.992188 77.195312 235.257812 C 76.667969 239.023438 76.679688 242.789062 77.15625 246.554688 C 77.230469 247.179688 77.457031 247.78125 76.769531 248.207031 C 70.566406 238.285156 72.09375 227.605469 80.667969 221.023438 C 81.269531 220.5625 81.957031 220.222656 82.59375 219.835938 Z M 82.59375 219.835938 " fill-opacity="1" fill-rule="nonzero"/><path fill="#bb7b57" d="M 140.324219 185.324219 C 145.636719 184.234375 150.613281 182.445312 155.351562 180.058594 C 160.636719 177.40625 165.5625 174.277344 168.875 169.164062 C 169.125 168.785156 169.375 168.175781 169.964844 168.5625 C 170.402344 168.863281 170.3125 169.425781 170.164062 169.898438 C 169.476562 172 168.050781 173.628906 166.511719 175.105469 C 161.085938 180.332031 154.5625 183.699219 147.5625 186.261719 C 147.113281 186.425781 146.636719 186.550781 146.199219 186.75 C 144.035156 187.75 142 187.949219 140.324219 185.324219 Z M 140.324219 185.324219 " fill-opacity="1" fill-rule="nonzero"/><path fill="#c6c2c2" d="M 117.496094 270.910156 C 117.496094 272.347656 117.535156 273.773438 117.484375 275.210938 C 117.433594 276.527344 117.898438 276.902344 119.195312 276.527344 C 123.234375 275.351562 126.410156 273.136719 128.285156 269.285156 C 128.308594 274.664062 123.433594 278.777344 118.171875 277.863281 C 117.523438 277.75 117.121094 277.476562 117.097656 276.839844 C 117.035156 274.835938 116.648438 272.824219 117.496094 270.910156 Z M 117.496094 270.910156 " fill-opacity="1" fill-rule="nonzero"/><path fill="#bdb9b9" d="M 142.359375 265.503906 C 141.8125 268.445312 141.761719 271.261719 144.222656 273.5 C 146.523438 275.574219 149.210938 276.664062 152.3125 276.738281 C 152.449219 277.375 152.125 277.652344 151.550781 277.652344 C 148.410156 277.625 145.25 277.425781 143.210938 274.613281 C 141.199219 271.808594 140.875 268.695312 142.359375 265.503906 Z M 142.359375 265.503906 " fill-opacity="1" fill-rule="nonzero"/><path fill="#0b0205" d="M 136.148438 123.617188 C 138.960938 123.640625 142.511719 124.367188 145.738281 126.308594 C 148.261719 127.820312 148.886719 129.523438 147.847656 132.273438 C 145.972656 137.238281 142.421875 140.730469 137.796875 143.105469 C 136.234375 143.90625 136.199219 144.59375 136.9375 145.921875 C 139.921875 151.210938 144.011719 155.003906 150.386719 155.277344 C 155.835938 155.503906 159.738281 152.101562 160.574219 146.707031 C 160.75 145.609375 160.949219 144.605469 162.386719 144.71875 C 163.988281 144.84375 163.949219 146.035156 163.914062 147.160156 C 163.6875 152.9375 158.9375 157.714844 152.625 158.554688 C 151.035156 158.765625 149.425781 158.878906 147.886719 158.515625 C 146.3125 158.140625 145.363281 158.390625 144.722656 160.066406 C 144.273438 161.242188 143.347656 162.292969 142.472656 163.257812 C 137.734375 168.460938 130.449219 168.097656 126.171875 162.496094 C 125.636719 161.78125 125.046875 161.042969 124.746094 160.21875 C 124.171875 158.605469 123.410156 158.167969 121.558594 158.480469 C 116.148438 159.378906 111.421875 157.878906 107.933594 153.414062 C 106.394531 151.449219 105.695312 149.136719 105.683594 146.644531 C 105.683594 145.59375 105.996094 144.695312 107.308594 144.695312 C 108.445312 144.683594 108.796875 145.371094 108.972656 146.394531 C 110.296875 153.9375 116.808594 157.378906 123.835938 154.265625 C 127.835938 152.488281 130.773438 149.5625 132.847656 145.746094 C 133.449219 144.644531 133.359375 144.03125 132.074219 143.367188 C 127.785156 141.167969 124.410156 137.964844 122.398438 133.5 C 120.660156 129.632812 121.421875 127.632812 125.222656 125.804688 C 128.359375 124.253906 131.722656 123.617188 136.148438 123.617188 Z M 136.148438 123.617188 " fill-opacity="1" fill-rule="nonzero"/><path fill="#0d0206" d="M 114.945312 121.277344 C 110.457031 123.957031 103.484375 121.890625 103.34375 114.160156 C 102.09375 114.660156 101.28125 115.675781 100.359375 116.476562 C 99.621094 116.148438 99.921875 115.660156 100.082031 115.25 C 101.359375 111.984375 103.144531 109.082031 106.296875 107.34375 C 109.171875 105.753906 112.132812 105.765625 114.921875 107.632812 C 117.621094 109.433594 118.859375 111.984375 118.496094 115.25 C 118.445312 115.660156 118.445312 116.074219 118.421875 116.476562 C 117.820312 118.476562 116.570312 120.015625 114.945312 121.277344 Z M 114.945312 121.277344 " fill-opacity="1" fill-rule="nonzero"/><path fill="#0c0205" d="M 150.3125 114.023438 C 151.6875 108.332031 155.039062 105.640625 159.949219 106.28125 C 164.375 106.855469 168.886719 111.734375 169.289062 116.648438 C 168.0625 115.535156 167 114.5625 165.824219 113.496094 C 164.464844 121.140625 160.710938 123.742188 154.539062 121.601562 C 151.710938 119.863281 150.425781 117.273438 150.3125 114.023438 Z M 150.3125 114.023438 " fill-opacity="1" fill-rule="nonzero"/><path fill="#361b0e" d="M 167.414062 102.339844 C 164.675781 100.261719 162.351562 98.535156 159.4375 98 C 159.101562 97.9375 158.710938 97.773438 158.898438 97.335938 C 159.113281 96.847656 159.625 96.761719 160.113281 96.6875 C 162.949219 96.210938 166.425781 98.625 167.414062 102.339844 Z M 167.414062 102.339844 " fill-opacity="1" fill-rule="nonzero"/><path fill="#33170f" d="M 101.609375 102.089844 C 101.894531 98.960938 105.734375 96.308594 108.832031 96.734375 C 109.246094 96.796875 109.695312 96.847656 109.785156 97.335938 C 109.832031 97.636719 109.546875 97.8125 109.257812 97.875 C 106.457031 98.523438 104.15625 100.164062 101.609375 102.089844 Z M 101.609375 102.089844 " fill-opacity="1" fill-rule="nonzero"/><path fill="#f7f3e9" d="M 133.761719 190.402344 C 135.199219 190.539062 136.636719 190.703125 138.0625 190.816406 C 139.335938 190.925781 139.210938 191.539062 138.597656 192.292969 C 137.824219 193.242188 137.074219 194.269531 136.160156 195.082031 C 135.460938 195.707031 135.0625 197.269531 133.5625 196.257812 C 131.972656 195.179688 130.335938 192.292969 130.824219 191.242188 C 131.472656 189.851562 132.773438 190.652344 133.761719 190.402344 Z M 133.761719 190.402344 " fill-opacity="1" fill-rule="nonzero"/><path fill="#fcacae" d="M 133.625 150.675781 C 133.785156 153.289062 133.597656 155.550781 134.035156 157.765625 C 134.136719 158.292969 134.074219 159.105469 134.722656 159.117188 C 135.636719 159.128906 135.324219 158.191406 135.359375 157.679688 C 135.5625 155.488281 135.660156 153.289062 135.8125 151.0625 C 136.636719 150.988281 136.824219 151.710938 137.222656 152.113281 C 138.386719 153.289062 139.5 154.515625 140.875 155.464844 C 143.675781 157.390625 143.660156 157.390625 141.699219 160.21875 C 139.6875 163.109375 137 164.746094 133.4375 164.269531 C 129.847656 163.796875 127.835938 161.308594 126.386719 158.21875 C 126.085938 157.578125 125.984375 157.054688 126.722656 156.640625 C 129.324219 155.203125 131.449219 153.175781 133.625 150.675781 Z M 133.625 150.675781 " fill-opacity="1" fill-rule="nonzero"/><path fill="#f1f0f0" d="M 144.738281 130.210938 C 138.074219 129.632812 131.609375 129.484375 125.058594 130.382812 C 128.648438 126.246094 140.671875 126.082031 144.738281 130.210938 Z M 144.738281 130.210938 " fill-opacity="1" fill-rule="nonzero"/><path fill="#dad8d8" d="M 114.183594 111.609375 C 114.109375 112.546875 113.507812 112.921875 112.671875 112.949219 C 111.847656 112.972656 111.410156 112.472656 111.332031 111.695312 C 111.257812 110.921875 111.546875 110.296875 112.410156 110.257812 C 113.320312 110.21875 113.984375 110.65625 114.183594 111.609375 Z M 114.183594 111.609375 " fill-opacity="1" fill-rule="nonzero"/><path fill="#f2f1f2" d="M 162.8125 112.820312 C 162.589844 114.222656 161.851562 115.210938 160.398438 115.160156 C 158.960938 115.109375 158.164062 114.085938 158.164062 112.683594 C 158.164062 111.394531 159.039062 110.644531 160.289062 110.632812 C 161.6875 110.632812 162.613281 111.347656 162.8125 112.820312 Z M 162.8125 112.820312 " fill-opacity="1" fill-rule="nonzero"/><g fill="#020202" fill-opacity="1"><g transform="translate(71.268244, 320.52513)"><g><path d="M 10.984375 -16.71875 C 9.390625 -16.71875 8.15625 -16.117188 7.28125 -14.921875 C 6.414062 -13.722656 5.984375 -12.054688 5.984375 -9.921875 C 5.984375 -5.472656 7.648438 -3.25 10.984375 -3.25 C 12.390625 -3.25 14.085938 -3.597656 16.078125 -4.296875 L 16.078125 -0.75 C 14.441406 -0.0703125 12.613281 0.265625 10.59375 0.265625 C 7.6875 0.265625 5.460938 -0.613281 3.921875 -2.375 C 2.390625 -4.132812 1.625 -6.660156 1.625 -9.953125 C 1.625 -12.023438 2 -13.84375 2.75 -15.40625 C 3.507812 -16.96875 4.597656 -18.160156 6.015625 -18.984375 C 7.429688 -19.816406 9.085938 -20.234375 10.984375 -20.234375 C 12.921875 -20.234375 14.867188 -19.765625 16.828125 -18.828125 L 15.46875 -15.390625 C 14.71875 -15.742188 13.960938 -16.050781 13.203125 -16.3125 C 12.453125 -16.582031 11.710938 -16.71875 10.984375 -16.71875 Z M 10.984375 -16.71875 "/></g></g></g><g fill="#020202" fill-opacity="1"><g transform="translate(89.081167, 320.52513)"><g><path d="M 11.875 0 L 11.0625 -2.078125 L 10.953125 -2.078125 C 10.253906 -1.191406 9.535156 -0.578125 8.796875 -0.234375 C 8.054688 0.0976562 7.085938 0.265625 5.890625 0.265625 C 4.429688 0.265625 3.28125 -0.148438 2.4375 -0.984375 C 1.59375 -1.816406 1.171875 -3.007812 1.171875 -4.5625 C 1.171875 -6.175781 1.738281 -7.367188 2.875 -8.140625 C 4.007812 -8.910156 5.71875 -9.335938 8 -9.421875 L 10.640625 -9.5 L 10.640625 -10.171875 C 10.640625 -11.710938 9.847656 -12.484375 8.265625 -12.484375 C 7.046875 -12.484375 5.613281 -12.117188 3.96875 -11.390625 L 2.59375 -14.1875 C 4.351562 -15.113281 6.300781 -15.578125 8.4375 -15.578125 C 10.476562 -15.578125 12.046875 -15.128906 13.140625 -14.234375 C 14.234375 -13.335938 14.78125 -11.984375 14.78125 -10.171875 L 14.78125 0 Z M 10.640625 -7.0625 L 9.03125 -7.015625 C 7.820312 -6.984375 6.921875 -6.765625 6.328125 -6.359375 C 5.742188 -5.960938 5.453125 -5.351562 5.453125 -4.53125 C 5.453125 -3.351562 6.125 -2.765625 7.46875 -2.765625 C 8.425781 -2.765625 9.191406 -3.039062 9.765625 -3.59375 C 10.347656 -4.15625 10.640625 -4.894531 10.640625 -5.8125 Z M 10.640625 -7.0625 "/></g></g></g><g fill="#020202" fill-opacity="1"><g transform="translate(105.965907, 320.52513)"><g><path d="M 8.375 0.265625 C 3.625 0.265625 1.25 -2.335938 1.25 -7.546875 C 1.25 -10.140625 1.894531 -12.117188 3.1875 -13.484375 C 4.476562 -14.859375 6.332031 -15.546875 8.75 -15.546875 C 10.507812 -15.546875 12.09375 -15.203125 13.5 -14.515625 L 12.265625 -11.28125 C 11.609375 -11.550781 11 -11.769531 10.4375 -11.9375 C 9.875 -12.101562 9.3125 -12.1875 8.75 -12.1875 C 6.582031 -12.1875 5.5 -10.648438 5.5 -7.578125 C 5.5 -4.585938 6.582031 -3.09375 8.75 -3.09375 C 9.550781 -3.09375 10.289062 -3.195312 10.96875 -3.40625 C 11.65625 -3.625 12.335938 -3.960938 13.015625 -4.421875 L 13.015625 -0.859375 C 12.347656 -0.429688 11.671875 -0.140625 10.984375 0.015625 C 10.296875 0.179688 9.425781 0.265625 8.375 0.265625 Z M 8.375 0.265625 "/></g></g></g><g fill="#020202" fill-opacity="1"><g transform="translate(120.339094, 320.52513)"><g><path d="M 16.265625 0 L 12.109375 0 L 12.109375 -8.90625 C 12.109375 -11.113281 11.289062 -12.21875 9.65625 -12.21875 C 8.488281 -12.21875 7.644531 -11.820312 7.125 -11.03125 C 6.601562 -10.238281 6.34375 -8.953125 6.34375 -7.171875 L 6.34375 0 L 2.1875 0 L 2.1875 -21.234375 L 6.34375 -21.234375 L 6.34375 -16.90625 C 6.34375 -16.570312 6.3125 -15.78125 6.25 -14.53125 L 6.15625 -13.3125 L 6.375 -13.3125 C 7.300781 -14.800781 8.773438 -15.546875 10.796875 -15.546875 C 12.585938 -15.546875 13.945312 -15.0625 14.875 -14.09375 C 15.800781 -13.132812 16.265625 -11.753906 16.265625 -9.953125 Z M 16.265625 0 "/></g></g></g><g fill="#020202" fill-opacity="1"><g transform="translate(138.711651, 320.52513)"><g><path d="M 5.5 -7.65625 C 5.5 -6.144531 5.742188 -5.003906 6.234375 -4.234375 C 6.734375 -3.460938 7.546875 -3.078125 8.671875 -3.078125 C 9.773438 -3.078125 10.570312 -3.457031 11.0625 -4.21875 C 11.550781 -4.988281 11.796875 -6.132812 11.796875 -7.65625 C 11.796875 -9.164062 11.546875 -10.296875 11.046875 -11.046875 C 10.554688 -11.804688 9.753906 -12.1875 8.640625 -12.1875 C 7.523438 -12.1875 6.722656 -11.8125 6.234375 -11.0625 C 5.742188 -10.3125 5.5 -9.175781 5.5 -7.65625 Z M 16.046875 -7.65625 C 16.046875 -5.175781 15.390625 -3.234375 14.078125 -1.828125 C 12.773438 -0.429688 10.953125 0.265625 8.609375 0.265625 C 7.148438 0.265625 5.859375 -0.0507812 4.734375 -0.6875 C 3.617188 -1.332031 2.757812 -2.253906 2.15625 -3.453125 C 1.550781 -4.648438 1.25 -6.050781 1.25 -7.65625 C 1.25 -10.144531 1.898438 -12.082031 3.203125 -13.46875 C 4.503906 -14.851562 6.332031 -15.546875 8.6875 -15.546875 C 10.15625 -15.546875 11.445312 -15.226562 12.5625 -14.59375 C 13.6875 -13.957031 14.546875 -13.039062 15.140625 -11.84375 C 15.742188 -10.65625 16.046875 -9.257812 16.046875 -7.65625 Z M 16.046875 -7.65625 "/></g></g></g><g fill="#020202" fill-opacity="1"><g transform="translate(156.019528, 320.52513)"><g><path d="M 10.703125 -15.546875 C 11.265625 -15.546875 11.734375 -15.503906 12.109375 -15.421875 L 11.796875 -11.515625 C 11.453125 -11.609375 11.039062 -11.65625 10.5625 -11.65625 C 9.238281 -11.65625 8.203125 -11.3125 7.453125 -10.625 C 6.710938 -9.945312 6.34375 -8.992188 6.34375 -7.765625 L 6.34375 0 L 2.1875 0 L 2.1875 -15.265625 L 5.34375 -15.265625 L 5.953125 -12.6875 L 6.15625 -12.6875 C 6.625 -13.550781 7.257812 -14.242188 8.0625 -14.765625 C 8.875 -15.285156 9.753906 -15.546875 10.703125 -15.546875 Z M 10.703125 -15.546875 "/></g></g></g><g fill="#020202" fill-opacity="1"><g transform="translate(168.713791, 320.52513)"><g><path d="M 10.703125 -15.546875 C 11.265625 -15.546875 11.734375 -15.503906 12.109375 -15.421875 L 11.796875 -11.515625 C 11.453125 -11.609375 11.039062 -11.65625 10.5625 -11.65625 C 9.238281 -11.65625 8.203125 -11.3125 7.453125 -10.625 C 6.710938 -9.945312 6.34375 -8.992188 6.34375 -7.765625 L 6.34375 0 L 2.1875 0 L 2.1875 -15.265625 L 5.34375 -15.265625 L 5.953125 -12.6875 L 6.15625 -12.6875 C 6.625 -13.550781 7.257812 -14.242188 8.0625 -14.765625 C 8.875 -15.285156 9.753906 -15.546875 10.703125 -15.546875 Z M 10.703125 -15.546875 "/></g></g></g><g fill="#020202" fill-opacity="1"><g transform="translate(181.408054, 320.52513)"><g><path d="M 5.5 -7.65625 C 5.5 -6.144531 5.742188 -5.003906 6.234375 -4.234375 C 6.734375 -3.460938 7.546875 -3.078125 8.671875 -3.078125 C 9.773438 -3.078125 10.570312 -3.457031 11.0625 -4.21875 C 11.550781 -4.988281 11.796875 -6.132812 11.796875 -7.65625 C 11.796875 -9.164062 11.546875 -10.296875 11.046875 -11.046875 C 10.554688 -11.804688 9.753906 -12.1875 8.640625 -12.1875 C 7.523438 -12.1875 6.722656 -11.8125 6.234375 -11.0625 C 5.742188 -10.3125 5.5 -9.175781 5.5 -7.65625 Z M 16.046875 -7.65625 C 16.046875 -5.175781 15.390625 -3.234375 14.078125 -1.828125 C 12.773438 -0.429688 10.953125 0.265625 8.609375 0.265625 C 7.148438 0.265625 5.859375 -0.0507812 4.734375 -0.6875 C 3.617188 -1.332031 2.757812 -2.253906 2.15625 -3.453125 C 1.550781 -4.648438 1.25 -6.050781 1.25 -7.65625 C 1.25 -10.144531 1.898438 -12.082031 3.203125 -13.46875 C 4.503906 -14.851562 6.332031 -15.546875 8.6875 -15.546875 C 10.15625 -15.546875 11.445312 -15.226562 12.5625 -14.59375 C 13.6875 -13.957031 14.546875 -13.039062 15.140625 -11.84375 C 15.742188 -10.65625 16.046875 -9.257812 16.046875 -7.65625 Z M 16.046875 -7.65625 "/></g></g></g><g fill="#020202" fill-opacity="1"><g transform="translate(108.098444, 35.075895)"><g><path d="M 19.0625 -10.171875 C 19.0625 -6.878906 18.125 -4.359375 16.25 -2.609375 C 14.382812 -0.867188 11.6875 0 8.15625 0 L 2.515625 0 L 2.515625 -19.953125 L 8.78125 -19.953125 C 12.03125 -19.953125 14.554688 -19.09375 16.359375 -17.375 C 18.160156 -15.65625 19.0625 -13.253906 19.0625 -10.171875 Z M 14.671875 -10.0625 C 14.671875 -14.34375 12.78125 -16.484375 9 -16.484375 L 6.75 -16.484375 L 6.75 -3.5 L 8.5625 -3.5 C 12.632812 -3.5 14.671875 -5.6875 14.671875 -10.0625 Z M 14.671875 -10.0625 "/></g></g></g><g fill="#020202" fill-opacity="1"><g transform="translate(128.791457, 35.075895)"><g><path d="M 5.5 -7.65625 C 5.5 -6.144531 5.742188 -5.003906 6.234375 -4.234375 C 6.734375 -3.460938 7.546875 -3.078125 8.671875 -3.078125 C 9.773438 -3.078125 10.570312 -3.457031 11.0625 -4.21875 C 11.550781 -4.988281 11.796875 -6.132812 11.796875 -7.65625 C 11.796875 -9.164062 11.546875 -10.296875 11.046875 -11.046875 C 10.554688 -11.804688 9.753906 -12.1875 8.640625 -12.1875 C 7.523438 -12.1875 6.722656 -11.8125 6.234375 -11.0625 C 5.742188 -10.3125 5.5 -9.175781 5.5 -7.65625 Z M 16.046875 -7.65625 C 16.046875 -5.175781 15.390625 -3.234375 14.078125 -1.828125 C 12.773438 -0.429688 10.953125 0.265625 8.609375 0.265625 C 7.148438 0.265625 5.859375 -0.0507812 4.734375 -0.6875 C 3.617188 -1.332031 2.757812 -2.253906 2.15625 -3.453125 C 1.550781 -4.648438 1.25 -6.050781 1.25 -7.65625 C 1.25 -10.144531 1.898438 -12.082031 3.203125 -13.46875 C 4.503906 -14.851562 6.332031 -15.546875 8.6875 -15.546875 C 10.15625 -15.546875 11.445312 -15.226562 12.5625 -14.59375 C 13.6875 -13.957031 14.546875 -13.039062 15.140625 -11.84375 C 15.742188 -10.65625 16.046875 -9.257812 16.046875 -7.65625 Z M 16.046875 -7.65625 "/></g></g></g><g fill="#020202" fill-opacity="1"><g transform="translate(146.099334, 35.075895)"><g><path d="M 15.46875 -15.265625 L 15.46875 -13.140625 L 13.078125 -12.53125 C 13.515625 -11.84375 13.734375 -11.078125 13.734375 -10.234375 C 13.734375 -8.597656 13.160156 -7.320312 12.015625 -6.40625 C 10.878906 -5.488281 9.296875 -5.03125 7.265625 -5.03125 L 6.515625 -5.078125 L 5.890625 -5.140625 C 5.460938 -4.816406 5.25 -4.453125 5.25 -4.046875 C 5.25 -3.453125 6.015625 -3.15625 7.546875 -3.15625 L 10.140625 -3.15625 C 11.816406 -3.15625 13.09375 -2.796875 13.96875 -2.078125 C 14.84375 -1.359375 15.28125 -0.300781 15.28125 1.09375 C 15.28125 2.875 14.535156 4.253906 13.046875 5.234375 C 11.566406 6.222656 9.429688 6.71875 6.640625 6.71875 C 4.515625 6.71875 2.890625 6.34375 1.765625 5.59375 C 0.640625 4.851562 0.078125 3.816406 0.078125 2.484375 C 0.078125 1.566406 0.363281 0.796875 0.9375 0.171875 C 1.507812 -0.441406 2.351562 -0.878906 3.46875 -1.140625 C 3.039062 -1.328125 2.664062 -1.625 2.34375 -2.03125 C 2.03125 -2.445312 1.875 -2.890625 1.875 -3.359375 C 1.875 -3.941406 2.039062 -4.425781 2.375 -4.8125 C 2.707031 -5.195312 3.191406 -5.578125 3.828125 -5.953125 C 3.035156 -6.296875 2.40625 -6.847656 1.9375 -7.609375 C 1.46875 -8.378906 1.234375 -9.28125 1.234375 -10.3125 C 1.234375 -11.976562 1.773438 -13.265625 2.859375 -14.171875 C 3.941406 -15.085938 5.488281 -15.546875 7.5 -15.546875 C 7.925781 -15.546875 8.429688 -15.503906 9.015625 -15.421875 C 9.597656 -15.347656 9.972656 -15.296875 10.140625 -15.265625 Z M 3.6875 2.15625 C 3.6875 2.726562 3.960938 3.175781 4.515625 3.5 C 5.066406 3.832031 5.835938 4 6.828125 4 C 8.316406 4 9.484375 3.789062 10.328125 3.375 C 11.179688 2.96875 11.609375 2.410156 11.609375 1.703125 C 11.609375 1.128906 11.351562 0.734375 10.84375 0.515625 C 10.34375 0.296875 9.570312 0.1875 8.53125 0.1875 L 6.375 0.1875 C 5.613281 0.1875 4.972656 0.363281 4.453125 0.71875 C 3.941406 1.082031 3.6875 1.5625 3.6875 2.15625 Z M 5.203125 -10.265625 C 5.203125 -9.429688 5.390625 -8.773438 5.765625 -8.296875 C 6.140625 -7.816406 6.71875 -7.578125 7.5 -7.578125 C 8.28125 -7.578125 8.851562 -7.816406 9.21875 -8.296875 C 9.582031 -8.773438 9.765625 -9.429688 9.765625 -10.265625 C 9.765625 -12.097656 9.007812 -13.015625 7.5 -13.015625 C 5.96875 -13.015625 5.203125 -12.097656 5.203125 -10.265625 Z M 5.203125 -10.265625 "/></g></g></g></svg>