<svg xmlns="http://www.w3.org/2000/svg" xmlns:xlink="http://www.w3.org/1999/xlink" width="360" zoomAndPan="magnify" viewBox="0 0 270 337.499995" height="450" preserveAspectRatio="xMidYMid meet" version="1.0"><defs><g/><clipPath id="a6c4e37726"><path d="M 0.199219 0 L 269.800781 0 L 269.800781 337 L 0.199219 337 Z M 0.199219 0 " clip-rule="nonzero"/></clipPath><clipPath id="90117c1f4e"><path d="M 29.671875 111 L 240 111 L 240 203 L 29.671875 203 Z M 29.671875 111 " clip-rule="nonzero"/></clipPath><clipPath id="72bcbfa996"><path d="M 178 177 L 227 177 L 227 226.648438 L 178 226.648438 Z M 178 177 " clip-rule="nonzero"/></clipPath><clipPath id="4461263396"><path d="M 47 177 L 96 177 L 96 226.648438 L 47 226.648438 Z M 47 177 " clip-rule="nonzero"/></clipPath></defs><g clip-path="url(#a6c4e37726)"><path fill="#ffffff" d="M 0.199219 0 L 269.800781 0 L 269.800781 337 L 0.199219 337 Z M 0.199219 0 " fill-opacity="1" fill-rule="nonzero"/><path fill="#8c52ff" d="M 0.199219 0 L 269.800781 0 L 269.800781 337 L 0.199219 337 Z M 0.199219 0 " fill-opacity="1" fill-rule="nonzero"/></g><path fill="#1d191d" d="M 235.722656 192.074219 C 235.722656 201.257812 230.867188 206.871094 228.730469 206.871094 L 45.980469 206.871094 C 40.460938 206.871094 33.25 201.097656 32.820312 192.074219 L 235.722656 192.074219 " fill-opacity="1" fill-rule="nonzero"/><g clip-path="url(#90117c1f4e)"><path fill="#3d60b5" d="M 29.785156 184.945312 C 29.859375 195.296875 32.023438 202.128906 43.40625 202.273438 C 43.523438 202.277344 43.652344 202.277344 43.773438 202.277344 L 235.742188 202.277344 C 237.992188 202.277344 238.675781 193.570312 239.429688 187.347656 C 240.070312 182.105469 237.242188 181.621094 237.242188 181.621094 L 235.742188 169.667969 C 235.742188 169.667969 234.804688 158.675781 233.570312 156.269531 C 231.601562 152.421875 227.980469 146.3125 225.675781 142.632812 C 219.824219 133.292969 211.078125 124.109375 205.988281 119.507812 C 199.480469 113.632812 191.777344 112.84375 181.855469 112.296875 C 150.519531 110.566406 132.6875 111.527344 128.34375 112.296875 C 120.753906 113.640625 112.855469 117.085938 108.6875 119.839844 C 95.648438 128.453125 75.578125 143.269531 75.578125 143.269531 C 75.578125 143.269531 48.613281 146.847656 38.867188 156.800781 C 30.152344 165.703125 29.714844 174.609375 29.785156 184.945312 " fill-opacity="1" fill-rule="nonzero"/></g><path fill="#3857ab" d="M 57.777344 182.09375 L 43.40625 202.273438 C 43.523438 202.277344 43.652344 202.277344 43.773438 202.277344 L 228.210938 202.277344 L 213.734375 179.042969 C 208.347656 172.417969 200.75 166.21875 192.808594 166.21875 L 80.433594 166.21875 C 72.496094 166.21875 66.082031 174.832031 57.777344 182.09375 " fill-opacity="1" fill-rule="nonzero"/><path fill="#29242c" d="M 135.847656 163.574219 C 135.824219 163.449219 135.808594 163.324219 135.808594 163.191406 C 135.808594 162.125 136.621094 161.257812 137.625 161.257812 L 146.980469 161.257812 C 147.980469 161.257812 148.792969 162.125 148.792969 163.191406 C 148.792969 163.324219 148.78125 163.449219 148.753906 163.574219 L 135.847656 163.574219 " fill-opacity="1" fill-rule="nonzero"/><path fill="#29242c" d="M 188.253906 163.574219 C 188.234375 163.449219 188.21875 163.324219 188.21875 163.191406 C 188.21875 162.125 189.03125 161.257812 190.03125 161.257812 L 199.390625 161.257812 C 200.390625 161.257812 201.203125 162.125 201.203125 163.191406 C 201.203125 163.324219 201.1875 163.449219 201.164062 163.574219 L 188.253906 163.574219 " fill-opacity="1" fill-rule="nonzero"/><path fill="#faeb72" d="M 222.199219 167.542969 L 235.601562 168.183594 C 235.601562 168.183594 235.207031 161.574219 233.570312 156.269531 C 231.78125 155.265625 222.503906 154.984375 220.597656 156.800781 C 218.695312 158.621094 222.199219 167.542969 222.199219 167.542969 " fill-opacity="1" fill-rule="nonzero"/><path fill="#f7c66d" d="M 220.597656 156.800781 C 220.914062 156.5 221.441406 156.257812 222.101562 156.0625 C 222.167969 157.917969 222.546875 159.71875 223.269531 161.246094 C 224.160156 163.128906 225.640625 164.792969 227.683594 165.429688 C 230.261719 166.226562 232.769531 165.632812 235.3125 165.109375 C 235.527344 166.945312 235.601562 168.183594 235.601562 168.183594 L 222.199219 167.542969 C 222.199219 167.542969 218.695312 158.621094 220.597656 156.800781 " fill-opacity="1" fill-rule="nonzero"/><path fill="#faeb72" d="M 32.320312 181.253906 C 32.320312 181.253906 46.273438 181.34375 48.101562 180.160156 C 52.132812 177.546875 56.6875 170.566406 56.511719 167 C 54.890625 165.710938 39.5625 169.402344 36.191406 171.617188 C 32.824219 173.835938 32.320312 181.253906 32.320312 181.253906 " fill-opacity="1" fill-rule="nonzero"/><path fill="#f7c66d" d="M 40.621094 179.941406 C 45.53125 177.242188 48.421875 172.621094 49.765625 167.402344 C 53.097656 166.757812 55.871094 166.492188 56.511719 167 C 56.6875 170.566406 52.132812 177.546875 48.101562 180.160156 C 47.027344 180.855469 41.78125 181.113281 37.625 181.203125 C 38.660156 180.878906 39.667969 180.46875 40.621094 179.941406 " fill-opacity="1" fill-rule="nonzero"/><path fill="#2e4c9a" d="M 174.925781 202.28125 C 174.925781 187 187.277344 174.613281 202.511719 174.613281 C 217.746094 174.613281 230.101562 187 230.101562 202.28125 L 174.925781 202.28125 " fill-opacity="1" fill-rule="nonzero"/><g clip-path="url(#72bcbfa996)"><path fill="#29242c" d="M 226.800781 202.28125 C 226.800781 188.847656 215.90625 177.917969 202.511719 177.917969 C 189.121094 177.917969 178.222656 188.847656 178.222656 202.28125 C 178.222656 215.710938 189.121094 226.640625 202.511719 226.640625 C 215.90625 226.640625 226.800781 215.710938 226.800781 202.28125 " fill-opacity="1" fill-rule="nonzero"/></g><path fill="#bdbcbc" d="M 202.511719 215.902344 C 195.023438 215.902344 188.929688 209.792969 188.929688 202.28125 C 188.929688 194.769531 195.023438 188.65625 202.511719 188.65625 C 210.003906 188.65625 216.097656 194.769531 216.097656 202.28125 C 216.097656 209.792969 210.003906 215.902344 202.511719 215.902344 " fill-opacity="1" fill-rule="nonzero"/><path fill="#d3d2d2" d="M 205.546875 202.28125 C 205.546875 203.957031 204.1875 205.320312 202.511719 205.320312 C 200.835938 205.320312 199.480469 203.957031 199.480469 202.28125 C 199.480469 200.601562 200.835938 199.238281 202.511719 199.238281 C 204.1875 199.238281 205.546875 200.601562 205.546875 202.28125 " fill-opacity="1" fill-rule="nonzero"/><path fill="#656263" d="M 205.253906 190.746094 C 206.085938 191.148438 206.949219 192.097656 206.679688 193.039062 C 206.410156 193.984375 204.484375 197.621094 202.492188 197.757812 C 200.496094 197.890625 198.289062 194.015625 197.941406 193.308594 C 197.472656 192.347656 198.496094 191.289062 199.304688 190.890625 C 200.546875 190.277344 204.074219 190.175781 205.253906 190.746094 " fill-opacity="1" fill-rule="nonzero"/><path fill="#656263" d="M 199.296875 213.8125 C 198.46875 213.410156 197.601562 212.460938 197.871094 211.519531 C 198.140625 210.574219 200.066406 206.933594 202.0625 206.796875 C 204.054688 206.664062 206.265625 210.542969 206.609375 211.25 C 207.082031 212.207031 206.058594 213.269531 205.25 213.667969 C 204.003906 214.28125 200.476562 214.382812 199.296875 213.8125 " fill-opacity="1" fill-rule="nonzero"/><path fill="#656263" d="M 193.515625 194.234375 C 194.257812 193.6875 195.5 193.367188 196.203125 194.046875 C 196.910156 194.726562 199.210938 198.140625 198.394531 199.96875 C 197.578125 201.800781 193.128906 201.9375 192.34375 201.914062 C 191.277344 201.878906 190.824219 200.476562 190.851562 199.574219 C 190.894531 198.183594 192.460938 195.011719 193.515625 194.234375 " fill-opacity="1" fill-rule="nonzero"/><path fill="#656263" d="M 211.039062 210.324219 C 210.292969 210.871094 209.054688 211.191406 208.347656 210.511719 C 207.644531 209.828125 205.339844 206.417969 206.15625 204.585938 C 206.972656 202.757812 211.425781 202.617188 212.207031 202.644531 C 213.273438 202.679688 213.730469 204.082031 213.703125 204.984375 C 213.65625 206.371094 212.09375 209.546875 211.039062 210.324219 " fill-opacity="1" fill-rule="nonzero"/><path fill="#656263" d="M 190.824219 205.453125 C 190.757812 204.53125 191.148438 203.304688 192.097656 203.070312 C 193.046875 202.832031 197.152344 202.6875 198.265625 204.351562 C 199.378906 206.015625 197.132812 209.871094 196.695312 210.523438 C 196.101562 211.414062 194.671875 211.054688 193.925781 210.550781 C 192.773438 209.777344 190.921875 206.761719 190.824219 205.453125 " fill-opacity="1" fill-rule="nonzero"/><path fill="#656263" d="M 213.722656 199.101562 C 213.792969 200.027344 213.402344 201.25 212.457031 201.488281 C 211.503906 201.726562 207.398438 201.871094 206.285156 200.207031 C 205.175781 198.542969 207.421875 194.683594 207.859375 194.03125 C 208.453125 193.144531 209.878906 193.5 210.628906 194.003906 C 211.777344 194.777344 213.628906 197.792969 213.722656 199.101562 " fill-opacity="1" fill-rule="nonzero"/><path fill="#2e4c9a" d="M 43.773438 202.28125 C 43.773438 187 56.125 174.613281 71.359375 174.613281 C 86.59375 174.613281 98.945312 187 98.945312 202.28125 L 43.773438 202.28125 " fill-opacity="1" fill-rule="nonzero"/><path fill="#3150a2" d="M 154.730469 200.230469 C 154.953125 190.90625 159.496094 148.769531 159.496094 148.769531 C 159.496094 148.769531 157.476562 193.488281 157.679688 200.230469 L 154.730469 200.230469 " fill-opacity="1" fill-rule="nonzero"/><path fill="#3150a2" d="M 93.472656 154.585938 C 84.25 155.78125 48.773438 156.628906 48.773438 156.628906 C 48.773438 156.628906 86.410156 152.886719 93.027344 151.667969 L 93.472656 154.585938 " fill-opacity="1" fill-rule="nonzero"/><path fill="#3150a2" d="M 158.601562 172.417969 C 145.542969 172.496094 96.03125 169.070312 96.03125 169.070312 C 96.03125 169.070312 149.097656 169.878906 158.535156 169.460938 L 158.601562 172.417969 " fill-opacity="1" fill-rule="nonzero"/><path fill="#3150a2" d="M 235.722656 172.417969 C 222.664062 172.496094 173.152344 169.070312 173.152344 169.070312 C 173.152344 169.070312 226.21875 169.878906 235.65625 169.460938 L 235.722656 172.417969 " fill-opacity="1" fill-rule="nonzero"/><g clip-path="url(#4461263396)"><path fill="#29242c" d="M 95.648438 202.28125 C 95.648438 188.847656 84.75 177.917969 71.359375 177.917969 C 57.964844 177.917969 47.066406 188.847656 47.066406 202.28125 C 47.066406 215.710938 57.964844 226.640625 71.359375 226.640625 C 84.75 226.640625 95.648438 215.710938 95.648438 202.28125 " fill-opacity="1" fill-rule="nonzero"/></g><path fill="#bdbcbc" d="M 71.359375 215.902344 C 63.867188 215.902344 57.777344 209.792969 57.777344 202.28125 C 57.777344 194.765625 63.867188 188.65625 71.359375 188.65625 C 78.847656 188.65625 84.941406 194.765625 84.941406 202.28125 C 84.941406 209.792969 78.847656 215.902344 71.359375 215.902344 " fill-opacity="1" fill-rule="nonzero"/><path fill="#d3d2d2" d="M 74.390625 202.28125 C 74.390625 203.957031 73.035156 205.320312 71.359375 205.320312 C 69.679688 205.320312 68.324219 203.957031 68.324219 202.28125 C 68.324219 200.601562 69.679688 199.238281 71.359375 199.238281 C 73.035156 199.238281 74.390625 200.601562 74.390625 202.28125 " fill-opacity="1" fill-rule="nonzero"/><path fill="#656263" d="M 74.101562 190.746094 C 74.929688 191.148438 75.796875 192.097656 75.527344 193.039062 C 75.257812 193.984375 73.332031 197.621094 71.335938 197.757812 C 69.34375 197.890625 67.132812 194.015625 66.789062 193.308594 C 66.316406 192.347656 67.339844 191.289062 68.148438 190.890625 C 69.394531 190.277344 72.921875 190.175781 74.101562 190.746094 " fill-opacity="1" fill-rule="nonzero"/><path fill="#656263" d="M 68.144531 213.8125 C 67.3125 213.410156 66.449219 212.460938 66.71875 211.519531 C 66.988281 210.574219 68.914062 206.933594 70.90625 206.796875 C 72.902344 206.664062 75.109375 210.542969 75.457031 211.246094 C 75.925781 212.207031 74.90625 213.269531 74.097656 213.667969 C 72.851562 214.28125 69.324219 214.382812 68.144531 213.8125 " fill-opacity="1" fill-rule="nonzero"/><path fill="#656263" d="M 62.363281 194.234375 C 63.105469 193.6875 64.34375 193.367188 65.050781 194.046875 C 65.753906 194.726562 68.058594 198.140625 67.242188 199.96875 C 66.425781 201.800781 61.976562 201.9375 61.191406 201.914062 C 60.125 201.878906 59.671875 200.476562 59.699219 199.574219 C 59.742188 198.183594 61.304688 195.011719 62.363281 194.234375 " fill-opacity="1" fill-rule="nonzero"/><path fill="#656263" d="M 79.882812 210.324219 C 79.140625 210.871094 77.898438 211.191406 77.195312 210.511719 C 76.492188 209.832031 74.1875 206.417969 75.003906 204.585938 C 75.820312 202.757812 80.269531 202.617188 81.054688 202.644531 C 82.121094 202.679688 82.574219 204.082031 82.546875 204.984375 C 82.503906 206.375 80.9375 209.546875 79.882812 210.324219 " fill-opacity="1" fill-rule="nonzero"/><path fill="#656263" d="M 59.671875 205.453125 C 59.605469 204.53125 59.992188 203.304688 60.941406 203.070312 C 61.894531 202.832031 65.996094 202.6875 67.109375 204.351562 C 68.222656 206.015625 65.976562 209.871094 65.542969 210.523438 C 64.945312 211.414062 63.519531 211.054688 62.769531 210.550781 C 61.621094 209.777344 59.769531 206.761719 59.671875 205.453125 " fill-opacity="1" fill-rule="nonzero"/><path fill="#656263" d="M 82.570312 199.101562 C 82.640625 200.023438 82.25 201.25 81.300781 201.488281 C 80.351562 201.726562 76.246094 201.871094 75.132812 200.207031 C 74.019531 198.542969 76.265625 194.683594 76.703125 194.03125 C 77.296875 193.144531 78.726562 193.5 79.472656 194.003906 C 80.625 194.777344 82.476562 197.792969 82.570312 199.101562 " fill-opacity="1" fill-rule="nonzero"/><path fill="#3150a2" d="M 35.644531 187.425781 C 35.644531 188.105469 36.191406 188.65625 36.871094 188.65625 L 42.546875 188.65625 C 43.222656 188.65625 43.773438 188.105469 43.773438 187.425781 C 43.773438 186.746094 43.222656 186.195312 42.546875 186.195312 L 36.871094 186.195312 C 36.191406 186.195312 35.644531 186.746094 35.644531 187.425781 " fill-opacity="1" fill-rule="nonzero"/><path fill="#3150a2" d="M 129.121094 115.675781 C 126.480469 115.675781 113.171875 122.222656 110.011719 124.109375 C 100.40625 129.839844 86.351562 140.601562 80.96875 144.804688 C 78.066406 147.070312 87.644531 156.269531 93.472656 156.269531 C 99.296875 156.269531 138.851562 156.269531 148.792969 156.269531 C 152.304688 156.269531 157.113281 151.203125 157.113281 148.769531 C 157.113281 146.335938 157.113281 115.675781 157.113281 115.675781 C 157.113281 115.675781 131.753906 115.675781 129.121094 115.675781 " fill-opacity="1" fill-rule="nonzero"/><path fill="#5acaf3" d="M 129.648438 117.089844 C 127.191406 117.089844 114.785156 123.15625 111.839844 124.90625 C 102.882812 130.222656 88.035156 141.121094 83.015625 145.019531 C 80.308594 147.121094 89.039062 154.730469 94.472656 154.730469 C 99.902344 154.730469 138.71875 154.730469 147.984375 154.730469 C 151.257812 154.730469 155.742188 150.03125 155.742188 147.777344 C 155.742188 145.519531 155.742188 117.089844 155.742188 117.089844 C 155.742188 117.089844 132.105469 117.089844 129.648438 117.089844 " fill-opacity="1" fill-rule="nonzero"/><path fill="#42c2f2" d="M 118.171875 153.261719 C 126.605469 149.109375 133.386719 142.621094 137.355469 134.023438 C 139.398438 129.601562 140.75 124.988281 142.230469 120.359375 C 142.574219 119.273438 142.914062 118.183594 143.210938 117.089844 C 149.574219 117.089844 155.742188 117.089844 155.742188 117.089844 C 155.742188 117.089844 155.742188 145.519531 155.742188 147.777344 C 155.742188 150.03125 151.257812 154.730469 147.984375 154.730469 L 114.824219 154.730469 C 115.957031 154.289062 117.074219 153.800781 118.171875 153.261719 " fill-opacity="1" fill-rule="nonzero"/><path fill="#3150a2" d="M 182.84375 115.675781 C 191.410156 115.675781 205.808594 132.792969 210.613281 143.78125 C 212.042969 147.046875 206.511719 156.269531 201.648438 156.269531 C 196.785156 156.269531 176.921875 156.269531 168.625 156.269531 C 165.695312 156.269531 161.683594 151.203125 161.683594 148.769531 C 161.683594 146.335938 161.683594 115.675781 161.683594 115.675781 C 161.683594 115.675781 180.644531 115.675781 182.84375 115.675781 " fill-opacity="1" fill-rule="nonzero"/><path fill="#5acaf3" d="M 184.601562 117.089844 C 186.652344 117.089844 202.347656 129.6875 208.914062 143.78125 C 210.308594 146.777344 204.941406 154.730469 200.410156 154.730469 C 195.878906 154.730469 177.03125 154.730469 169.300781 154.730469 C 166.566406 154.730469 162.828125 150.035156 162.828125 147.777344 C 162.828125 145.519531 162.828125 117.089844 162.828125 117.089844 C 162.828125 117.089844 182.550781 117.089844 184.601562 117.089844 " fill-opacity="1" fill-rule="nonzero"/><path fill="#42c2f2" d="M 178.671875 149.792969 C 183.867188 147.914062 187.667969 144.019531 189.925781 138.070312 C 191.949219 132.730469 191.8125 126.621094 190.316406 120.847656 C 196.0625 125.617188 204.527344 134.359375 208.914062 143.78125 C 210.308594 146.777344 204.941406 154.730469 200.410156 154.730469 L 169.300781 154.730469 C 167.324219 154.730469 164.835938 152.285156 163.597656 150.074219 C 168.578125 151.40625 173.605469 151.621094 178.671875 149.792969 " fill-opacity="1" fill-rule="nonzero"/><path fill="#5acaf3" d="M 199.453125 118.707031 C 205.492188 126.203125 216.792969 140.5 218.640625 144.710938 C 219.550781 146.777344 222.382812 151.667969 225.113281 151.667969 L 231.058594 151.667969 C 229.257812 148.492188 227.179688 145.042969 225.675781 142.632812 C 219.824219 133.289062 211.078125 124.109375 205.984375 119.507812 C 204.304688 117.992188 202.539062 116.808594 200.683594 115.890625 C 199.371094 116.640625 198.5625 117.601562 199.453125 118.707031 " fill-opacity="1" fill-rule="nonzero"/><g fill="#020202" fill-opacity="1"><g transform="translate(96.297569, 325.898624)"><g><path d="M 10.984375 -16.71875 C 9.390625 -16.71875 8.15625 -16.117188 7.28125 -14.921875 C 6.414062 -13.722656 5.984375 -12.054688 5.984375 -9.921875 C 5.984375 -5.472656 7.648438 -3.25 10.984375 -3.25 C 12.390625 -3.25 14.085938 -3.597656 16.078125 -4.296875 L 16.078125 -0.75 C 14.441406 -0.0703125 12.613281 0.265625 10.59375 0.265625 C 7.6875 0.265625 5.460938 -0.613281 3.921875 -2.375 C 2.390625 -4.132812 1.625 -6.660156 1.625 -9.953125 C 1.625 -12.023438 2 -13.84375 2.75 -15.40625 C 3.507812 -16.96875 4.597656 -18.160156 6.015625 -18.984375 C 7.429688 -19.816406 9.085938 -20.234375 10.984375 -20.234375 C 12.921875 -20.234375 14.867188 -19.765625 16.828125 -18.828125 L 15.46875 -15.390625 C 14.71875 -15.742188 13.960938 -16.050781 13.203125 -16.3125 C 12.453125 -16.582031 11.710938 -16.71875 10.984375 -16.71875 Z M 10.984375 -16.71875 "/></g></g></g><g fill="#020202" fill-opacity="1"><g transform="translate(114.110491, 325.898624)"><g><path d="M 11.875 0 L 11.0625 -2.078125 L 10.953125 -2.078125 C 10.253906 -1.191406 9.535156 -0.578125 8.796875 -0.234375 C 8.054688 0.0976562 7.085938 0.265625 5.890625 0.265625 C 4.429688 0.265625 3.28125 -0.148438 2.4375 -0.984375 C 1.59375 -1.816406 1.171875 -3.007812 1.171875 -4.5625 C 1.171875 -6.175781 1.738281 -7.367188 2.875 -8.140625 C 4.007812 -8.910156 5.71875 -9.335938 8 -9.421875 L 10.640625 -9.5 L 10.640625 -10.171875 C 10.640625 -11.710938 9.847656 -12.484375 8.265625 -12.484375 C 7.046875 -12.484375 5.613281 -12.117188 3.96875 -11.390625 L 2.59375 -14.1875 C 4.351562 -15.113281 6.300781 -15.578125 8.4375 -15.578125 C 10.476562 -15.578125 12.046875 -15.128906 13.140625 -14.234375 C 14.234375 -13.335938 14.78125 -11.984375 14.78125 -10.171875 L 14.78125 0 Z M 10.640625 -7.0625 L 9.03125 -7.015625 C 7.820312 -6.984375 6.921875 -6.765625 6.328125 -6.359375 C 5.742188 -5.960938 5.453125 -5.351562 5.453125 -4.53125 C 5.453125 -3.351562 6.125 -2.765625 7.46875 -2.765625 C 8.425781 -2.765625 9.191406 -3.039062 9.765625 -3.59375 C 10.347656 -4.15625 10.640625 -4.894531 10.640625 -5.8125 Z M 10.640625 -7.0625 "/></g></g></g><g fill="#020202" fill-opacity="1"><g transform="translate(130.995232, 325.898624)"><g><path d="M 10.703125 -15.546875 C 11.265625 -15.546875 11.734375 -15.503906 12.109375 -15.421875 L 11.796875 -11.515625 C 11.453125 -11.609375 11.039062 -11.65625 10.5625 -11.65625 C 9.238281 -11.65625 8.203125 -11.3125 7.453125 -10.625 C 6.710938 -9.945312 6.34375 -8.992188 6.34375 -7.765625 L 6.34375 0 L 2.1875 0 L 2.1875 -15.265625 L 5.34375 -15.265625 L 5.953125 -12.6875 L 6.15625 -12.6875 C 6.625 -13.550781 7.257812 -14.242188 8.0625 -14.765625 C 8.875 -15.285156 9.753906 -15.546875 10.703125 -15.546875 Z M 10.703125 -15.546875 "/></g></g></g><g fill="#020202" fill-opacity="1"><g transform="translate(143.689495, 325.898624)"><g><path d="M 10.703125 -15.546875 C 11.265625 -15.546875 11.734375 -15.503906 12.109375 -15.421875 L 11.796875 -11.515625 C 11.453125 -11.609375 11.039062 -11.65625 10.5625 -11.65625 C 9.238281 -11.65625 8.203125 -11.3125 7.453125 -10.625 C 6.710938 -9.945312 6.34375 -8.992188 6.34375 -7.765625 L 6.34375 0 L 2.1875 0 L 2.1875 -15.265625 L 5.34375 -15.265625 L 5.953125 -12.6875 L 6.15625 -12.6875 C 6.625 -13.550781 7.257812 -14.242188 8.0625 -14.765625 C 8.875 -15.285156 9.753906 -15.546875 10.703125 -15.546875 Z M 10.703125 -15.546875 "/></g></g></g><g fill="#020202" fill-opacity="1"><g transform="translate(156.383758, 325.898624)"><g><path d="M 5.5 -7.65625 C 5.5 -6.144531 5.742188 -5.003906 6.234375 -4.234375 C 6.734375 -3.460938 7.546875 -3.078125 8.671875 -3.078125 C 9.773438 -3.078125 10.570312 -3.457031 11.0625 -4.21875 C 11.550781 -4.988281 11.796875 -6.132812 11.796875 -7.65625 C 11.796875 -9.164062 11.546875 -10.296875 11.046875 -11.046875 C 10.554688 -11.804688 9.753906 -12.1875 8.640625 -12.1875 C 7.523438 -12.1875 6.722656 -11.8125 6.234375 -11.0625 C 5.742188 -10.3125 5.5 -9.175781 5.5 -7.65625 Z M 16.046875 -7.65625 C 16.046875 -5.175781 15.390625 -3.234375 14.078125 -1.828125 C 12.773438 -0.429688 10.953125 0.265625 8.609375 0.265625 C 7.148438 0.265625 5.859375 -0.0507812 4.734375 -0.6875 C 3.617188 -1.332031 2.757812 -2.253906 2.15625 -3.453125 C 1.550781 -4.648438 1.25 -6.050781 1.25 -7.65625 C 1.25 -10.144531 1.898438 -12.082031 3.203125 -13.46875 C 4.503906 -14.851562 6.332031 -15.546875 8.6875 -15.546875 C 10.15625 -15.546875 11.445312 -15.226562 12.5625 -14.59375 C 13.6875 -13.957031 14.546875 -13.039062 15.140625 -11.84375 C 15.742188 -10.65625 16.046875 -9.257812 16.046875 -7.65625 Z M 16.046875 -7.65625 "/></g></g></g><g fill="#020202" fill-opacity="1"><g transform="translate(111.29878, 31.769057)"><g><path d="M 10.984375 -16.71875 C 9.390625 -16.71875 8.15625 -16.117188 7.28125 -14.921875 C 6.414062 -13.722656 5.984375 -12.054688 5.984375 -9.921875 C 5.984375 -5.472656 7.648438 -3.25 10.984375 -3.25 C 12.390625 -3.25 14.085938 -3.597656 16.078125 -4.296875 L 16.078125 -0.75 C 14.441406 -0.0703125 12.613281 0.265625 10.59375 0.265625 C 7.6875 0.265625 5.460938 -0.613281 3.921875 -2.375 C 2.390625 -4.132812 1.625 -6.660156 1.625 -9.953125 C 1.625 -12.023438 2 -13.84375 2.75 -15.40625 C 3.507812 -16.96875 4.597656 -18.160156 6.015625 -18.984375 C 7.429688 -19.816406 9.085938 -20.234375 10.984375 -20.234375 C 12.921875 -20.234375 14.867188 -19.765625 16.828125 -18.828125 L 15.46875 -15.390625 C 14.71875 -15.742188 13.960938 -16.050781 13.203125 -16.3125 C 12.453125 -16.582031 11.710938 -16.71875 10.984375 -16.71875 Z M 10.984375 -16.71875 "/></g></g></g><g fill="#020202" fill-opacity="1"><g transform="translate(129.111703, 31.769057)"><g><path d="M 11.875 0 L 11.0625 -2.078125 L 10.953125 -2.078125 C 10.253906 -1.191406 9.535156 -0.578125 8.796875 -0.234375 C 8.054688 0.0976562 7.085938 0.265625 5.890625 0.265625 C 4.429688 0.265625 3.28125 -0.148438 2.4375 -0.984375 C 1.59375 -1.816406 1.171875 -3.007812 1.171875 -4.5625 C 1.171875 -6.175781 1.738281 -7.367188 2.875 -8.140625 C 4.007812 -8.910156 5.71875 -9.335938 8 -9.421875 L 10.640625 -9.5 L 10.640625 -10.171875 C 10.640625 -11.710938 9.847656 -12.484375 8.265625 -12.484375 C 7.046875 -12.484375 5.613281 -12.117188 3.96875 -11.390625 L 2.59375 -14.1875 C 4.351562 -15.113281 6.300781 -15.578125 8.4375 -15.578125 C 10.476562 -15.578125 12.046875 -15.128906 13.140625 -14.234375 C 14.234375 -13.335938 14.78125 -11.984375 14.78125 -10.171875 L 14.78125 0 Z M 10.640625 -7.0625 L 9.03125 -7.015625 C 7.820312 -6.984375 6.921875 -6.765625 6.328125 -6.359375 C 5.742188 -5.960938 5.453125 -5.351562 5.453125 -4.53125 C 5.453125 -3.351562 6.125 -2.765625 7.46875 -2.765625 C 8.425781 -2.765625 9.191406 -3.039062 9.765625 -3.59375 C 10.347656 -4.15625 10.640625 -4.894531 10.640625 -5.8125 Z M 10.640625 -7.0625 "/></g></g></g><g fill="#020202" fill-opacity="1"><g transform="translate(145.996443, 31.769057)"><g><path d="M 10.703125 -15.546875 C 11.265625 -15.546875 11.734375 -15.503906 12.109375 -15.421875 L 11.796875 -11.515625 C 11.453125 -11.609375 11.039062 -11.65625 10.5625 -11.65625 C 9.238281 -11.65625 8.203125 -11.3125 7.453125 -10.625 C 6.710938 -9.945312 6.34375 -8.992188 6.34375 -7.765625 L 6.34375 0 L 2.1875 0 L 2.1875 -15.265625 L 5.34375 -15.265625 L 5.953125 -12.6875 L 6.15625 -12.6875 C 6.625 -13.550781 7.257812 -14.242188 8.0625 -14.765625 C 8.875 -15.285156 9.753906 -15.546875 10.703125 -15.546875 Z M 10.703125 -15.546875 "/></g></g></g></svg>