<svg xmlns="http://www.w3.org/2000/svg" xmlns:xlink="http://www.w3.org/1999/xlink" width="360" zoomAndPan="magnify" viewBox="0 0 270 337.499995" height="450" preserveAspectRatio="xMidYMid meet" version="1.0"><defs><g/><clipPath id="0a3a2f7b9b"><path d="M 0.199219 0 L 269.800781 0 L 269.800781 337 L 0.199219 337 Z M 0.199219 0 " clip-rule="nonzero"/></clipPath><clipPath id="8faada2b42"><path d="M 43 91 L 227 91 L 227 259.855469 L 43 259.855469 Z M 43 91 " clip-rule="nonzero"/></clipPath><clipPath id="eabe1d2175"><path d="M 23.753906 77.125 L 246.171875 77.125 L 246.171875 166 L 23.753906 166 Z M 23.753906 77.125 " clip-rule="nonzero"/></clipPath><clipPath id="fc32e56f0e"><path d="M 73 159 L 130 159 L 130 259.855469 L 73 259.855469 Z M 73 159 " clip-rule="nonzero"/></clipPath><clipPath id="c13d0787b5"><path d="M 76 163 L 126 163 L 126 259.855469 L 76 259.855469 Z M 76 163 " clip-rule="nonzero"/></clipPath><clipPath id="b1afea8660"><path d="M 79 165 L 124 165 L 124 259.855469 L 79 259.855469 Z M 79 165 " clip-rule="nonzero"/></clipPath></defs><g clip-path="url(#0a3a2f7b9b)"><path fill="#ffffff" d="M 0.199219 0 L 269.800781 0 L 269.800781 337 L 0.199219 337 Z M 0.199219 0 " fill-opacity="1" fill-rule="nonzero"/><path fill="#8c52ff" d="M 0.199219 0 L 269.800781 0 L 269.800781 337 L 0.199219 337 Z M 0.199219 0 " fill-opacity="1" fill-rule="nonzero"/></g><g clip-path="url(#8faada2b42)"><path fill="#eef0d4" d="M 226.394531 259.863281 L 43.597656 259.863281 L 43.597656 157.082031 L 134.996094 91.207031 L 226.394531 157.082031 L 226.394531 259.863281 " fill-opacity="1" fill-rule="nonzero"/></g><g clip-path="url(#eabe1d2175)"><path fill="#f14624" d="M 134.996094 77.121094 L 23.828125 157.242188 L 31.988281 165.449219 L 134.996094 91.207031 L 238 165.449219 L 246.160156 157.242188 L 134.996094 77.121094 " fill-opacity="1" fill-rule="nonzero"/></g><g clip-path="url(#fc32e56f0e)"><path fill="#c1d0b8" d="M 129.285156 159.507812 L 73.039062 159.507812 L 73.039062 259.863281 L 129.285156 259.863281 L 129.285156 159.507812 " fill-opacity="1" fill-rule="nonzero"/></g><g clip-path="url(#c13d0787b5)"><path fill="#5a3114" d="M 125.769531 163.46875 L 76.554688 163.46875 L 76.554688 259.863281 L 125.769531 259.863281 L 125.769531 163.46875 " fill-opacity="1" fill-rule="nonzero"/></g><g clip-path="url(#b1afea8660)"><path fill="#502b11" d="M 123.132812 165.449219 L 79.191406 165.449219 L 79.191406 259.863281 L 123.132812 259.863281 L 123.132812 165.449219 " fill-opacity="1" fill-rule="nonzero"/><path fill="#723f1b" d="M 123.132812 165.449219 L 79.191406 165.449219 L 79.191406 259.863281 Z M 123.132812 165.449219 " fill-opacity="1" fill-rule="nonzero"/></g><path fill="#5a3114" d="M 214.523438 169.1875 L 153.007812 169.1875 L 153.007812 237.847656 L 214.523438 237.847656 L 214.523438 169.1875 " fill-opacity="1" fill-rule="nonzero"/><path fill="#723f1b" d="M 214.523438 169.1875 L 153.007812 169.1875 L 153.007812 237.847656 Z M 214.523438 169.1875 " fill-opacity="1" fill-rule="nonzero"/><path fill="#67bbc4" d="M 208.839844 175.535156 L 158.695312 175.535156 L 158.695312 231.503906 L 208.839844 231.503906 L 208.839844 175.535156 " fill-opacity="1" fill-rule="nonzero"/><path fill="#96d5d3" d="M 207.054688 177.53125 L 160.476562 177.53125 L 160.476562 229.515625 L 207.054688 229.515625 L 207.054688 177.53125 " fill-opacity="1" fill-rule="nonzero"/><path fill="#5a3114" d="M 185.808594 175.535156 L 180.914062 175.535156 L 180.914062 237.847656 L 185.808594 237.847656 L 185.808594 175.535156 " fill-opacity="1" fill-rule="nonzero"/><path fill="#5a3114" d="M 208.839844 208.203125 L 208.839844 203.417969 L 158.472656 203.417969 L 158.472656 208.203125 L 208.839844 208.203125 " fill-opacity="1" fill-rule="nonzero"/><path fill="#ffffff" d="M 161.355469 179.316406 C 161.355469 179.316406 161.636719 179.476562 162.101562 179.785156 C 162.566406 180.09375 163.21875 180.546875 163.96875 181.117188 C 164.730469 181.683594 165.582031 182.378906 166.480469 183.140625 C 167.375 183.90625 168.304688 184.75 169.214844 185.613281 C 170.121094 186.480469 171.003906 187.371094 171.808594 188.230469 C 172.609375 189.09375 173.34375 189.914062 173.941406 190.652344 C 174.550781 191.375 175.027344 192.007812 175.355469 192.460938 C 175.6875 192.910156 175.859375 193.183594 175.859375 193.183594 C 175.859375 193.183594 175.582031 193.019531 175.117188 192.714844 C 174.652344 192.40625 173.996094 191.957031 173.246094 191.382812 C 172.484375 190.816406 171.632812 190.121094 170.730469 189.359375 C 169.835938 188.59375 168.910156 187.75 168 186.886719 C 167.097656 186.019531 166.214844 185.125 165.410156 184.269531 C 164.609375 183.402344 163.875 182.582031 163.277344 181.847656 C 162.667969 181.121094 162.1875 180.488281 161.859375 180.039062 C 161.53125 179.589844 161.355469 179.316406 161.355469 179.316406 " fill-opacity="1" fill-rule="nonzero"/><path fill="#ffffff" d="M 162.59375 186.25 C 162.59375 186.25 162.816406 186.375 163.183594 186.621094 C 163.546875 186.863281 164.066406 187.21875 164.65625 187.671875 C 165.253906 188.121094 165.929688 188.667969 166.640625 189.269531 C 167.347656 189.871094 168.078125 190.539062 168.796875 191.21875 C 170.230469 192.582031 171.574219 194.042969 172.527344 195.195312 C 173.484375 196.34375 174.039062 197.195312 174.039062 197.195312 C 174.039062 197.195312 173.164062 196.679688 171.976562 195.773438 C 170.78125 194.875 169.265625 193.597656 167.839844 192.226562 C 167.125 191.539062 166.429688 190.835938 165.792969 190.15625 C 165.164062 189.476562 164.582031 188.824219 164.109375 188.246094 C 163.628906 187.675781 163.25 187.175781 162.992188 186.820312 C 162.734375 186.464844 162.59375 186.25 162.59375 186.25 " fill-opacity="1" fill-rule="nonzero"/><path fill="#ffffff" d="M 190.085938 179.316406 C 190.085938 179.316406 190.367188 179.476562 190.832031 179.785156 C 191.296875 180.09375 191.949219 180.546875 192.699219 181.117188 C 193.460938 181.683594 194.3125 182.378906 195.210938 183.140625 C 196.105469 183.90625 197.035156 184.75 197.945312 185.613281 C 198.847656 186.484375 199.734375 187.371094 200.539062 188.230469 C 201.335938 189.09375 202.070312 189.914062 202.671875 190.652344 C 203.277344 191.375 203.753906 192.007812 204.085938 192.460938 C 204.414062 192.910156 204.585938 193.183594 204.585938 193.183594 C 204.585938 193.183594 204.308594 193.019531 203.84375 192.714844 C 203.378906 192.40625 202.726562 191.957031 201.972656 191.382812 C 201.214844 190.816406 200.363281 190.121094 199.460938 189.359375 C 198.566406 188.59375 197.640625 187.75 196.730469 186.886719 C 195.828125 186.015625 194.941406 185.125 194.140625 184.269531 C 193.339844 183.402344 192.605469 182.582031 192.007812 181.847656 C 191.398438 181.121094 190.917969 180.488281 190.59375 180.039062 C 190.261719 179.589844 190.085938 179.316406 190.085938 179.316406 " fill-opacity="1" fill-rule="nonzero"/><path fill="#ffffff" d="M 191.324219 186.25 C 191.324219 186.25 191.542969 186.375 191.910156 186.621094 C 192.277344 186.863281 192.796875 187.21875 193.386719 187.671875 C 193.984375 188.121094 194.660156 188.667969 195.367188 189.269531 C 196.074219 189.871094 196.808594 190.539062 197.527344 191.21875 C 198.957031 192.582031 200.300781 194.042969 201.253906 195.195312 C 202.210938 196.34375 202.765625 197.195312 202.765625 197.195312 C 202.765625 197.195312 201.890625 196.679688 200.703125 195.773438 C 199.511719 194.875 197.992188 193.597656 196.570312 192.226562 C 195.851562 191.539062 195.15625 190.835938 194.519531 190.15625 C 193.890625 189.476562 193.3125 188.824219 192.839844 188.246094 C 192.359375 187.675781 191.980469 187.175781 191.722656 186.820312 C 191.460938 186.464844 191.324219 186.25 191.324219 186.25 " fill-opacity="1" fill-rule="nonzero"/><path fill="#ffffff" d="M 161.066406 208.203125 C 161.066406 208.203125 161.347656 208.363281 161.8125 208.671875 C 162.273438 208.980469 162.929688 209.429688 163.679688 210.007812 C 164.4375 210.574219 165.292969 211.269531 166.191406 212.027344 C 167.085938 212.792969 168.015625 213.636719 168.921875 214.503906 C 169.832031 215.367188 170.710938 216.257812 171.519531 217.121094 C 172.316406 217.984375 173.050781 218.808594 173.652344 219.539062 C 174.257812 220.265625 174.734375 220.902344 175.066406 221.351562 C 175.394531 221.800781 175.566406 222.074219 175.566406 222.074219 C 175.566406 222.074219 175.285156 221.914062 174.820312 221.601562 C 174.359375 221.296875 173.703125 220.847656 172.953125 220.273438 C 172.195312 219.707031 171.339844 219.011719 170.441406 218.25 C 169.546875 217.484375 168.621094 216.640625 167.710938 215.773438 C 166.804688 214.90625 165.925781 214.015625 165.117188 213.15625 C 164.320312 212.289062 163.585938 211.46875 162.988281 210.734375 C 162.378906 210.011719 161.898438 209.375 161.570312 208.925781 C 161.242188 208.476562 161.066406 208.203125 161.066406 208.203125 " fill-opacity="1" fill-rule="nonzero"/><path fill="#ffffff" d="M 162.308594 215.140625 C 162.308594 215.140625 162.527344 215.269531 162.890625 215.507812 C 163.257812 215.753906 163.777344 216.109375 164.367188 216.5625 C 164.96875 217.007812 165.640625 217.558594 166.347656 218.15625 C 167.054688 218.761719 167.789062 219.425781 168.507812 220.109375 C 169.9375 221.472656 171.28125 222.929688 172.234375 224.082031 C 173.1875 225.230469 173.746094 226.082031 173.746094 226.082031 C 173.746094 226.082031 172.871094 225.5625 171.683594 224.660156 C 170.492188 223.761719 168.972656 222.484375 167.546875 221.113281 C 166.832031 220.425781 166.136719 219.722656 165.503906 219.046875 C 164.871094 218.363281 164.292969 217.714844 163.820312 217.136719 C 163.339844 216.5625 162.960938 216.066406 162.703125 215.710938 C 162.445312 215.355469 162.308594 215.140625 162.308594 215.140625 " fill-opacity="1" fill-rule="nonzero"/><path fill="#ffffff" d="M 190.085938 209.683594 C 190.085938 209.683594 190.367188 209.84375 190.832031 210.152344 C 191.296875 210.460938 191.949219 210.910156 192.699219 211.488281 C 193.460938 212.054688 194.3125 212.75 195.210938 213.507812 C 196.105469 214.273438 197.035156 215.117188 197.945312 215.984375 C 198.847656 216.847656 199.734375 217.738281 200.539062 218.601562 C 201.335938 219.464844 202.070312 220.285156 202.671875 221.023438 C 203.277344 221.746094 203.753906 222.378906 204.085938 222.832031 C 204.414062 223.28125 204.585938 223.554688 204.585938 223.554688 C 204.585938 223.554688 204.308594 223.390625 203.84375 223.082031 C 203.378906 222.777344 202.726562 222.328125 201.972656 221.75 C 201.214844 221.183594 200.363281 220.492188 199.460938 219.730469 C 198.566406 218.960938 197.640625 218.121094 196.730469 217.253906 C 195.828125 216.386719 194.941406 215.496094 194.140625 214.636719 C 193.339844 213.769531 192.605469 212.949219 192.007812 212.214844 C 191.398438 211.488281 190.917969 210.855469 190.59375 210.40625 C 190.261719 209.953125 190.085938 209.683594 190.085938 209.683594 " fill-opacity="1" fill-rule="nonzero"/><path fill="#ffffff" d="M 191.324219 216.617188 C 191.324219 216.617188 191.542969 216.742188 191.910156 216.988281 C 192.277344 217.230469 192.796875 217.585938 193.386719 218.039062 C 193.984375 218.488281 194.660156 219.035156 195.367188 219.632812 C 196.074219 220.238281 196.808594 220.902344 197.527344 221.585938 C 198.957031 222.949219 200.300781 224.410156 201.253906 225.5625 C 202.210938 226.710938 202.765625 227.558594 202.765625 227.558594 C 202.765625 227.558594 201.890625 227.042969 200.703125 226.136719 C 199.511719 225.238281 197.992188 223.964844 196.570312 222.59375 C 195.851562 221.90625 195.15625 221.203125 194.519531 220.523438 C 193.890625 219.839844 193.3125 219.191406 192.839844 218.613281 C 192.359375 218.042969 191.980469 217.539062 191.722656 217.1875 C 191.460938 216.832031 191.324219 216.617188 191.324219 216.617188 " fill-opacity="1" fill-rule="nonzero"/><path fill="#d7d9c0" d="M 136.753906 140.574219 L 118.738281 140.574219 L 118.738281 133.09375 L 136.753906 133.09375 L 136.753906 140.574219 " fill-opacity="1" fill-rule="nonzero"/><path fill="#d7d9c0" d="M 151.25 145.199219 L 133.675781 145.199219 L 133.675781 136.835938 L 151.25 136.835938 L 151.25 145.199219 " fill-opacity="1" fill-rule="nonzero"/><path fill="#46250f" d="M 118.4375 175.535156 L 118.4375 174.652344 L 83.007812 174.652344 L 83.007812 209.085938 L 119.316406 209.085938 L 119.316406 174.652344 L 118.4375 174.652344 L 118.4375 175.535156 L 117.558594 175.535156 L 117.558594 207.320312 L 84.765625 207.320312 L 84.765625 176.414062 L 118.4375 176.414062 L 118.4375 175.535156 L 117.558594 175.535156 L 118.4375 175.535156 " fill-opacity="1" fill-rule="nonzero"/><path fill="#46250f" d="M 118.4375 217.796875 L 118.4375 216.914062 L 83.007812 216.914062 L 83.007812 251.347656 L 119.316406 251.347656 L 119.316406 216.914062 L 118.4375 216.914062 L 118.4375 217.796875 L 117.558594 217.796875 L 117.558594 249.589844 L 84.765625 249.589844 L 84.765625 218.675781 L 118.4375 218.675781 L 118.4375 217.796875 L 117.558594 217.796875 L 118.4375 217.796875 " fill-opacity="1" fill-rule="nonzero"/><path fill="#f68712" d="M 122.613281 210.097656 C 122.613281 211.980469 121.085938 213.507812 119.207031 213.507812 C 117.332031 213.507812 115.808594 211.980469 115.808594 210.097656 C 115.808594 208.214844 117.332031 206.691406 119.207031 206.691406 C 121.085938 206.691406 122.613281 208.214844 122.613281 210.097656 " fill-opacity="1" fill-rule="nonzero"/><path fill="#f9a70d" d="M 120.789062 217.761719 C 120.789062 218.410156 120.261719 218.9375 119.613281 218.9375 C 118.964844 218.9375 118.4375 218.410156 118.4375 217.761719 L 118.4375 210.136719 C 118.4375 209.488281 118.964844 208.957031 119.613281 208.957031 C 120.261719 208.957031 120.789062 209.488281 120.789062 210.136719 L 120.789062 217.761719 " fill-opacity="1" fill-rule="nonzero"/><path fill="#f14624" d="M 180.710938 114.445312 L 201.9375 133.09375 L 201.9375 95.792969 L 181.117188 95.792969 L 180.710938 114.445312 " fill-opacity="1" fill-rule="nonzero"/><g fill="#020202" fill-opacity="1"><g transform="translate(102.259439, 325.898624)"><g><path d="M 10.984375 -16.71875 C 9.390625 -16.71875 8.15625 -16.117188 7.28125 -14.921875 C 6.414062 -13.722656 5.984375 -12.054688 5.984375 -9.921875 C 5.984375 -5.472656 7.648438 -3.25 10.984375 -3.25 C 12.390625 -3.25 14.085938 -3.597656 16.078125 -4.296875 L 16.078125 -0.75 C 14.441406 -0.0703125 12.613281 0.265625 10.59375 0.265625 C 7.6875 0.265625 5.460938 -0.613281 3.921875 -2.375 C 2.390625 -4.132812 1.625 -6.660156 1.625 -9.953125 C 1.625 -12.023438 2 -13.84375 2.75 -15.40625 C 3.507812 -16.96875 4.597656 -18.160156 6.015625 -18.984375 C 7.429688 -19.816406 9.085938 -20.234375 10.984375 -20.234375 C 12.921875 -20.234375 14.867188 -19.765625 16.828125 -18.828125 L 15.46875 -15.390625 C 14.71875 -15.742188 13.960938 -16.050781 13.203125 -16.3125 C 12.453125 -16.582031 11.710938 -16.71875 10.984375 -16.71875 Z M 10.984375 -16.71875 "/></g></g></g><g fill="#020202" fill-opacity="1"><g transform="translate(120.072362, 325.898624)"><g><path d="M 11.875 0 L 11.0625 -2.078125 L 10.953125 -2.078125 C 10.253906 -1.191406 9.535156 -0.578125 8.796875 -0.234375 C 8.054688 0.0976562 7.085938 0.265625 5.890625 0.265625 C 4.429688 0.265625 3.28125 -0.148438 2.4375 -0.984375 C 1.59375 -1.816406 1.171875 -3.007812 1.171875 -4.5625 C 1.171875 -6.175781 1.738281 -7.367188 2.875 -8.140625 C 4.007812 -8.910156 5.71875 -9.335938 8 -9.421875 L 10.640625 -9.5 L 10.640625 -10.171875 C 10.640625 -11.710938 9.847656 -12.484375 8.265625 -12.484375 C 7.046875 -12.484375 5.613281 -12.117188 3.96875 -11.390625 L 2.59375 -14.1875 C 4.351562 -15.113281 6.300781 -15.578125 8.4375 -15.578125 C 10.476562 -15.578125 12.046875 -15.128906 13.140625 -14.234375 C 14.234375 -13.335938 14.78125 -11.984375 14.78125 -10.171875 L 14.78125 0 Z M 10.640625 -7.0625 L 9.03125 -7.015625 C 7.820312 -6.984375 6.921875 -6.765625 6.328125 -6.359375 C 5.742188 -5.960938 5.453125 -5.351562 5.453125 -4.53125 C 5.453125 -3.351562 6.125 -2.765625 7.46875 -2.765625 C 8.425781 -2.765625 9.191406 -3.039062 9.765625 -3.59375 C 10.347656 -4.15625 10.640625 -4.894531 10.640625 -5.8125 Z M 10.640625 -7.0625 "/></g></g></g><g fill="#020202" fill-opacity="1"><g transform="translate(136.957102, 325.898624)"><g><path d="M 12.828125 -4.53125 C 12.828125 -2.96875 12.28125 -1.773438 11.1875 -0.953125 C 10.101562 -0.140625 8.476562 0.265625 6.3125 0.265625 C 5.207031 0.265625 4.265625 0.191406 3.484375 0.046875 C 2.703125 -0.0976562 1.96875 -0.316406 1.28125 -0.609375 L 1.28125 -4.046875 C 2.050781 -3.679688 2.921875 -3.375 3.890625 -3.125 C 4.859375 -2.882812 5.710938 -2.765625 6.453125 -2.765625 C 7.960938 -2.765625 8.71875 -3.203125 8.71875 -4.078125 C 8.71875 -4.410156 8.617188 -4.675781 8.421875 -4.875 C 8.222656 -5.082031 7.875 -5.316406 7.375 -5.578125 C 6.882812 -5.835938 6.234375 -6.140625 5.421875 -6.484375 C 4.242188 -6.972656 3.378906 -7.425781 2.828125 -7.84375 C 2.273438 -8.257812 1.875 -8.738281 1.625 -9.28125 C 1.375 -9.820312 1.25 -10.488281 1.25 -11.28125 C 1.25 -12.644531 1.773438 -13.695312 2.828125 -14.4375 C 3.878906 -15.175781 5.367188 -15.546875 7.296875 -15.546875 C 9.140625 -15.546875 10.929688 -15.144531 12.671875 -14.34375 L 11.40625 -11.34375 C 10.644531 -11.664062 9.929688 -11.929688 9.265625 -12.140625 C 8.597656 -12.359375 7.921875 -12.46875 7.234375 -12.46875 C 6.003906 -12.46875 5.390625 -12.132812 5.390625 -11.46875 C 5.390625 -11.09375 5.585938 -10.769531 5.984375 -10.5 C 6.378906 -10.226562 7.242188 -9.820312 8.578125 -9.28125 C 9.773438 -8.800781 10.648438 -8.347656 11.203125 -7.921875 C 11.753906 -7.503906 12.160156 -7.023438 12.421875 -6.484375 C 12.691406 -5.941406 12.828125 -5.289062 12.828125 -4.53125 Z M 12.828125 -4.53125 "/></g></g></g><g fill="#020202" fill-opacity="1"><g transform="translate(150.852543, 325.898624)"><g><path d="M 11.875 0 L 11.0625 -2.078125 L 10.953125 -2.078125 C 10.253906 -1.191406 9.535156 -0.578125 8.796875 -0.234375 C 8.054688 0.0976562 7.085938 0.265625 5.890625 0.265625 C 4.429688 0.265625 3.28125 -0.148438 2.4375 -0.984375 C 1.59375 -1.816406 1.171875 -3.007812 1.171875 -4.5625 C 1.171875 -6.175781 1.738281 -7.367188 2.875 -8.140625 C 4.007812 -8.910156 5.71875 -9.335938 8 -9.421875 L 10.640625 -9.5 L 10.640625 -10.171875 C 10.640625 -11.710938 9.847656 -12.484375 8.265625 -12.484375 C 7.046875 -12.484375 5.613281 -12.117188 3.96875 -11.390625 L 2.59375 -14.1875 C 4.351562 -15.113281 6.300781 -15.578125 8.4375 -15.578125 C 10.476562 -15.578125 12.046875 -15.128906 13.140625 -14.234375 C 14.234375 -13.335938 14.78125 -11.984375 14.78125 -10.171875 L 14.78125 0 Z M 10.640625 -7.0625 L 9.03125 -7.015625 C 7.820312 -6.984375 6.921875 -6.765625 6.328125 -6.359375 C 5.742188 -5.960938 5.453125 -5.351562 5.453125 -4.53125 C 5.453125 -3.351562 6.125 -2.765625 7.46875 -2.765625 C 8.425781 -2.765625 9.191406 -3.039062 9.765625 -3.59375 C 10.347656 -4.15625 10.640625 -4.894531 10.640625 -5.8125 Z M 10.640625 -7.0625 "/></g></g></g><g fill="#020202" fill-opacity="1"><g transform="translate(91.254257, 31.769057)"><g><path d="M 18.859375 0 L 14.640625 0 L 14.640625 -8.609375 L 6.75 -8.609375 L 6.75 0 L 2.515625 0 L 2.515625 -19.953125 L 6.75 -19.953125 L 6.75 -12.140625 L 14.640625 -12.140625 L 14.640625 -19.953125 L 18.859375 -19.953125 Z M 18.859375 0 "/></g></g></g><g fill="#020202" fill-opacity="1"><g transform="translate(112.643414, 31.769057)"><g><path d="M 5.5 -7.65625 C 5.5 -6.144531 5.742188 -5.003906 6.234375 -4.234375 C 6.734375 -3.460938 7.546875 -3.078125 8.671875 -3.078125 C 9.773438 -3.078125 10.570312 -3.457031 11.0625 -4.21875 C 11.550781 -4.988281 11.796875 -6.132812 11.796875 -7.65625 C 11.796875 -9.164062 11.546875 -10.296875 11.046875 -11.046875 C 10.554688 -11.804688 9.753906 -12.1875 8.640625 -12.1875 C 7.523438 -12.1875 6.722656 -11.8125 6.234375 -11.0625 C 5.742188 -10.3125 5.5 -9.175781 5.5 -7.65625 Z M 16.046875 -7.65625 C 16.046875 -5.175781 15.390625 -3.234375 14.078125 -1.828125 C 12.773438 -0.429688 10.953125 0.265625 8.609375 0.265625 C 7.148438 0.265625 5.859375 -0.0507812 4.734375 -0.6875 C 3.617188 -1.332031 2.757812 -2.253906 2.15625 -3.453125 C 1.550781 -4.648438 1.25 -6.050781 1.25 -7.65625 C 1.25 -10.144531 1.898438 -12.082031 3.203125 -13.46875 C 4.503906 -14.851562 6.332031 -15.546875 8.6875 -15.546875 C 10.15625 -15.546875 11.445312 -15.226562 12.5625 -14.59375 C 13.6875 -13.957031 14.546875 -13.039062 15.140625 -11.84375 C 15.742188 -10.65625 16.046875 -9.257812 16.046875 -7.65625 Z M 16.046875 -7.65625 "/></g></g></g><g fill="#020202" fill-opacity="1"><g transform="translate(129.951291, 31.769057)"><g><path d="M 13 0 L 12.4375 -1.953125 L 12.21875 -1.953125 C 11.769531 -1.242188 11.132812 -0.695312 10.3125 -0.3125 C 9.5 0.0703125 8.566406 0.265625 7.515625 0.265625 C 5.722656 0.265625 4.375 -0.210938 3.46875 -1.171875 C 2.5625 -2.128906 2.109375 -3.507812 2.109375 -5.3125 L 2.109375 -15.265625 L 6.265625 -15.265625 L 6.265625 -6.34375 C 6.265625 -5.238281 6.457031 -4.410156 6.84375 -3.859375 C 7.238281 -3.316406 7.863281 -3.046875 8.71875 -3.046875 C 9.882812 -3.046875 10.726562 -3.429688 11.25 -4.203125 C 11.769531 -4.984375 12.03125 -6.273438 12.03125 -8.078125 L 12.03125 -15.265625 L 16.1875 -15.265625 L 16.1875 0 Z M 13 0 "/></g></g></g><g fill="#020202" fill-opacity="1"><g transform="translate(148.323847, 31.769057)"><g><path d="M 12.828125 -4.53125 C 12.828125 -2.96875 12.28125 -1.773438 11.1875 -0.953125 C 10.101562 -0.140625 8.476562 0.265625 6.3125 0.265625 C 5.207031 0.265625 4.265625 0.191406 3.484375 0.046875 C 2.703125 -0.0976562 1.96875 -0.316406 1.28125 -0.609375 L 1.28125 -4.046875 C 2.050781 -3.679688 2.921875 -3.375 3.890625 -3.125 C 4.859375 -2.882812 5.710938 -2.765625 6.453125 -2.765625 C 7.960938 -2.765625 8.71875 -3.203125 8.71875 -4.078125 C 8.71875 -4.410156 8.617188 -4.675781 8.421875 -4.875 C 8.222656 -5.082031 7.875 -5.316406 7.375 -5.578125 C 6.882812 -5.835938 6.234375 -6.140625 5.421875 -6.484375 C 4.242188 -6.972656 3.378906 -7.425781 2.828125 -7.84375 C 2.273438 -8.257812 1.875 -8.738281 1.625 -9.28125 C 1.375 -9.820312 1.25 -10.488281 1.25 -11.28125 C 1.25 -12.644531 1.773438 -13.695312 2.828125 -14.4375 C 3.878906 -15.175781 5.367188 -15.546875 7.296875 -15.546875 C 9.140625 -15.546875 10.929688 -15.144531 12.671875 -14.34375 L 11.40625 -11.34375 C 10.644531 -11.664062 9.929688 -11.929688 9.265625 -12.140625 C 8.597656 -12.359375 7.921875 -12.46875 7.234375 -12.46875 C 6.003906 -12.46875 5.390625 -12.132812 5.390625 -11.46875 C 5.390625 -11.09375 5.585938 -10.769531 5.984375 -10.5 C 6.378906 -10.226562 7.242188 -9.820312 8.578125 -9.28125 C 9.773438 -8.800781 10.648438 -8.347656 11.203125 -7.921875 C 11.753906 -7.503906 12.160156 -7.023438 12.421875 -6.484375 C 12.691406 -5.941406 12.828125 -5.289062 12.828125 -4.53125 Z M 12.828125 -4.53125 "/></g></g></g><g fill="#020202" fill-opacity="1"><g transform="translate(162.219288, 31.769057)"><g><path d="M 8.5 -12.578125 C 7.613281 -12.578125 6.921875 -12.296875 6.421875 -11.734375 C 5.921875 -11.179688 5.632812 -10.390625 5.5625 -9.359375 L 11.40625 -9.359375 C 11.394531 -10.390625 11.128906 -11.179688 10.609375 -11.734375 C 10.085938 -12.296875 9.382812 -12.578125 8.5 -12.578125 Z M 9.09375 0.265625 C 6.632812 0.265625 4.710938 -0.410156 3.328125 -1.765625 C 1.941406 -3.117188 1.25 -5.035156 1.25 -7.515625 C 1.25 -10.078125 1.890625 -12.054688 3.171875 -13.453125 C 4.453125 -14.847656 6.21875 -15.546875 8.46875 -15.546875 C 10.625 -15.546875 12.300781 -14.929688 13.5 -13.703125 C 14.707031 -12.472656 15.3125 -10.773438 15.3125 -8.609375 L 15.3125 -6.59375 L 5.46875 -6.59375 C 5.519531 -5.40625 5.867188 -4.476562 6.515625 -3.8125 C 7.171875 -3.15625 8.09375 -2.828125 9.28125 -2.828125 C 10.195312 -2.828125 11.0625 -2.921875 11.875 -3.109375 C 12.695312 -3.304688 13.554688 -3.613281 14.453125 -4.03125 L 14.453125 -0.8125 C 13.722656 -0.445312 12.941406 -0.175781 12.109375 0 C 11.285156 0.175781 10.28125 0.265625 9.09375 0.265625 Z M 9.09375 0.265625 "/></g></g></g></svg>