<?xml version="1.0" encoding="utf-8"?>
<!-- Generator: Adobe Illustrator 26.1.0, SVG Export Plug-In . SVG Version: 6.00 Build 0)  -->
<svg version="1.1" id="Camada_1" xmlns="http://www.w3.org/2000/svg" xmlns:xlink="http://www.w3.org/1999/xlink" x="0px" y="0px"
	 viewBox="0 0 500 500" style="enable-background:new 0 0 500 500;" xml:space="preserve">
<style type="text/css">
	.st0{clip-path:url(#SVGID_00000142152442213012791610000007543374605928764596_);}
	.st1{clip-path:url(#SVGID_00000135665243226123391880000000642891034159144868_);}
	.st2{clip-path:url(#SVGID_00000052068918602293482850000003960682424138547081_);}
	.st3{stroke:#000000;stroke-miterlimit:10;}
	.st4{fill:#D40B5F;}
	.st5{fill:#D40B5F;stroke:#000000;stroke-miterlimit:10;}
	.st6{fill:none;}
	.st7{fill:#5E17EB;stroke:#000000;stroke-miterlimit:10;}
	.st8{fill:#5E17EB;}
	.st9{clip-path:url(#SVGID_00000138555067300586348920000017645606473391090349_);}
	.st10{clip-path:url(#SVGID_00000077294379708466287030000011942019338848303546_);}
	.st11{clip-path:url(#SVGID_00000109741608651618223670000000094424422394868617_);}
</style>
<g>
	<defs>
		<polygon id="SVGID_1_" points="172.8,269.9 218.2,269.9 217.3,306.7 172,306.7 		"/>
	</defs>
	<clipPath id="SVGID_00000009576716132384958530000010535581013530204551_">
		<use xlink:href="#SVGID_1_"  style="overflow:visible;"/>
	</clipPath>
	<g style="clip-path:url(#SVGID_00000009576716132384958530000010535581013530204551_);">
		<defs>
			
				<rect id="SVGID_00000120556207673809486640000013977906649683418543_" x="175.2" y="276.5" transform="matrix(0.7929 -0.6093 0.6093 0.7929 -135.8757 181.1981)" width="47" height="28"/>
		</defs>
		<clipPath id="SVGID_00000120560621993248610330000002332701999277354920_">
			<use xlink:href="#SVGID_00000120556207673809486640000013977906649683418543_"  style="overflow:visible;"/>
		</clipPath>
		<g style="clip-path:url(#SVGID_00000120560621993248610330000002332701999277354920_);">
			<defs>
				
					<rect id="SVGID_00000119096663306455485560000009934852199651172994_" x="175.2" y="276.5" transform="matrix(0.7929 -0.6093 0.6093 0.7929 -135.8757 181.1981)" width="47" height="28"/>
			</defs>
			<clipPath id="SVGID_00000147191402805847324100000009493074140817212049_">
				<use xlink:href="#SVGID_00000119096663306455485560000009934852199651172994_"  style="overflow:visible;"/>
			</clipPath>
			<g style="clip-path:url(#SVGID_00000147191402805847324100000009493074140817212049_);">
				<path class="st3" d="M215,295.9c-0.1,0.1-0.1,0.2-0.2,0.2c-0.2,0.2-0.4,0.3-0.7,0.5c-0.1,0-0.2,0-0.2,0c0,0.1,0,0.2-0.1,0.2
					c-0.2,0.1-0.3,0.1-0.4,0.1c-0.1,0-0.2,0-0.3-0.1c-0.1,0-0.1-0.1-0.2-0.1c-0.4,0.2-0.7,0.1-1.1,0c0,0-0.1-0.1-0.1,0l-0.4,0.1
					c0,0-0.1,0-0.1,0c-0.1,0-0.3,0-0.4-0.1c-0.1,0-0.3-0.1-0.4-0.2c-0.1,0-0.1-0.1-0.2-0.1c-0.2,0.2-0.5,0.3-0.8,0.1
					c-0.1-0.1-0.3-0.1-0.3,0c-0.1,0.1,0,0.2,0,0.3c0,0.1,0,0.1,0.1,0.2c-0.1,0-0.2,0-0.2,0c-0.1,0.1-0.1,0.2-0.2,0.3
					c0,0.1-0.1,0.2-0.1,0.3c-0.1,0-0.2,0.1-0.2,0.2c-0.1,0.2-0.3,0.4-0.3,0.7c0,0.1-0.1,0.1-0.2,0.2c-0.1,0.1-0.2,0.3-0.3,0.5
					c-0.2,0-0.6,0.4-0.7,0.6c-0.2-0.1-0.3,0-0.3,0.1c-0.1,0.4-0.4,0.6-0.7,0.9c-0.1,0.1-0.2,0.3-0.4,0.4c-0.4,0.3-0.7,0.6-1.1,0.8
					c-0.2,0.1-0.4,0.2-0.6,0.4c0,0-0.1,0-0.2-0.1c0,0.1,0,0.2-0.1,0.2c-0.2-0.1-0.3,0.2-0.4,0.3c-0.1,0-0.1,0.1-0.2,0.2
					c-0.1,0.1-0.2,0.2-0.4,0.3c-0.2,0.1-0.4,0.2-0.6,0.3c-0.2,0.1-0.3,0.1-0.5,0.2c-0.2,0.1-0.4,0.2-0.6,0.2c-0.2,0-0.3,0.1-0.5,0
					c0,0.1,0,0.2-0.1,0.2c-0.1,0-0.1-0.1-0.2-0.1c0,0,0,0,0,0c0,0.2-0.3,0.3-0.4,0.3c-0.3,0.2-0.6,0.2-0.8,0.4
					c-0.2,0.1-0.5,0.2-0.7,0.2c-0.1,0-0.2,0.1-0.3,0.1c-0.1,0-0.3,0-0.4,0c-0.1,0-0.2,0-0.3,0.1c-0.2,0.2-0.5,0.2-0.7,0.2
					c-0.3,0-0.6,0.2-0.8,0.3c-0.1,0-0.3,0-0.4,0c-0.3,0.1-0.5,0.1-0.8,0.2c-0.2,0-0.4,0.1-0.6,0.2c0,0-0.1,0-0.1,0.1
					c-0.1-0.1-0.2-0.1-0.4,0c-0.1,0.1-0.2,0-0.3,0c-0.1,0-0.2,0-0.3,0c-0.1,0-0.2,0.1-0.3,0.1c-0.2,0-0.5,0-0.7-0.1
					c-0.3-0.1-0.5-0.1-0.8-0.2c0,0-0.1,0.1-0.2,0.1c0,0-0.1-0.1-0.2-0.1c-0.1,0.1-0.2,0.2-0.3,0c-0.1-0.2-0.2-0.1-0.2,0
					c0,0-0.1,0.1-0.1,0.1c-0.2,0-0.4,0-0.6,0c-0.2,0-0.5,0-0.7-0.1c-0.1,0-0.2-0.1-0.3-0.1c-0.3,0-0.7-0.1-1-0.1
					c-0.2,0-0.4-0.1-0.6-0.1c-0.3,0-0.4-0.1-0.7-0.1c-0.1,0-0.2-0.1-0.3-0.1c-0.2,0-0.3-0.1-0.5-0.1c-0.3-0.1-0.7-0.2-1-0.2
					c-0.2-0.1-0.5-0.2-0.7-0.3c-0.2-0.1-0.4-0.2-0.6-0.3c-0.2-0.1-0.4-0.2-0.5-0.3c-0.2-0.2-0.5-0.4-0.8-0.4c-0.2,0-0.3-0.1-0.5-0.3
					c-0.3-0.3-0.6-0.4-0.9-0.5c-0.2-0.1-0.4-0.3-0.6-0.5c-0.1-0.1-0.2-0.1-0.3-0.2c-0.1-0.1-0.2-0.1-0.3-0.2
					c-0.1-0.1-0.2-0.2-0.4-0.3c-0.1,0-0.2-0.2-0.3-0.3c-0.1-0.2-0.4-0.4-0.6-0.5c-0.3-0.1-0.6-0.3-0.9-0.6c-0.3-0.4-0.7-0.7-1-1.1
					c-0.4-0.5-0.8-1-1.2-1.4c-0.2-0.3-0.5-0.6-0.7-0.9c-0.2-0.2-0.3-0.5-0.4-0.7c-0.2-0.3-0.4-0.6-0.6-0.9c-0.1-0.2-0.1-0.4-0.2-0.6
					c-0.1-0.3-0.2-0.7-0.1-1c0.1-0.2,0-0.5,0-0.7c0-0.1,0-0.2,0.1-0.3c0.2-0.1,0.3-0.4,0.5-0.7c0.3,0.1,0.7,0.2,1.1,0.3
					c0.1,0,0.3,0,0.4,0.1c0.1,0,0.2,0,0.3,0.1c0.1,0.1,0.2,0.1,0.4,0.1c0,0,0,0,0,0c0.4,0,0.7,0.1,1.1,0.2c0.1,0,0.1,0,0.2,0
					l0.7,0.1c0.1,0,0.1,0,0.2,0c0.1,0,0.3,0.1,0.5,0.2c0-0.1,0-0.1,0.1-0.2c0.2,0,0.3-0.1,0.5,0.1c0,0,0.1,0,0.1,0
					c0.3-0.1,0.5,0.1,0.8,0c0.3,0,0.5,0.1,0.7,0.1c0.4,0.1,0.7,0.2,1.1,0.2c0,0,0.1,0,0.1,0c0.1-0.1,0.2,0,0.3,0c0,0,0.2,0,0.2,0
					c0.2,0,0.3-0.1,0.4,0.1c0,0,0.1-0.1,0.1-0.1c0.2,0,0.5,0,0.7-0.1c0,0,0.1,0,0.1,0c0.3,0,0.5-0.1,0.8-0.1c0.1,0,0.2,0,0.4,0
					c0.6,0,1.2,0,1.7,0c0.2,0,0.3-0.1,0.5-0.1c0,0,0.1,0,0.1,0c0.2,0.2,0.4,0,0.5-0.1c0.3-0.1,0.7-0.2,1,0.1
					c0.2,0.1,0.4,0.2,0.5,0.5c0,0.1,0,0.1,0,0.2c0,0.3-0.1,0.6-0.1,0.9c0,0.2,0,0.4,0,0.6c0,0.2,0,0.5,0,0.7
					c0.1,0.4,0.1,0.8,0.2,1.2c0.1,0.3,0.2,0.7,0.4,1c0,0.1,0.1,0.2,0.2,0.3c0.2,0.1,0.4,0.1,0.6-0.2c0.2-0.3,0.5-0.4,0.7-0.6
					c0.2-0.2,0.5-0.4,0.8-0.5c0.3-0.2,0.6-0.4,0.9-0.6c0.2-0.1,0.4-0.2,0.5-0.5c0.1-0.1,0.2-0.2,0.3-0.3c0.2-0.2,0.2-0.5,0.4-0.6
					c0.3-0.2,0.5-0.6,0.7-0.8c0,0,0-0.2,0.1-0.2c0.1,0,0.1-0.1,0.2-0.1c0.1-0.2,0.2-0.4,0.4-0.5c0.1,0,0.1-0.2,0.1-0.3
					c0.1-0.3,0.3-0.6,0.5-0.8c0.2-0.2,0.2-0.3,0.2-0.5c0,0,0,0,0,0c0.3-0.2,0.3-0.6,0.5-0.8c0.1-0.1-0.1-0.5-0.3-0.6
					c-0.3-0.1-0.5-0.3-0.8-0.2c0,0,0,0-0.1,0c-0.5-0.2-1-0.3-1.5-0.5c0,0,0,0,0,0c-0.3-0.3-0.7-0.5-1.1-0.7c0,0-0.1-0.1-0.1-0.1
					c-0.6,0-1-0.5-1.4-0.9l-0.8-0.9c-0.1-0.1-0.2-0.4-0.1-0.6l0,0c-0.1-0.4,0.3-0.7,0.4-1c0-0.3,0.2-0.4,0.4-0.5
					c0.1-0.1,0.1-0.2,0.1-0.3c0,0,0-0.1,0.1-0.1c0.1-0.2,0.3-0.3,0.4-0.4c0.1-0.1,0.1-0.2,0.1-0.3c0.1,0,0.2-0.1,0.2-0.1
					c0.2-0.1,0.5-0.1,0.6-0.4c0,0,0,0,0.1-0.1c0.2-0.2,0.4-0.4,0.6-0.5c0.2-0.2,0.5-0.3,0.7-0.5c0.2-0.1,0.4-0.3,0.5-0.4
					c0,0,0,0,0.1,0c0.3,0,0.5-0.2,0.7-0.4c0,0,0.1,0,0.1,0c0.2,0,0.4-0.2,0.4-0.4c0.2,0,0.4,0,0.5-0.2c0,0,0.1,0,0.2,0
					c0-0.1,0-0.1,0-0.2c0.1,0,0.2-0.1,0.2-0.1c0.4-0.2,0.9-0.5,1.4-0.7c0.3-0.2,0.7-0.4,1.1-0.5c0,0,0.1,0,0.1-0.1
					c0.2-0.1,0.4-0.2,0.6-0.4c0,0,0,0,0.1,0c0.1-0.3,0.4-0.2,0.6-0.4c0.2-0.1,0.4-0.2,0.5-0.3c0.1-0.1,0.2-0.1,0.3-0.1
					c0.1-0.1,0.3-0.2,0.4-0.3c0,0,0.1-0.1,0.1-0.1c0.3,0,0.5-0.3,0.8-0.4c0.2-0.1,0.4-0.3,0.5-0.4c0.1-0.1,0.2-0.1,0.3-0.1
					c0.2,0,0.3-0.1,0.2-0.3c0.1,0,0.2,0,0.3-0.1c0.5-0.3,1-0.7,1.5-1.1c0.2-0.1,0.4-0.2,0.6-0.3c0.1-0.1,0.3-0.2,0.4-0.3
					c0.1-0.1,0.1-0.1,0.2-0.2c0.3-0.2,0.7-0.3,1-0.5c0.1,0,0.1-0.2,0.2-0.2c0.2-0.1,0.4-0.2,0.7-0.3c0.1,0,0.1,0,0.2,0
					c0.1,0,0.2-0.1,0.3-0.2c0.1-0.1,0.3-0.2,0.5-0.3c0.1-0.1,0.2-0.1,0.3-0.2c0.2-0.1,0.3-0.2,0.4-0.3c0.2-0.1,0.4-0.2,0.6-0.4
					c0.1-0.1,0.2-0.1,0.3-0.2c0,0,0.1,0,0.1,0c0.3-0.3,0.8-0.4,1.1-0.6c0.2-0.1,0.3-0.1,0.5,0c0.1,0.1,0.3,0,0.4,0.1
					c0.1,0,0.2,0,0.3,0.1c0.5,0.2,0.9,0.5,1.3,0.9c0.2,0.2,0.3,0.4,0.4,0.7c0.2,0.5,0.4,1,0.6,1.5c0,0.1,0,0.1,0,0.2
					c0,0,0,0.1,0,0.1c0.1,0.3,0.2,0.6,0.1,0.9c0,0.1,0.1,0.3,0.2,0.5c0,0.2,0.1,0.4,0.1,0.6c0,0.3,0.1,0.5,0.1,0.8
					c0,0.1,0.1,0.2,0,0.3c0,0,0,0.1,0,0.1c0,0.1,0.1,0.1,0.1,0.2c0,0.3,0,0.6,0.2,0.9c0,0,0,0,0,0c-0.1,0.4,0.1,0.9,0.1,1.3
					c0,0.1,0,0.1,0,0.2c0,0.2,0,0.4,0,0.6c0,0.1,0,0.2,0,0.3c0,0.1,0,0.2,0,0.2c0,0,0,0.1,0,0.1c-0.1,0.4,0.1,0.8,0.1,1.2
					c0,0.2,0,0.5,0,0.7c0,0.4,0.1,0.8,0.1,1.2c0,0.1,0,0.1,0,0.2c0,0.6-0.1,1.2,0,1.8c0,0.2,0.1,0.4,0.1,0.6c0,0.4,0,0.8,0,1.3
					c0,0.3,0,0.6,0,0.8c0,0.1,0,0.1,0,0.2c0,0.1-0.1,0.3-0.1,0.4c0.1,0.4-0.1,0.7-0.1,1.1c0,0.5-0.2,0.9-0.3,1.4
					c-0.1,0.3-0.2,0.6-0.2,0.9c0,0-0.1,0.1-0.1,0.1c-0.1,0.2-0.2,0.4-0.4,0.7c-0.1,0.1-0.2,0.2-0.2,0.3c-0.1,0.3-0.3,0.4-0.5,0.6
					C215.2,295.8,215.2,295.9,215,295.9C215.1,295.9,215.1,295.9,215,295.9z"/>
				<g id="XMLID_00000049934515327829103740000013169091670274610867_">
					<g>
						<path class="st4" d="M176.4,295c0.2,0,0.3,0.1,0.3,0.3c0,0,0,0.1,0,0.1c-0.1,0.2-0.4,0.4-0.2,0.7c0,0-0.1,0-0.1,0
							c-0.2-0.3-0.4-0.5-0.6-0.8c-0.1-0.1-0.2-0.2-0.3-0.3c0,0,0-0.1,0-0.1c0.1,0,0.1,0,0.1,0C175.8,294.9,176.1,295,176.4,295z"/>
					</g>
					<g>
					</g>
				</g>
				<g id="XMLID_00000057841353520291444810000017648308453871969961_">
					<g>
						<path class="st4" d="M177.2,296.5c0.1-0.1,0.1-0.2,0.2-0.3c0.1-0.1,0.2-0.2,0.3-0.4c0,0,0.1,0,0.1,0c0.1-0.1,0.1-0.2,0.1-0.2
							c0,0,0.1,0,0.1,0c0,0.1,0.1,0.2,0.1,0.3c0,0.2-0.1,0.4-0.2,0.6c0,0-0.1,0.1-0.1,0.1l0,0c-0.2,0.1-0.1,0.4-0.2,0.6
							c0,0.2-0.1,0.3-0.1,0.5c-0.2-0.2-0.5-0.5-0.6-0.8C176.9,296.7,177.1,296.6,177.2,296.5z"/>
					</g>
					<g>
					</g>
				</g>
				<g id="XMLID_00000178887797819945176120000009601605855188533414_">
					<g>
						<path class="st4" d="M179.8,296.3c-0.1,0.4-0.3,0.7-0.5,1c-0.1,0.1-0.2,0.3-0.4,0.2c0,0.2,0,0.4-0.2,0.5c0,0-0.1,0.1,0,0.1
							c0,0.2-0.1,0.2-0.2,0.2c-0.1,0-0.2,0-0.2-0.1c-0.1-0.1-0.2-0.2-0.4-0.3c-0.1-0.1-0.1-0.1-0.2-0.2c0.2-0.1,0.5-0.2,0.7-0.3
							c0.1-0.1,0.2-0.2,0.4-0.3c0,0,0.1-0.1,0.1-0.1c0.2,0,0.1-0.1,0.2-0.2c0.1-0.1,0.1-0.3,0.3-0.5c0.1-0.1,0.2-0.3,0.3-0.4
							c0.1-0.1,0.2-0.2,0.3-0.3c0,0.1,0,0.2,0,0.4C179.9,296.1,179.8,296.2,179.8,296.3z"/>
					</g>
					<g>
					</g>
				</g>
				<g id="XMLID_00000092452951611842959050000006702645566439692673_">
					<g>
						<path class="st4" d="M180.6,298.8c-0.2,0.2-0.2,0.4-0.1,0.6c0,0,0,0,0,0.1c0,0-0.1,0-0.1,0c0,0.1-0.1,0.3-0.1,0.4
							c-0.3-0.2-0.5-0.3-0.8-0.4c-0.2-0.1-0.3-0.3-0.1-0.5c0,0,0.1,0,0.1-0.1c0-0.3,0.3-0.4,0.4-0.6c0.2-0.3,0.6-0.5,0.8-0.9
							c0.2-0.2,0.3-0.5,0.4-0.7c0,0,0-0.1,0-0.1c0.3-0.2,0.4-0.6,0.7-0.8c0.1-0.1,0.3-0.1,0.5,0c0.1,0,0.1,0.4,0,0.5
							c-0.1,0.1-0.2,0.3-0.4,0.4c-0.3,0.3-0.5,0.6-0.8,0.9c-0.1,0.1-0.1,0.3-0.2,0.5c0,0,0,0.1-0.1,0.1c-0.1,0.2-0.1,0.3-0.2,0.5
							C180.7,298.6,180.7,298.7,180.6,298.8z"/>
					</g>
					<g>
					</g>
				</g>
				<g id="XMLID_00000135684634155422047940000009364132723749997218_">
					<g>
						<path class="st4" d="M182.3,299.9c0,0-0.1-0.1-0.2-0.2c0,0.3-0.1,0.5-0.1,0.7c0,0-0.1,0-0.1-0.1c-0.3-0.1-0.6-0.2-0.9-0.2
							c-0.1,0-0.2-0.1-0.2-0.1c0-0.1,0-0.2,0.1-0.2c0.1-0.2,0.3-0.4,0.5-0.5c0.3-0.2,0.4-0.6,0.7-0.9c0.2-0.1,0.2-0.4,0.5-0.5
							c0.2,0,0.2-0.3,0.4-0.4c0.4-0.3,0.6-0.7,0.8-1.1c0.1-0.2,0.3-0.5,0.5-0.7c0.1-0.1,0.3-0.2,0.4-0.1c0.1,0.1,0.1,0.2,0.1,0.2
							c-0.1,0.1-0.2,0.3-0.3,0.4c-0.1,0.1-0.2,0.3-0.3,0.4c-0.1,0.1-0.2,0.2-0.2,0.3c-0.1,0.1-0.1,0.3-0.3,0.4
							c-0.2,0.2-0.3,0.4-0.4,0.6c-0.1,0.2-0.3,0.4-0.5,0.6c0,0,0,0,0,0.1c-0.1,0.3-0.2,0.5-0.4,0.7c-0.1,0.1-0.1,0.3-0.1,0.4
							C182.4,299.7,182.4,299.8,182.3,299.9L182.3,299.9z"/>
					</g>
					<g>
					</g>
				</g>
				<g id="XMLID_00000088811172371686874210000018184004609740658833_">
					<g>
						<path class="st4" d="M185.8,297.9c-0.2,0.3-0.5,0.5-0.5,0.9c0,0.1-0.1,0.2-0.2,0.3c-0.1,0-0.2,0.2-0.2,0.3
							c-0.1,0.1-0.1,0.3-0.2,0.4c0,0.1-0.1,0.2-0.2,0.2c0,0-0.1,0-0.1,0.1c-0.1,0.2-0.2,0.4-0.3,0.6c0,0-0.1,0.1-0.1,0.1
							c-0.2,0-0.4,0-0.6,0c-0.2,0-0.3-0.1-0.5-0.2c0,0,0-0.1,0-0.1c0.1-0.2,0.2-0.4,0.4-0.5c0.3-0.2,0.4-0.3,0.3-0.6c0,0,0,0,0-0.1
							c0.1,0.2,0.2,0.1,0.3,0c0.1-0.1,0.2-0.2,0.2-0.3c0.2-0.2,0.5-0.4,0.7-0.7c0.2-0.2,0.3-0.4,0.5-0.6c0,0,0.1-0.1,0.1-0.1
							c0.3-0.1,0.4-0.4,0.6-0.7c0.2-0.2,0.4-0.4,0.5-0.7c0.1-0.2,0.3-0.3,0.3-0.6c0,0,0.1-0.1,0.2-0.1c0.2,0,0.2,0.2,0.1,0.3
							c0,0.1-0.1,0.1-0.1,0.2c-0.1,0.2-0.1,0.5-0.2,0.7c-0.1,0.1-0.2,0.2-0.3,0.3c0,0.1-0.1,0.2-0.1,0.3c0,0,0,0.1,0,0.1
							C186.1,297.5,185.9,297.7,185.8,297.9z"/>
					</g>
					<g>
					</g>
				</g>
				<g id="XMLID_00000161624717309531480480000001266297623163269268_">
					<g>
						<path class="st4" d="M187.4,299.1c0.1,0.2,0.1,0.4,0.1,0.6c0,0-0.1,0.1-0.1,0.2c-0.3,0.1-0.6,0.1-0.8,0.2
							c-0.2,0.1-0.4,0.2-0.6,0.2c-0.1,0.1-0.2,0.1-0.3,0c-0.1-0.1-0.1-0.2,0.1-0.3c0.2-0.1,0.3-0.3,0.4-0.5c0,0,0-0.1,0.1-0.1
							c0.3-0.1,0.4-0.3,0.6-0.5c0.1-0.1,0.2-0.3,0.3-0.4C187.2,298.6,187.3,298.9,187.4,299.1z"/>
					</g>
					<g>
					</g>
				</g>
				<g id="XMLID_00000104675676186964513490000013821295021645101463_">
					<g>
						<path class="st4" d="M215.3,290.4c0,0.1,0.1,0.2-0.1,0.3c0,0,0,0.1,0,0.2c0,0.4,0.1,0.8-0.1,1.3c0,0.1,0,0.1,0,0.2
							c0,0.2-0.1,0.5-0.1,0.7c0,0.1,0,0.1,0,0.2c0,0.1-0.1,0.2-0.1,0.3c0,0.3-0.2,0.4-0.3,0.6c-0.3,0.3-0.6,0.5-0.9,0.7
							c-0.2-0.2-0.4-0.2-0.6,0c-0.1,0.1-0.3,0.1-0.4,0.1c-0.5-0.2-1.1-0.3-1.6-0.3l-0.1,0c-0.4-0.1-0.8-0.2-1.2-0.2
							c-0.3,0-0.5,0-0.8-0.1c-0.2,0-0.3-0.1-0.5-0.2c-0.1,0.1-0.3,0.2-0.4,0.4c0,0-0.1,0.1-0.1,0.1c0,0.1,0,0.2,0,0.3l-0.1,0
							c0,0.1-0.1,0.1-0.1,0.2c-0.1,0.1-0.2,0.2-0.1,0.4c0,0.1,0,0.1,0.1,0.2c0.2,0.3,0.1,0.5-0.2,0.7c-0.1,0.1-0.2,0.1-0.2,0.3
							c0,0.2-0.2,0.4-0.3,0.5c-0.1,0.2-0.3,0.4-0.5,0.6c-0.3,0.4-0.6,0.9-1.1,1.2c-0.1,0-0.1,0.2-0.2,0.3c-0.1,0.1-0.2,0.2-0.3,0.3
							c0,0-0.1-0.1-0.1-0.1c-0.1,0.2-0.2,0.3-0.2,0.4c-0.2,0.1-0.3,0.1-0.4,0.1c0,0.2,0.1,0.3-0.2,0.3c-0.2,0-0.4,0.2-0.6,0.3
							c-0.1,0.1-0.3,0.1-0.4,0.2c0,0-0.1,0-0.1,0.1c-0.2,0.3-0.4,0.3-0.7,0.4c-0.2,0.1-0.3,0.2-0.4,0.4c0,0-0.1,0-0.2,0.1l-0.7,0.3
							c-0.2,0.1-0.4,0.2-0.6,0.2c-0.1,0-0.2,0.1-0.3,0.1c-0.3,0.1-0.6,0.3-0.8,0.4c-0.4,0.1-0.8,0.3-1.2,0.4c-0.3,0.1-0.3,0-0.4,0.1
							c-0.3,0-0.6,0.1-0.9,0.1c-0.2,0-0.5,0.1-0.7,0.1c-0.2,0-0.3,0.1-0.5,0.1c-0.2,0-0.4,0-0.7,0.1c-0.2,0.1-0.4,0.1-0.6,0.1
							c-0.2,0.1-0.4,0.1-0.6,0.1c-0.4,0.1-0.8,0.1-1.2,0c-0.2,0-0.3,0.1-0.5,0.1c-0.2,0-0.4,0-0.6-0.1c-0.2,0-0.4,0-0.6,0
							c-0.4,0-0.8,0-1.2,0c-0.4,0-0.8-0.2-1.2-0.2c-0.4,0-0.7,0-1.1-0.1c-0.5-0.1-1-0.1-1.4-0.3c-0.2-0.1-0.5-0.1-0.7-0.2
							c-0.3-0.1-0.6-0.2-0.8-0.2c0-0.1,0.1-0.2,0.1-0.3c0,0,0,0,0,0c0.2-0.1,0.3-0.1,0.5-0.2c0,0,0.1,0,0.1,0c0.2,0,0.4-0.1,0.6-0.3
							c0,0,0.1,0,0.1,0c0,0,0.1,0,0.1,0c0.1-0.1,0.3-0.2,0.5-0.2c0.1,0,0.1,0,0.2,0c0.2,0,0.4,0,0.6-0.1c0.1,0,0.2,0,0.3-0.1
							c0,0,0.1,0,0.1,0c0.1,0,0.1,0,0.2,0c0.1,0,0.2-0.3,0.4-0.1c0,0,0.1,0,0.1,0c0-0.1,0-0.3,0-0.5c0,0,0,0,0,0
							c0,0.1,0.1,0.2,0.1,0.3c0.1,0.1,0.1,0.2,0.3,0c0,0,0.1-0.1,0.1-0.1c0.3,0.1,0.4-0.2,0.7-0.3c0.1,0,0.2-0.2,0.4-0.4
							c0,0,0,0,0,0c0.4,0,0.5-0.4,0.8-0.5c0,0,0.1,0,0.1,0c0-0.2,0.3-0.3,0.4-0.4c0.1-0.1,0.2,0,0.2-0.1c0.1-0.1,0.2-0.2,0.3-0.3
							c0.1-0.1,0.2-0.2,0.4-0.2c0.1,0,0.1,0,0.1-0.1c0.2-0.2,0.4-0.4,0.6-0.6c0.4-0.3,0.8-0.6,1.2-0.9c0-0.1,0-0.2,0-0.4
							c0.2,0.2,0.3,0.1,0.3-0.1c0-0.1,0.1-0.2,0.2-0.3c0.3-0.2,0.4-0.6,0.6-0.8c0.2-0.2,0.4-0.5,0.6-0.7c0.3-0.2,0.5-0.5,0.7-0.9
							c0.1-0.2,0.2-0.3,0.3-0.5c0.1-0.2,0.2-0.4,0.3-0.6c0-0.1,0.1-0.1,0.2-0.2c0-0.3,0.2-0.7,0.4-0.7c0-0.3,0.2-0.8,0.5-0.8
							c0-0.1,0-0.2,0-0.4c0-0.1,0-0.2,0.1-0.2c0.1,0,0.3-0.1,0.2-0.3c0-0.1,0-0.2,0.1-0.2c0.1-0.2,0-0.4-0.2-0.4c0,0,0,0-0.1,0
							c-0.3-0.2-0.6-0.4-0.9-0.6c-0.1-0.1-0.2-0.1-0.3-0.2c-0.3-0.1-0.6-0.3-1-0.4l-0.7-0.3c-0.2,0.1-0.4-0.1-0.5-0.1
							c-0.2-0.2-0.5-0.4-0.7-0.5c-0.3-0.2-0.6-0.3-0.9-0.4c-0.2-0.1-0.4-0.1-0.6-0.3c-0.3-0.2-0.5-0.4-0.7-0.7c0,0,0-0.1,0-0.2
							c0.2-0.4,0.5-0.7,0.9-0.9c0.1-0.1,0.1-0.1,0.2-0.2c0.3-0.4,0.7-0.6,1-0.9c0.4-0.2,0.7-0.6,1.1-0.8c0.3-0.2,0.7-0.5,1.1-0.7
							c0.3-0.2,0.7-0.3,1-0.5c0.1-0.1,0.2-0.2,0.3-0.2c0.3-0.2,0.7-0.4,1-0.5c0.2-0.1,0.4-0.3,0.6-0.4c0.2-0.1,0.3-0.1,0.5-0.2
							c0.4-0.2,0.8-0.5,1.2-0.8c0,0,0.1,0,0.1-0.1c0.3-0.1,0.5-0.2,0.7-0.4c0.3-0.2,0.6-0.3,0.8-0.5c0.3-0.2,0.6-0.4,0.9-0.6
							c0.1-0.1,0.3-0.2,0.4-0.2c0.3-0.2,0.6-0.5,0.9-0.7c0.4-0.2,0.8-0.6,1.2-0.8c0.3-0.1,0.6-0.4,0.9-0.6c0.2-0.1,0.5-0.2,0.8-0.4
							c0,0,0.1,0,0.1,0c0.2-0.4,0.6-0.5,0.9-0.7c0.1-0.1,0.2-0.2,0.3-0.3c0,0,0.1,0,0.2,0c0,0,0,0,0-0.1c0.1-0.1,0.2-0.2,0.4-0.2
							c0.3-0.2,0.7-0.3,1-0.5c0,0,0.1-0.1,0.1-0.1c0.2-0.3,0.5-0.4,0.9-0.5c0,0,0.1,0,0.1,0c0.2-0.3,0.4-0.3,0.8-0.2
							c0.2,0.1,0.4,0.2,0.6,0.3c0.5,0.3,0.6,0.7,0.7,1.2c0.1,0.4,0.2,0.8,0.4,1.2c0.2,0.6,0.3,1.3,0.4,1.9c0.1,0.5,0.2,1,0.3,1.5
							c0,0.1,0,0.2,0,0.3c0,0,0.1,0,0.1,0c0,0,0,0,0,0c-0.1,0.1-0.1,0.2-0.1,0.4c0,0.4,0.1,0.9,0.1,1.3c0,0.2,0,0.5,0.1,0.7
							c0.1,0.2,0.1,0.5,0,0.8c-0.1,0.4-0.1,0.8,0,1.1c0.1,0.2,0.1,0.4,0.1,0.6c0,0.2,0.1,0.5,0.1,0.7c0,0.3,0,0.6,0,0.9
							c0,0.2,0,0.4,0,0.6c0,0.4,0,0.8,0,1.2c0,0.1-0.1,0.3,0,0.3c0.2,0.3,0.1,0.6,0.1,0.9c0,0.2,0,0.5,0,0.7
							C215.3,290.2,215.3,290.3,215.3,290.4z"/>
					</g>
					<g>
					</g>
				</g>
			</g>
		</g>
	</g>
</g>
<g>
	<g transform="translate(124.245146, 187.825937)">
		<g>
			<path class="st5" d="M67.1,36.9c-2.9,0.9-5.8,1.8-8.6,2.8c-1.9,0.7-4.5,1.8-7.8,3.3l3.1,15.1c0.2,1.1-0.2,1.7-1.2,2l-10.4,2.4
				c-0.5,0.1-0.9,0-1.3-0.2s-0.6-0.6-0.7-1.1c-1.9-10.2-3.2-17.8-3.9-22.8C35.2,30.1,34,20.7,33,10.2c-0.1-1,0.3-1.5,1.2-1.7
				l30.2-7.8c0.5-0.1,0.9,0,1.3,0.2c0.5,0.3,0.7,0.7,0.7,1.1l1.4,9.4c0.1,0.9-0.2,1.5-1.1,1.8L47,19.9l1.1,9.2l16.4-4.3
				c0.5-0.1,0.9,0,1.3,0.2c0.4,0.2,0.6,0.6,0.7,1l1.9,9C68.5,36,68.1,36.6,67.1,36.9z"/>
		</g>
	</g>
</g>
<g>
	<g transform="translate(153.493642, 181.824155)">
		<g>
			<path class="st5" d="M82,52.7l-30,7.7c-0.5,0.1-0.9,0-1.3-0.2c-0.4-0.2-0.6-0.6-0.7-1.1L41.8,6.6c-0.1-1,0.3-1.6,1.4-1.9
				l10.2-1.8c0.4-0.1,0.8,0,1.2,0.3c0.4,0.3,0.6,0.6,0.7,1L61.1,42l18.1-4c0.5-0.1,0.9,0,1.3,0.2c0.4,0.2,0.6,0.6,0.7,1.1l2.1,11.4
				C83.5,51.9,83.1,52.5,82,52.7z"/>
		</g>
	</g>
</g>
<g>
	<g transform="translate(180.309704, 176.321507)">
		<g>
			<path class="st4" d="M69.6,37.9L69.6,37.9z"/>
			<path class="st5" d="M72.3,56L61,58.6c-0.5,0.1-0.9,0-1.3-0.2c-0.4-0.2-0.6-0.6-0.7-1.1c-2.1-11.5-3.6-20-4.5-25.8
				c-1.1-6.9-1.8-12-2.2-15.4c0,0,0,0,0,0v-0.4c0.1,0,0,0,0,0L50.8,4.8c-0.2-1,0.3-1.7,1.4-1.9L63,0.4c0.5-0.1,0.9,0,1.2,0.3
				c0.4,0.3,0.6,0.7,0.7,1.2c1.1,9.5,2.3,18.3,3.6,26.4c0.7,4,1.3,7,1.7,8.9l0.1,0.6l0.2,0.9l2,9.9l1.1,5.5
				C73.8,55.2,73.4,55.8,72.3,56z"/>
			<path class="st4" d="M52.3,15.6C52.2,15.6,52.2,15.6,52.3,15.6C52.3,15.6,52.3,15.6,52.3,15.6z"/>
			<path class="st4" d="M52.3,16.1C52.2,16.1,52.2,16.1,52.3,16.1C52.3,16.1,52.3,16.1,52.3,16.1z"/>
			<path class="st6" d="M70.6,41l-0.3,0.2l-0.2,0.1c0,0,0,0.1-0.1,0.2l0.1,0.3c0,0.1,0,0.3,0,0.4"/>
			<path class="st4" d="M70.5,38.7L70.5,38.7z"/>
		</g>
	</g>
</g>
<g>
	<g transform="translate(193.24311, 173.667577)">
		<g>
			<path class="st5" d="M63.3,49.9 M62.6,49.9 M63.3,56.4c0.1,0.5,0.3,0.8,0.7,1.1c0.4,0.2,0.8,0.3,1.2,0.2l9.7-2
				c1-0.2,1.5-0.8,1.2-1.9l-2.4-14.2l2.4-0.8c0,0,0,0-0.1-0.1c0-0.1-0.7,0.5,0.4-0.2c0.1,0-0.4,0.2-0.4,0.3l0.6-0.3l0.6-0.2L78,38
				c1.5-0.6,2.7-1.1,3.5-1.6c2.9-1.5,5.5-3.2,7.8-5.1h0.1c1.7-1.5,3-3.2,3.9-5.2c0.5-1.2,1-2.5,1.4-3.9c0.7-2.9,0.7-5.9,0.1-8.9
				c-0.2-1.1-0.5-2.1-0.9-3.2c-1.3-4.2-3.5-7.3-6.5-9.5c-3-2.1-6.5-2.9-10.7-2.2h-0.1L74.5-1c-0.5,0.2-0.9,0.3-1.2,0.4
				c-0.4,0.1-0.6,0.2-0.9,0.2C71.2,0,66,2.2,56.6,6.2c-0.7,0.3-1,0.9-1,1.7L63.3,56.4z M80.7,21.3c-1.1,1.4-2.8,2.7-5.2,4.1
				c-0.8,0.4-2,0.8-3.7,1.4L70,14l6-2.5c0.2-0.1,0.4-0.2,0.7-0.2c1.3-0.3,2.4,0.2,3.3,1.2c0.9,1.1,1.6,2.4,1.9,3.9
				c0.1,0.5,0.1,0.9,0.1,1.2C82,19,81.6,20.3,80.7,21.3z"/>
		</g>
	</g>
</g>
<g>
	<g transform="translate(174.572167, 218.952262)">
		<g>
			<path class="st7" d="M81.9,66l-23,6.8c-0.4,0.1-0.7,0.1-1-0.1c-0.3-0.2-0.5-0.5-0.6-0.8l-7.9-40.5c-0.1-0.8,0.2-1.3,1-1.5
				l7.9-1.7c0.3-0.1,0.6,0,1,0.2c0.3,0.2,0.5,0.5,0.6,0.8l5.5,29.1l13.9-3.6c0.4-0.1,0.7,0,1,0.1c0.3,0.2,0.5,0.5,0.6,0.9l1.9,8.8
				C83,65.3,82.7,65.8,81.9,66z"/>
		</g>
	</g>
</g>
<g>
	<g transform="translate(195.211647, 213.93548)">
		<g>
			<path class="st8" d="M72.4,54.7l-0.1,0l0.1,0.3c0,0.1,0,0.2-0.1,0.2l0,0.1l0.2,0c0,0,0,0,0.1,0.1L72.4,54.7z"/>
			<path class="st7" d="M56.3,29.7c-0.1-0.8,0.2-1.3,1-1.5l8.4-2.3c0.4-0.1,0.7,0,1,0.2c0.3,0.2,0.5,0.5,0.6,0.9
				c1.1,7.3,2.3,14.1,3.5,20.3c0.7,3.1,1.2,5.4,1.5,6.8c0,0-0.1,0-0.2,0l0.2,0l0.3,1.2c0,0,0,0,0,0l0.1,0.1l0-0.1c0,0,0,0,0,0
				l0.4,1.8l0.8,3.6l0.5,2.2l1,4.3c0.2,0.8-0.1,1.3-0.9,1.5l-8.7,2.3c-0.4,0.1-0.7,0.1-1-0.1c-0.3-0.2-0.5-0.5-0.6-0.8
				c-2-8.8-3.4-15.5-4.2-19.9C58.9,45,56.7,32.3,56.3,29.7"/>
			<path class="st8" d="M72.3,54.2L72.3,54.2l-0.2,0C72.1,54.2,72.2,54.2,72.3,54.2z"/>
			<path class="st8" d="M72.5,55.5L72.5,55.5C72.5,55.5,72.5,55.4,72.5,55.5L72.5,55.5z"/>
			<path class="st8" d="M73.7,60.9"/>
			<path class="st8" d="M73.2,57.9c0,0.3,0.1,0.8,0.3,1.5c0.1,0.3,0.2,0.7,0.3,1.1c-0.1,0-0.2,0-0.3,0.1c0,0.2,0.1,0.2,0.1,0.2
				l0.1,0"/>
		</g>
	</g>
</g>
<g>
	<g transform="translate(205.166085, 211.515883)">
		<g>
			<path class="st7" d="M96.3,63.3l-8,2.1c-0.6,0.1-1,0-1.4-0.5l-1.5-2.3l0.1,0l0-0.1l-0.1,0L77.4,51l-0.2-0.3l-3.8-5.5l4.8,21.7
				c0.1,0.8-0.2,1.4-1,1.5l-8.2,2c-0.4,0.1-0.7,0-1-0.2c-0.3-0.2-0.5-0.5-0.6-0.8c-0.4-2.1-1-5.2-1.7-9.2l-0.3-1.5
				c-1.4-7.7-2.4-13.2-2.9-16.5l-2-13c-0.1-0.8,0.2-1.2,0.9-1.5l5.8-1.6c1.3-0.4,2.5-0.3,3.6,0.2c1.1,0.5,2.1,1.3,3,2.5l0.1,0
				l8.3,12l-2.9-16.4c-0.2-0.8,0.1-1.3,1-1.5l7.3-1.6c0.4-0.1,0.7,0,1,0.2c0.3,0.2,0.5,0.5,0.6,0.9c1,6.9,2.2,13.3,3.4,19.2
				c0.1,0.6,0.3,1.5,0.6,2.8l0.6,2.8v0l0.1,0.2l0,0.2l0,0.1l0,0.1l0,0.1c0.7,3.1,1.8,7.7,3.3,13.8C97.4,62.6,97.1,63.1,96.3,63.3z"
				/>
			<path class="st6" d="M93.7,47.2L93.7,47.2"/>
		</g>
	</g>
</g>
<g>
	<g transform="translate(230.052186, 205.466887)">
		<g>
			<path class="st7" d="M69.5,36.2l-0.7-4.5L68,27.1c-0.2-0.8,0.2-1.3,1-1.5l7.6-1.8c0.4-0.1,0.7,0,1,0.2c0.3,0.2,0.5,0.5,0.6,0.9
				L80,36.3l9.3-15.8c0.2-0.3,0.5-0.6,0.8-0.7c0.3-0.1,0.6,0,0.9,0.2l6.7,4.1c0.4,0.3,0.6,0.6,0.6,0.8c0.1,0.3,0,0.6-0.2,0.9
				l-8.2,16l13.9,12c0.3,0.2,0.4,0.5,0.5,0.7c0,0.2,0,0.5-0.3,0.9l-5,7.1c-0.3,0.4-0.6,0.5-0.9,0.5c-0.4,0.1-0.7,0-1-0.3l-4.4-4.1
				c-1.4-1.4-2.9-2.8-4.5-4.1c-1.5-1.3-3.4-2.8-5.6-4.4l3.6,14.6c0.2,0.8-0.1,1.3-0.8,1.5l-8,2.1c-0.4,0.1-0.7,0.1-1-0.1
				c-0.3-0.2-0.5-0.5-0.6-0.8c-1.6-7.3-3.2-14.6-4.5-21.8c-0.7-3.6-1.2-6.2-1.5-7.8l-0.2-1.2"/>
		</g>
	</g>
</g>
<g>
	<defs>
		<rect id="SVGID_00000013884034777283094930000007532542298286521018_" x="168" y="252" width="46.7" height="32"/>
	</defs>
	<clipPath id="SVGID_00000166648304121566791000000000041972345555155089_">
		<use xlink:href="#SVGID_00000013884034777283094930000007532542298286521018_"  style="overflow:visible;"/>
	</clipPath>
	<g style="clip-path:url(#SVGID_00000166648304121566791000000000041972345555155089_);">
		<defs>
			
				<rect id="SVGID_00000041288358107147328920000001217285611088842118_" x="164.4" y="252.9" transform="matrix(0.8798 -0.4753 0.4753 0.8798 -104.2543 121.3468)" width="47" height="28"/>
		</defs>
		<clipPath id="SVGID_00000078044338268562528740000017613594735353290371_">
			<use xlink:href="#SVGID_00000041288358107147328920000001217285611088842118_"  style="overflow:visible;"/>
		</clipPath>
		<g style="clip-path:url(#SVGID_00000078044338268562528740000017613594735353290371_);">
			<defs>
				
					<rect id="SVGID_00000121986989382236283650000013939197222205424769_" x="164.4" y="252.9" transform="matrix(0.8798 -0.4753 0.4753 0.8798 -104.2543 121.3468)" width="47" height="28"/>
			</defs>
			<clipPath id="SVGID_00000000934913663715516060000002722808791601044136_">
				<use xlink:href="#SVGID_00000121986989382236283650000013939197222205424769_"  style="overflow:visible;"/>
			</clipPath>
			<g style="clip-path:url(#SVGID_00000000934913663715516060000002722808791601044136_);">
				<path class="st3" d="M172.6,258.9c0.1-0.1,0.2-0.1,0.2-0.2c0.2-0.1,0.5-0.3,0.7-0.4c0.1,0,0.2,0,0.2,0c0-0.1,0.1-0.1,0.1-0.2
					c0.2,0,0.3-0.1,0.5-0.1c0.1,0,0.2,0.1,0.3,0.1c0.1,0,0.1,0.1,0.2,0.2c0.4-0.1,0.7,0,1.1,0.2c0,0,0.1,0.1,0.1,0.1l0.4,0
					c0,0,0,0,0.1,0.1c0.1,0.1,0.3,0.1,0.4,0.2c0.1,0.1,0.2,0.2,0.3,0.2c0.1,0,0.1,0.1,0.1,0.2c0.2-0.2,0.6-0.2,0.8,0
					c0.1,0.1,0.2,0.1,0.3,0.1c0.1,0,0-0.2,0-0.3c0-0.1,0-0.1,0-0.2c0.1,0,0.2,0,0.2,0.1c0.1-0.1,0.2-0.2,0.2-0.3
					c0.1-0.1,0.1-0.2,0.2-0.3c0.1,0,0.2-0.1,0.2-0.1c0.1-0.2,0.4-0.3,0.4-0.6c0-0.1,0.1-0.1,0.2-0.2c0.1-0.1,0.2-0.3,0.4-0.4
					c0.2,0,0.7-0.3,0.8-0.5c0.2,0.1,0.3,0.1,0.3-0.1c0.2-0.4,0.5-0.6,0.8-0.8c0.1-0.1,0.3-0.2,0.4-0.3c0.4-0.2,0.8-0.4,1.2-0.7
					c0.2-0.1,0.4-0.2,0.7-0.3c0,0,0.1,0,0.2,0.1c0-0.1,0.1-0.1,0.1-0.2c0.2,0.1,0.3-0.1,0.4-0.2c0.1,0,0.1-0.1,0.2-0.1
					c0.1-0.1,0.3-0.2,0.4-0.2c0.2-0.1,0.4-0.2,0.6-0.2c0.2-0.1,0.3-0.1,0.5-0.2c0.2-0.1,0.4-0.1,0.6-0.1c0.2,0,0.3-0.1,0.5,0
					c0-0.1,0.1-0.2,0.1-0.2c0.1,0,0.1,0.1,0.1,0.1c0,0,0,0,0,0c0.1-0.2,0.3-0.2,0.5-0.3c0.3-0.1,0.6-0.1,0.9-0.2
					c0.2-0.1,0.5-0.1,0.7-0.1c0.1,0,0.2-0.1,0.4,0c0.1,0,0.3,0.1,0.4,0.1c0.1,0,0.2,0,0.3-0.1c0.2-0.1,0.5-0.1,0.7-0.1
					c0.3,0,0.6-0.1,0.9-0.1c0.1,0,0.3,0,0.4,0c0.3,0,0.5,0,0.8,0c0.2,0,0.4,0,0.6-0.1c0,0,0.1,0,0.1-0.1c0.1,0.1,0.2,0.2,0.4,0.1
					c0.1,0,0.2,0,0.3,0c0.1,0,0.2,0,0.3,0c0.1,0,0.2,0,0.3,0c0.2,0.1,0.4,0.1,0.7,0.2c0.2,0.1,0.5,0.2,0.7,0.3c0,0,0.1-0.1,0.2-0.1
					c0,0,0.1,0.1,0.1,0.1c0.1-0.1,0.3-0.1,0.3,0c0.1,0.2,0.1,0.1,0.2,0c0,0,0.1-0.1,0.1-0.1c0.2,0,0.4,0.1,0.6,0.1
					c0.2,0.1,0.5,0.1,0.7,0.2c0.1,0,0.2,0.1,0.2,0.1c0.3,0.1,0.6,0.2,0.9,0.2c0.2,0,0.4,0.1,0.5,0.1c0.3,0,0.4,0.2,0.7,0.2
					c0.1,0,0.2,0.1,0.3,0.2c0.2,0.1,0.3,0.1,0.5,0.2c0.3,0.1,0.7,0.3,1,0.4c0.2,0.1,0.4,0.3,0.7,0.4c0.2,0.1,0.4,0.2,0.6,0.4
					c0.2,0.1,0.3,0.3,0.5,0.4c0.2,0.2,0.4,0.4,0.7,0.6c0.2,0.1,0.3,0.2,0.4,0.3c0.2,0.3,0.5,0.5,0.8,0.7c0.2,0.2,0.4,0.4,0.5,0.6
					c0.1,0.1,0.2,0.2,0.2,0.2c0.1,0.1,0.2,0.2,0.2,0.2c0.1,0.1,0.2,0.3,0.3,0.4c0.1,0.1,0.2,0.2,0.2,0.4c0.1,0.3,0.3,0.4,0.6,0.6
					c0.3,0.2,0.6,0.4,0.8,0.7c0.2,0.4,0.5,0.8,0.8,1.2c0.3,0.5,0.6,1.1,0.9,1.6c0.2,0.3,0.4,0.7,0.6,1c0.1,0.2,0.2,0.5,0.3,0.8
					c0.1,0.3,0.3,0.7,0.4,1c0.1,0.2,0,0.4,0.1,0.6c0.1,0.4,0.1,0.7-0.1,1.1c-0.1,0.2-0.1,0.5-0.1,0.7c0,0.1,0,0.2-0.2,0.3
					c-0.2,0.1-0.4,0.3-0.6,0.6c-0.3-0.1-0.7-0.3-1-0.5c-0.1,0-0.2-0.1-0.4-0.1c-0.1,0-0.2-0.1-0.3-0.1c-0.1-0.1-0.2-0.2-0.4-0.1
					c0,0,0,0,0,0c-0.4-0.1-0.7-0.2-1.1-0.3c-0.1,0-0.1,0-0.2-0.1l-0.7-0.2c-0.1,0-0.1,0-0.2,0c-0.1-0.1-0.3-0.2-0.4-0.2
					c0,0.1-0.1,0.1-0.1,0.2c-0.2,0-0.3,0-0.5-0.2c0,0-0.1-0.1-0.1,0c-0.3,0.1-0.5-0.1-0.8-0.2c-0.3,0-0.4-0.2-0.7-0.2
					c-0.3-0.2-0.7-0.3-1.1-0.4c0,0-0.1,0-0.1,0c-0.1,0.1-0.2,0-0.3-0.1c0-0.1-0.2-0.1-0.2-0.1c-0.2,0-0.3,0.1-0.4-0.2
					c-0.1,0-0.1,0.1-0.1,0.1c-0.2,0-0.5,0-0.7-0.1c0,0-0.1,0-0.1,0c-0.3,0-0.6,0-0.8,0c-0.1,0-0.2,0-0.4-0.1
					c-0.6-0.1-1.1-0.2-1.7-0.3c-0.2,0-0.3,0-0.5,0c0,0-0.1,0-0.1,0c-0.2-0.2-0.4,0-0.5,0c-0.3,0-0.7,0.1-1-0.2
					c-0.2-0.2-0.4-0.3-0.4-0.5c0-0.1,0-0.1,0-0.2c0.1-0.3,0.2-0.6,0.3-0.9c0.1-0.2,0.1-0.4,0.1-0.6c0-0.2,0.1-0.5,0.1-0.7
					c0-0.4,0-0.8,0-1.3c0-0.3-0.1-0.7-0.2-1c0-0.1-0.1-0.2-0.2-0.3c-0.2-0.2-0.4-0.2-0.6,0.1c-0.2,0.2-0.5,0.3-0.8,0.4
					c-0.3,0.1-0.6,0.3-0.8,0.4c-0.3,0.2-0.7,0.3-1,0.4c-0.2,0.1-0.5,0.2-0.6,0.4c-0.1,0.1-0.2,0.2-0.3,0.2c-0.2,0.2-0.3,0.4-0.5,0.5
					c-0.3,0.2-0.6,0.5-0.8,0.7c-0.1,0-0.1,0.1-0.1,0.2c-0.1,0-0.2,0-0.2,0.1c-0.2,0.2-0.2,0.4-0.5,0.4c-0.1,0-0.1,0.2-0.2,0.3
					c-0.2,0.2-0.4,0.5-0.6,0.7c-0.2,0.1-0.2,0.3-0.3,0.5c0,0,0,0,0,0c-0.3,0.1-0.3,0.5-0.6,0.7c-0.1,0.1,0,0.5,0.2,0.6
					c0.2,0.1,0.4,0.3,0.8,0.3c0,0,0,0,0.1,0c0.5,0.2,1,0.5,1.4,0.7c0,0,0,0,0,0c0.2,0.4,0.6,0.6,1,0.9c0,0,0.1,0.1,0.1,0.1
					c0.6,0.2,0.9,0.7,1.2,1.1l0.7,1c0.1,0.2,0.1,0.4,0,0.6l0,0c0,0.4-0.4,0.6-0.5,1c-0.1,0.2-0.3,0.3-0.5,0.5
					c-0.1,0.1-0.1,0.2-0.2,0.3c0,0,0,0.1-0.1,0.1c-0.2,0.1-0.4,0.2-0.5,0.4c-0.1,0.1-0.1,0.2-0.1,0.2c-0.1,0-0.2,0-0.3,0.1
					c-0.2,0.1-0.5,0.1-0.6,0.3c0,0,0,0-0.1,0c-0.2,0.1-0.5,0.3-0.7,0.4c-0.3,0.1-0.5,0.2-0.8,0.3c-0.2,0.1-0.4,0.2-0.6,0.3
					c0,0,0,0-0.1,0c-0.3,0-0.5,0.1-0.8,0.2c0,0-0.1,0-0.1,0c-0.2,0-0.4,0.1-0.5,0.3c-0.2-0.1-0.4-0.1-0.5,0.1c0,0-0.1,0-0.2,0
					c0,0.1,0,0.1,0,0.2c-0.1,0-0.2,0-0.2,0c-0.5,0.2-1,0.3-1.5,0.5c-0.4,0.1-0.7,0.3-1.1,0.3c0,0-0.1,0-0.1,0
					c-0.2,0.1-0.4,0.2-0.7,0.3c0,0,0,0-0.1,0c-0.1,0.3-0.4,0.2-0.6,0.3c-0.2,0.1-0.4,0.1-0.6,0.2c-0.1,0-0.2,0-0.3,0.1
					c-0.2,0.1-0.3,0.2-0.4,0.2c-0.1,0-0.1,0.1-0.1,0.1c-0.3,0-0.6,0.2-0.8,0.3c-0.2,0.1-0.4,0.2-0.6,0.3c-0.1,0-0.2,0.1-0.3,0.1
					c-0.2,0-0.3,0.1-0.3,0.3c-0.1,0-0.2,0-0.3,0.1c-0.6,0.3-1.1,0.5-1.7,0.8c-0.2,0.1-0.4,0.1-0.6,0.2c-0.1,0.1-0.3,0.1-0.4,0.2
					c-0.1,0-0.1,0.1-0.2,0.1c-0.4,0.1-0.7,0.2-1.1,0.3c-0.1,0-0.1,0.1-0.2,0.2c-0.3,0-0.5,0.2-0.7,0.2c-0.1,0-0.1,0-0.2,0
					c-0.1,0-0.2,0-0.3,0.1c-0.2,0.1-0.4,0.2-0.5,0.2c-0.1,0.1-0.2,0.1-0.4,0.1c-0.2,0.1-0.3,0.1-0.5,0.2c-0.2,0.1-0.4,0.2-0.6,0.3
					c-0.1,0-0.2,0.1-0.4,0.1c0,0-0.1,0-0.1,0c-0.4,0.3-0.8,0.2-1.2,0.5c-0.2,0.1-0.3,0.1-0.5-0.1c-0.1-0.1-0.3-0.1-0.4-0.1
					c-0.1,0-0.2-0.1-0.3-0.1c-0.5-0.3-0.8-0.7-1.1-1.1c-0.1-0.2-0.2-0.5-0.3-0.7c-0.2-0.5-0.3-1-0.4-1.5c0-0.1,0-0.1,0-0.2
					c0,0,0-0.1,0-0.1c0-0.3-0.1-0.6,0-0.9c0.1-0.1-0.1-0.3-0.1-0.5c0-0.2,0-0.4,0-0.6c0-0.3,0-0.5,0-0.8c0-0.1-0.1-0.3,0.1-0.3
					c0,0,0-0.1,0-0.1c0-0.1,0-0.1,0-0.2c0.1-0.3,0.1-0.6,0-0.9c0,0,0,0,0,0c0.2-0.4,0-0.9,0.1-1.3c0-0.1,0-0.1,0-0.2
					c0-0.2,0-0.4,0.1-0.6c0-0.1,0.1-0.2,0.1-0.3c0-0.1,0-0.2,0-0.2c0,0,0-0.1,0-0.1c0.2-0.4,0-0.8,0.1-1.2c0.1-0.2,0.1-0.5,0.1-0.7
					c0-0.4,0.1-0.8,0.1-1.2c0-0.1,0-0.1,0-0.2c0.1-0.6,0.3-1.2,0.3-1.8c0-0.2,0-0.4,0-0.7c0.1-0.4,0.1-0.8,0.2-1.2
					c0.1-0.3,0.1-0.6,0.2-0.8c0-0.1,0-0.1,0.1-0.2c0.1-0.1,0.1-0.2,0.1-0.4c0-0.4,0.2-0.7,0.3-1.1c0.1-0.4,0.3-0.9,0.5-1.3
					c0.1-0.3,0.2-0.6,0.4-0.9c0,0,0.1-0.1,0.1-0.1c0.2-0.2,0.3-0.4,0.5-0.6c0.1-0.1,0.2-0.1,0.3-0.2c0.1-0.3,0.4-0.4,0.6-0.5
					C172.4,259,172.4,259,172.6,258.9C172.5,258.9,172.5,258.9,172.6,258.9z"/>
				<g id="XMLID_00000039854301728511512970000003297589384621250199_">
					<g>
						<path class="st8" d="M211.6,266.1c0,0,0,0.1,0,0.2c-0.1,0-0.1,0-0.1,0c-0.3-0.1-0.6-0.2-0.9-0.2c-0.2,0-0.3-0.2-0.2-0.4
							c0,0,0-0.1,0.1-0.1c0.1-0.2,0.5-0.3,0.3-0.7c0.1,0,0.1,0,0.2,0c0.2,0.3,0.3,0.6,0.5,0.9C211.4,265.8,211.5,266,211.6,266.1z"
							/>
					</g>
					<g>
					</g>
				</g>
				<g id="XMLID_00000158003455889687259660000010325569813062623910_">
					<g>
						<path class="st8" d="M210.3,264c0,0.2-0.2,0.3-0.3,0.4c-0.1,0.1-0.2,0.2-0.2,0.2c-0.1,0.1-0.3,0.2-0.4,0.3c0,0-0.1,0-0.1,0
							c-0.1,0.1-0.1,0.1-0.2,0.2c0,0-0.1,0-0.1-0.1c0-0.1-0.1-0.2,0-0.3c0.1-0.2,0.2-0.4,0.4-0.5c0,0,0.1-0.1,0.1-0.1l0,0
							c0.2-0.1,0.2-0.3,0.3-0.5c0.1-0.1,0.1-0.3,0.2-0.4C210,263.3,210.2,263.6,210.3,264z"/>
					</g>
					<g>
					</g>
				</g>
				<g id="XMLID_00000176004782457320687490000005129489314135081610_">
					<g>
						<path class="st8" d="M209.6,262.7c0.1,0.1,0.1,0.1,0.1,0.2c-0.3,0.1-0.5,0.1-0.7,0.2c-0.1,0.1-0.3,0.2-0.4,0.3
							c0,0-0.1,0.1-0.1,0.1c-0.2,0-0.2,0.1-0.2,0.2c-0.1,0.1-0.2,0.3-0.4,0.4c-0.2,0.1-0.3,0.2-0.4,0.4c-0.1,0.1-0.3,0.2-0.4,0.2
							c0-0.1,0-0.2,0.1-0.3c0-0.1,0.2-0.1,0.2-0.2c0.1-0.4,0.4-0.7,0.7-1c0.1-0.1,0.2-0.3,0.4-0.2c0-0.2,0-0.4,0.3-0.5
							c0,0,0.1-0.1,0.1-0.1c0-0.2,0.1-0.2,0.2-0.2c0.1,0,0.1,0,0.2,0.1C209.4,262.5,209.5,262.6,209.6,262.7z"/>
					</g>
					<g>
					</g>
				</g>
				<g id="XMLID_00000170969705768952126210000010868351540191870370_">
					<g>
						<path class="st8" d="M208.2,261.6C208.1,261.6,208.1,261.7,208.2,261.6c-0.1,0.4-0.4,0.4-0.6,0.6c-0.3,0.3-0.6,0.5-0.9,0.7
							c-0.2,0.2-0.4,0.4-0.6,0.6c0,0,0,0.1,0,0.1c-0.3,0.2-0.5,0.5-0.8,0.7c-0.1,0.1-0.3,0-0.5,0c-0.1-0.1,0-0.4,0.1-0.5
							c0.1-0.1,0.3-0.2,0.4-0.3c0.3-0.2,0.6-0.5,0.9-0.8c0.1-0.1,0.2-0.3,0.3-0.4c0,0,0.1-0.1,0.1-0.1c0.1-0.1,0.2-0.3,0.3-0.4
							c0.1-0.1,0.1-0.2,0.2-0.2c0.2-0.1,0.2-0.3,0.2-0.5c0,0,0,0,0-0.1c0,0,0.1,0,0.1,0c0.1-0.1,0.1-0.3,0.1-0.4
							c0.3,0.2,0.5,0.4,0.7,0.5C208.4,261.3,208.4,261.5,208.2,261.6z"/>
					</g>
					<g>
					</g>
				</g>
				<g id="XMLID_00000160179698893603865180000007123875776234137746_">
					<g>
						<path class="st8" d="M205.5,261.7c-0.2,0.1-0.3,0.4-0.6,0.4c-0.2,0-0.3,0.3-0.5,0.4c-0.4,0.2-0.7,0.6-1,1
							c-0.2,0.2-0.4,0.4-0.6,0.6c-0.1,0.1-0.3,0.1-0.4,0c-0.1-0.1-0.1-0.2-0.1-0.3c0.1-0.1,0.2-0.2,0.3-0.3c0.1-0.1,0.2-0.2,0.3-0.4
							c0.1-0.1,0.2-0.2,0.3-0.3c0.1-0.1,0.2-0.2,0.3-0.3c0.2-0.1,0.4-0.3,0.5-0.5c0.1-0.2,0.4-0.4,0.6-0.6c0,0,0.1,0,0.1-0.1
							c0.1-0.3,0.3-0.5,0.5-0.6c0.1-0.1,0.2-0.2,0.1-0.4c0,0,0-0.1,0-0.1h0.1c0,0.1,0.1,0.1,0.1,0.2c0.1-0.2,0.1-0.5,0.2-0.7
							c0,0,0.1,0,0.1,0.1c0.2,0.2,0.6,0.3,0.9,0.4c0.1,0,0.1,0.1,0.1,0.2c0,0.1-0.1,0.2-0.1,0.2c-0.2,0.1-0.4,0.3-0.6,0.4
							C205.9,261.1,205.8,261.5,205.5,261.7z"/>
					</g>
					<g>
					</g>
				</g>
				<g id="XMLID_00000109002720200941776600000007364879081912706720_">
					<g>
						<path class="st8" d="M205.1,259.5C205.1,259.5,205.1,259.6,205.1,259.5c-0.2,0.2-0.3,0.4-0.5,0.5c-0.3,0.1-0.4,0.2-0.4,0.5
							c0,0,0,0,0,0.1c-0.1-0.2-0.2-0.2-0.3,0c-0.1,0.1-0.2,0.2-0.3,0.3c-0.3,0.2-0.5,0.4-0.8,0.5c-0.2,0.2-0.4,0.4-0.6,0.6
							c0,0-0.1,0.1-0.1,0.1c-0.3,0.1-0.5,0.4-0.7,0.6c-0.2,0.2-0.5,0.4-0.6,0.6c-0.1,0.2-0.4,0.2-0.4,0.5c0,0-0.1,0.1-0.2,0.1
							c-0.1-0.1-0.2-0.2-0.1-0.4c0-0.1,0.1-0.1,0.1-0.2c0.1-0.2,0.2-0.4,0.4-0.6c0.1-0.1,0.2-0.2,0.3-0.3c0.1-0.1,0.1-0.2,0.1-0.2
							c0,0,0-0.1,0.1-0.1c0.2-0.1,0.4-0.3,0.5-0.5c0.2-0.3,0.6-0.4,0.7-0.8c0-0.1,0.1-0.2,0.3-0.3c0.1,0,0.2-0.1,0.3-0.2
							c0.1-0.1,0.2-0.3,0.3-0.4c0-0.1,0.1-0.2,0.2-0.1c0,0,0.1,0,0.1-0.1c0.1-0.2,0.3-0.4,0.4-0.6c0,0,0.1-0.1,0.1-0.1
							c0.2,0,0.4,0,0.6,0.1C204.9,259.3,205,259.4,205.1,259.5z"/>
					</g>
					<g>
					</g>
				</g>
				<g id="XMLID_00000062877830023687648600000010166579680398026371_">
					<g>
						<path class="st8" d="M201.7,260c-0.3,0-0.5,0.2-0.7,0.4c-0.1,0.1-0.2,0.2-0.3,0.4c-0.2-0.1-0.2-0.4-0.3-0.6s0-0.4,0-0.6
							c0-0.1,0.1-0.1,0.1-0.1c0.3,0,0.6,0,0.9-0.1c0.2-0.1,0.4-0.1,0.6-0.2c0.1,0,0.2,0,0.3,0c0.1,0.1,0,0.2-0.1,0.3
							C202,259.6,201.8,259.8,201.7,260C201.7,260,201.7,260,201.7,260z"/>
					</g>
					<g>
					</g>
				</g>
				<g id="XMLID_00000116216397783200938520000002821627380268754575_">
					<g>
						<path class="st8" d="M203.7,256.8c-0.1,0.1-0.1,0.2-0.1,0.3c0,0,0,0,0-0.1c-0.2,0-0.3,0.1-0.5,0.1c0,0-0.1,0-0.1,0
							c-0.2-0.1-0.4,0.1-0.6,0.2c0,0-0.1,0-0.1,0c0,0-0.1,0-0.1,0c-0.2,0.1-0.4,0.1-0.5,0.1c-0.1,0-0.1,0-0.2,0c-0.2,0-0.4,0-0.6,0
							c-0.1,0-0.2,0-0.3,0c0,0-0.1,0-0.1,0c-0.1,0-0.1,0-0.2,0c-0.1,0-0.2,0.2-0.4,0c0,0-0.1,0-0.1,0c0,0.2,0,0.3-0.1,0.5
							c0,0,0,0,0,0c0-0.1-0.1-0.2-0.1-0.3c0-0.1-0.1-0.2-0.2-0.1c0,0-0.1,0.1-0.1,0.1c-0.3-0.1-0.5,0.1-0.7,0.2
							c-0.2,0-0.3,0.2-0.4,0.3c0,0,0,0,0,0c-0.4,0-0.5,0.3-0.8,0.4c0,0-0.1,0-0.1,0c-0.1,0.2-0.3,0.2-0.4,0.3
							c-0.1,0.1-0.2,0-0.2,0.1c-0.1,0.1-0.2,0.1-0.4,0.2c-0.1,0.1-0.3,0.1-0.4,0.2c0,0-0.1,0-0.1,0c-0.2,0.1-0.5,0.3-0.7,0.5
							c-0.5,0.2-0.9,0.5-1.4,0.7c0,0.1,0,0.2,0,0.4c-0.2-0.2-0.3-0.1-0.4,0c-0.1,0.1-0.2,0.2-0.3,0.3c-0.3,0.2-0.5,0.5-0.8,0.7
							c-0.2,0.2-0.4,0.5-0.7,0.6c-0.3,0.2-0.6,0.4-0.8,0.8c-0.1,0.2-0.3,0.3-0.4,0.4c-0.1,0.2-0.3,0.4-0.4,0.6
							c-0.1,0-0.1,0.1-0.2,0.1c0,0.3-0.3,0.7-0.5,0.6c-0.1,0.3-0.4,0.7-0.6,0.7c0,0.1,0,0.2-0.1,0.4c0,0.1,0,0.2-0.2,0.2
							c-0.1,0-0.3,0.1-0.2,0.3c0,0.1-0.1,0.2-0.1,0.2c-0.1,0.2,0,0.4,0.2,0.5c0,0,0,0,0.1,0c0.3,0.2,0.5,0.5,0.8,0.8
							c0.1,0.1,0.2,0.1,0.3,0.2c0.3,0.2,0.6,0.4,0.9,0.6l0.6,0.4c0.2-0.1,0.3,0.1,0.5,0.2c0.2,0.2,0.4,0.4,0.6,0.6
							c0.2,0.2,0.5,0.4,0.8,0.5c0.2,0.1,0.4,0.2,0.5,0.4c0.2,0.2,0.4,0.5,0.6,0.8c0,0,0,0.1-0.1,0.2c-0.3,0.3-0.6,0.6-1,0.8
							c-0.1,0-0.2,0.1-0.2,0.1c-0.3,0.3-0.7,0.5-1.1,0.7c-0.4,0.2-0.8,0.4-1.2,0.6c-0.4,0.2-0.8,0.3-1.1,0.5
							c-0.4,0.1-0.7,0.2-1.1,0.3c-0.1,0-0.2,0.1-0.3,0.2c-0.4,0.1-0.7,0.2-1.1,0.4c-0.2,0.1-0.4,0.2-0.7,0.3
							c-0.2,0.1-0.3,0.1-0.5,0.1c-0.4,0.2-0.9,0.4-1.3,0.6c0,0-0.1,0.1-0.1,0.1c-0.3,0-0.5,0.2-0.8,0.3c-0.3,0.2-0.6,0.2-0.9,0.4
							c-0.3,0.1-0.6,0.3-1,0.4c-0.2,0.1-0.3,0.1-0.5,0.2c-0.4,0.2-0.7,0.4-1,0.5c-0.5,0.2-0.9,0.4-1.3,0.5c-0.4,0.1-0.7,0.3-1,0.4
							c-0.3,0.1-0.6,0.2-0.8,0.2c0,0-0.1,0-0.1,0c-0.3,0.3-0.7,0.4-1,0.5c-0.1,0.1-0.2,0.1-0.4,0.2c0,0-0.1,0-0.1,0c0,0,0,0,0,0
							c-0.1,0.1-0.3,0.1-0.4,0.2c-0.3,0.1-0.7,0.2-1,0.4c0,0-0.1,0-0.1,0.1c-0.3,0.2-0.6,0.3-0.9,0.3c0,0-0.1,0-0.1,0
							c-0.2,0.3-0.5,0.2-0.8,0.1c-0.2-0.1-0.4-0.2-0.5-0.4c-0.4-0.3-0.5-0.8-0.5-1.2c0-0.4-0.1-0.8-0.2-1.2c-0.1-0.7-0.1-1.3-0.1-2
							c0-0.5,0-1,0-1.5c0-0.1,0-0.2,0.1-0.3c0,0-0.1,0-0.1,0c0,0,0,0,0,0c0.1-0.1,0.1-0.2,0.1-0.3c0-0.4,0.1-0.9,0.1-1.3
							c0-0.2,0.1-0.5,0-0.7c-0.1-0.2,0-0.5,0.1-0.8c0.1-0.4,0.2-0.7,0.2-1.1c0-0.2,0-0.4,0-0.6c0-0.2,0-0.5,0.1-0.7
							c0-0.3,0.1-0.6,0.1-0.8c0-0.2,0-0.4,0.1-0.6c0.1-0.4,0.1-0.8,0.2-1.2c0-0.1,0.1-0.2,0.1-0.3c-0.1-0.3,0-0.6,0-0.9
							c0-0.2,0.1-0.5,0.1-0.7c0-0.1,0-0.2,0-0.2c0-0.1-0.1-0.2,0.1-0.3c0,0,0-0.1,0.1-0.2c0.1-0.4,0.1-0.9,0.3-1.2
							c0-0.1,0-0.1,0.1-0.2c0.1-0.2,0.2-0.5,0.2-0.7c0,0,0-0.1,0.1-0.2c0-0.1,0.1-0.2,0.1-0.3c0-0.3,0.2-0.4,0.4-0.6
							c0.3-0.2,0.6-0.4,1-0.5c0.2,0.2,0.3,0.2,0.5,0.1c0.1,0,0.3,0,0.4,0c0.5,0.3,1,0.4,1.5,0.6l0.1,0c0.4,0.1,0.8,0.3,1.2,0.4
							c0.2,0.1,0.5,0.1,0.8,0.2c0.2,0.1,0.3,0.2,0.4,0.2c0.1-0.1,0.3-0.2,0.4-0.3c0.1,0,0.1-0.1,0.1-0.1c0-0.1,0-0.2,0-0.3l0.1,0
							c0-0.1,0.1-0.1,0.1-0.2c0.1-0.1,0.2-0.2,0.2-0.4c0-0.1,0-0.2,0-0.2c-0.1-0.4-0.1-0.5,0.3-0.6c0.1-0.1,0.2,0,0.3-0.2
							c0-0.2,0.2-0.3,0.4-0.5c0.2-0.2,0.4-0.4,0.6-0.6c0.4-0.4,0.7-0.8,1.2-1c0.1,0,0.1-0.2,0.2-0.2c0.1-0.1,0.2-0.2,0.3-0.3
							c0,0.1,0.1,0.1,0.1,0.1c0.1-0.1,0.2-0.3,0.3-0.3c0.2,0,0.3,0,0.5-0.1c0-0.2,0-0.3,0.3-0.3c0.2,0,0.4-0.1,0.6-0.2
							c0.1-0.1,0.3-0.1,0.4-0.2c0,0,0.1,0,0.1-0.1c0.2-0.2,0.5-0.3,0.8-0.3c0.2,0,0.3-0.2,0.5-0.3c0.1,0,0.1,0,0.2,0l0.7-0.2
							c0.2,0,0.4-0.1,0.6-0.1c0.1,0,0.2,0,0.3,0c0.3-0.1,0.6-0.2,0.9-0.2c0.4-0.1,0.8-0.2,1.2-0.2c0.3,0,0.3,0,0.4,0
							c0.4,0,0.7,0,0.9,0c0.2,0,0.5,0,0.7,0c0.2,0,0.3-0.1,0.5-0.1c0.2,0,0.5,0,0.7,0c0.2,0,0.4,0,0.6,0c0.2,0,0.4-0.1,0.7,0
							c0.4,0,0.8,0,1.2,0.2c0.1,0.1,0.3,0,0.5,0c0.2,0,0.4,0.1,0.5,0.1c0.2,0.1,0.4,0.1,0.6,0.1c0.4,0.1,0.8,0.1,1.2,0.2
							c0.4,0.1,0.8,0.3,1.2,0.4c0.4,0.1,0.7,0.2,1,0.3c0.5,0.1,0.9,0.2,1.3,0.5c0.2,0.1,0.4,0.2,0.7,0.3
							C203.2,256.5,203.4,256.7,203.7,256.8z"/>
					</g>
					<g>
					</g>
				</g>
			</g>
		</g>
	</g>
</g>
</svg>
