<svg xmlns="http://www.w3.org/2000/svg" xmlns:xlink="http://www.w3.org/1999/xlink" width="360" zoomAndPan="magnify" viewBox="0 0 270 337.499995" height="450" preserveAspectRatio="xMidYMid meet" version="1.0"><defs><g/><clipPath id="4a6c11014c"><path d="M 0.199219 0 L 269.800781 0 L 269.800781 337 L 0.199219 337 Z M 0.199219 0 " clip-rule="nonzero"/></clipPath><clipPath id="82efb63c4e"><path d="M 44.292969 77.464844 L 225.527344 77.464844 L 225.527344 259.445312 L 44.292969 259.445312 Z M 44.292969 77.464844 " clip-rule="nonzero"/></clipPath></defs><g clip-path="url(#4a6c11014c)"><path fill="#ffffff" d="M 0.199219 0 L 269.800781 0 L 269.800781 337 L 0.199219 337 Z M 0.199219 0 " fill-opacity="1" fill-rule="nonzero"/><path fill="#8c52ff" d="M 0.199219 0 L 269.800781 0 L 269.800781 337 L 0.199219 337 Z M 0.199219 0 " fill-opacity="1" fill-rule="nonzero"/></g><g clip-path="url(#82efb63c4e)"><path fill="#fff775" d="M 166.070312 217.425781 C 128.867188 217.425781 97.828125 186.367188 97.828125 149.144531 C 97.828125 113.640625 126.089844 83.765625 160.992188 81.097656 C 152.886719 78.730469 144.324219 77.453125 135.460938 77.453125 C 85.222656 77.453125 44.5 118.199219 44.5 168.453125 C 44.5 218.710938 85.222656 259.453125 135.460938 259.453125 C 180.875 259.453125 218.519531 226.140625 225.3125 182.605469 C 213.476562 203.253906 191.179688 217.425781 166.070312 217.425781 " fill-opacity="1" fill-rule="nonzero"/></g><path fill="#ecc680" d="M 68.097656 140.019531 C 68.097656 142.761719 65.867188 145 63.117188 145 C 60.367188 145 58.140625 142.761719 58.140625 140.019531 C 58.140625 137.269531 60.367188 135.03125 63.117188 135.03125 C 65.867188 135.03125 68.097656 137.269531 68.097656 140.019531 " fill-opacity="1" fill-rule="nonzero"/><path fill="#ecc680" d="M 77.070312 122.941406 C 77.070312 125.691406 74.835938 127.921875 72.085938 127.921875 C 69.335938 127.921875 67.105469 125.691406 67.105469 122.941406 C 67.105469 120.1875 69.335938 117.960938 72.085938 117.960938 C 74.835938 117.960938 77.070312 120.1875 77.070312 122.941406 " fill-opacity="1" fill-rule="nonzero"/><path fill="#ecc680" d="M 87.027344 150.4375 C 87.027344 153.199219 84.800781 155.429688 82.050781 155.429688 C 79.300781 155.429688 77.070312 153.199219 77.070312 150.4375 C 77.070312 147.695312 79.300781 145.46875 82.050781 145.46875 C 84.800781 145.46875 87.027344 147.695312 87.027344 150.4375 " fill-opacity="1" fill-rule="nonzero"/><g fill="#020202" fill-opacity="1"><g transform="translate(109.473361, 325.898624)"><g><path d="M 2.515625 0 L 2.515625 -19.953125 L 6.75 -19.953125 L 6.75 -3.5 L 14.84375 -3.5 L 14.84375 0 Z M 2.515625 0 "/></g></g></g><g fill="#020202" fill-opacity="1"><g transform="translate(125.266122, 325.898624)"><g><path d="M 13 0 L 12.4375 -1.953125 L 12.21875 -1.953125 C 11.769531 -1.242188 11.132812 -0.695312 10.3125 -0.3125 C 9.5 0.0703125 8.566406 0.265625 7.515625 0.265625 C 5.722656 0.265625 4.375 -0.210938 3.46875 -1.171875 C 2.5625 -2.128906 2.109375 -3.507812 2.109375 -5.3125 L 2.109375 -15.265625 L 6.265625 -15.265625 L 6.265625 -6.34375 C 6.265625 -5.238281 6.457031 -4.410156 6.84375 -3.859375 C 7.238281 -3.316406 7.863281 -3.046875 8.71875 -3.046875 C 9.882812 -3.046875 10.726562 -3.429688 11.25 -4.203125 C 11.769531 -4.984375 12.03125 -6.273438 12.03125 -8.078125 L 12.03125 -15.265625 L 16.1875 -15.265625 L 16.1875 0 Z M 13 0 "/></g></g></g><g fill="#020202" fill-opacity="1"><g transform="translate(143.638678, 325.898624)"><g><path d="M 11.875 0 L 11.0625 -2.078125 L 10.953125 -2.078125 C 10.253906 -1.191406 9.535156 -0.578125 8.796875 -0.234375 C 8.054688 0.0976562 7.085938 0.265625 5.890625 0.265625 C 4.429688 0.265625 3.28125 -0.148438 2.4375 -0.984375 C 1.59375 -1.816406 1.171875 -3.007812 1.171875 -4.5625 C 1.171875 -6.175781 1.738281 -7.367188 2.875 -8.140625 C 4.007812 -8.910156 5.71875 -9.335938 8 -9.421875 L 10.640625 -9.5 L 10.640625 -10.171875 C 10.640625 -11.710938 9.847656 -12.484375 8.265625 -12.484375 C 7.046875 -12.484375 5.613281 -12.117188 3.96875 -11.390625 L 2.59375 -14.1875 C 4.351562 -15.113281 6.300781 -15.578125 8.4375 -15.578125 C 10.476562 -15.578125 12.046875 -15.128906 13.140625 -14.234375 C 14.234375 -13.335938 14.78125 -11.984375 14.78125 -10.171875 L 14.78125 0 Z M 10.640625 -7.0625 L 9.03125 -7.015625 C 7.820312 -6.984375 6.921875 -6.765625 6.328125 -6.359375 C 5.742188 -5.960938 5.453125 -5.351562 5.453125 -4.53125 C 5.453125 -3.351562 6.125 -2.765625 7.46875 -2.765625 C 8.425781 -2.765625 9.191406 -3.039062 9.765625 -3.59375 C 10.347656 -4.15625 10.640625 -4.894531 10.640625 -5.8125 Z M 10.640625 -7.0625 "/></g></g></g><g fill="#020202" fill-opacity="1"><g transform="translate(95.3205, 31.769057)"><g><path d="M 10.953125 0 L 6.15625 -15.65625 L 6.03125 -15.65625 C 6.207031 -12.46875 6.296875 -10.34375 6.296875 -9.28125 L 6.296875 0 L 2.515625 0 L 2.515625 -19.953125 L 8.265625 -19.953125 L 13 -4.6875 L 13.078125 -4.6875 L 18.078125 -19.953125 L 23.84375 -19.953125 L 23.84375 0 L 19.90625 0 L 19.90625 -9.4375 C 19.90625 -9.882812 19.910156 -10.398438 19.921875 -10.984375 C 19.929688 -11.566406 19.992188 -13.113281 20.109375 -15.625 L 19.984375 -15.625 L 14.84375 0 Z M 10.953125 0 "/></g></g></g><g fill="#020202" fill-opacity="1"><g transform="translate(121.678164, 31.769057)"><g><path d="M 5.5 -7.65625 C 5.5 -6.144531 5.742188 -5.003906 6.234375 -4.234375 C 6.734375 -3.460938 7.546875 -3.078125 8.671875 -3.078125 C 9.773438 -3.078125 10.570312 -3.457031 11.0625 -4.21875 C 11.550781 -4.988281 11.796875 -6.132812 11.796875 -7.65625 C 11.796875 -9.164062 11.546875 -10.296875 11.046875 -11.046875 C 10.554688 -11.804688 9.753906 -12.1875 8.640625 -12.1875 C 7.523438 -12.1875 6.722656 -11.8125 6.234375 -11.0625 C 5.742188 -10.3125 5.5 -9.175781 5.5 -7.65625 Z M 16.046875 -7.65625 C 16.046875 -5.175781 15.390625 -3.234375 14.078125 -1.828125 C 12.773438 -0.429688 10.953125 0.265625 8.609375 0.265625 C 7.148438 0.265625 5.859375 -0.0507812 4.734375 -0.6875 C 3.617188 -1.332031 2.757812 -2.253906 2.15625 -3.453125 C 1.550781 -4.648438 1.25 -6.050781 1.25 -7.65625 C 1.25 -10.144531 1.898438 -12.082031 3.203125 -13.46875 C 4.503906 -14.851562 6.332031 -15.546875 8.6875 -15.546875 C 10.15625 -15.546875 11.445312 -15.226562 12.5625 -14.59375 C 13.6875 -13.957031 14.546875 -13.039062 15.140625 -11.84375 C 15.742188 -10.65625 16.046875 -9.257812 16.046875 -7.65625 Z M 16.046875 -7.65625 "/></g></g></g><g fill="#020202" fill-opacity="1"><g transform="translate(138.986041, 31.769057)"><g><path d="M 5.5 -7.65625 C 5.5 -6.144531 5.742188 -5.003906 6.234375 -4.234375 C 6.734375 -3.460938 7.546875 -3.078125 8.671875 -3.078125 C 9.773438 -3.078125 10.570312 -3.457031 11.0625 -4.21875 C 11.550781 -4.988281 11.796875 -6.132812 11.796875 -7.65625 C 11.796875 -9.164062 11.546875 -10.296875 11.046875 -11.046875 C 10.554688 -11.804688 9.753906 -12.1875 8.640625 -12.1875 C 7.523438 -12.1875 6.722656 -11.8125 6.234375 -11.0625 C 5.742188 -10.3125 5.5 -9.175781 5.5 -7.65625 Z M 16.046875 -7.65625 C 16.046875 -5.175781 15.390625 -3.234375 14.078125 -1.828125 C 12.773438 -0.429688 10.953125 0.265625 8.609375 0.265625 C 7.148438 0.265625 5.859375 -0.0507812 4.734375 -0.6875 C 3.617188 -1.332031 2.757812 -2.253906 2.15625 -3.453125 C 1.550781 -4.648438 1.25 -6.050781 1.25 -7.65625 C 1.25 -10.144531 1.898438 -12.082031 3.203125 -13.46875 C 4.503906 -14.851562 6.332031 -15.546875 8.6875 -15.546875 C 10.15625 -15.546875 11.445312 -15.226562 12.5625 -14.59375 C 13.6875 -13.957031 14.546875 -13.039062 15.140625 -11.84375 C 15.742188 -10.65625 16.046875 -9.257812 16.046875 -7.65625 Z M 16.046875 -7.65625 "/></g></g></g><g fill="#020202" fill-opacity="1"><g transform="translate(156.293918, 31.769057)"><g><path d="M 16.265625 0 L 12.109375 0 L 12.109375 -8.90625 C 12.109375 -10.007812 11.910156 -10.835938 11.515625 -11.390625 C 11.128906 -11.941406 10.507812 -12.21875 9.65625 -12.21875 C 8.488281 -12.21875 7.644531 -11.828125 7.125 -11.046875 C 6.601562 -10.265625 6.34375 -8.972656 6.34375 -7.171875 L 6.34375 0 L 2.1875 0 L 2.1875 -15.265625 L 5.359375 -15.265625 L 5.921875 -13.3125 L 6.15625 -13.3125 C 6.625 -14.039062 7.265625 -14.59375 8.078125 -14.96875 C 8.890625 -15.351562 9.8125 -15.546875 10.84375 -15.546875 C 12.625 -15.546875 13.972656 -15.066406 14.890625 -14.109375 C 15.804688 -13.148438 16.265625 -11.765625 16.265625 -9.953125 Z M 16.265625 0 "/></g></g></g></svg>