<svg xmlns="http://www.w3.org/2000/svg" xmlns:xlink="http://www.w3.org/1999/xlink" width="360" zoomAndPan="magnify" viewBox="0 0 270 337.499995" height="450" preserveAspectRatio="xMidYMid meet" version="1.0"><defs><g/><clipPath id="6b2ab40dd4"><path d="M 0.199219 0 L 269.800781 0 L 269.800781 337 L 0.199219 337 Z M 0.199219 0 " clip-rule="nonzero"/></clipPath><clipPath id="c0914b77cb"><path d="M 126 223 L 163 223 L 163 267.972656 L 126 267.972656 Z M 126 223 " clip-rule="nonzero"/></clipPath><clipPath id="4d57471b7d"><path d="M 128.902344 215.027344 L 167.792969 215.027344 L 167.792969 267.972656 L 128.902344 267.972656 Z M 128.902344 215.027344 " clip-rule="nonzero"/></clipPath><clipPath id="a208b2c275"><path d="M 199.359375 142.121094 L 238.792969 142.121094 L 238.792969 191.710938 L 199.359375 191.710938 Z M 199.359375 142.121094 " clip-rule="nonzero"/></clipPath></defs><g clip-path="url(#6b2ab40dd4)"><path fill="#ffffff" d="M 0.199219 0 L 269.800781 0 L 269.800781 337 L 0.199219 337 Z M 0.199219 0 " fill-opacity="1" fill-rule="nonzero"/><path fill="#8c52ff" d="M 0.199219 0 L 269.800781 0 L 269.800781 337 L 0.199219 337 Z M 0.199219 0 " fill-opacity="1" fill-rule="nonzero"/></g><path fill="#c14d4d" d="M 114.132812 188.382812 C 109.992188 221.570312 101.890625 239.636719 107.742188 243.761719 C 109.527344 245.019531 112.335938 241.28125 112.335938 241.28125 C 112.335938 241.28125 113.863281 246.117188 116.953125 242.816406 C 120.617188 238.902344 120.320312 229.152344 130.164062 206.734375 C 142.492188 178.675781 117.949219 157.796875 114.132812 188.382812 " fill-opacity="1" fill-rule="nonzero"/><path fill="#352a25" d="M 145.855469 206.285156 C 145.285156 206.070312 144.566406 206.105469 143.875 206.191406 C 144.242188 206.992188 142.039062 208.097656 141.589844 208.5 C 140.710938 209.296875 139.902344 210.714844 140.046875 211.941406 C 140.160156 212.90625 140.75 214.542969 141.964844 214.554688 C 143.429688 214.570312 143.074219 212.761719 143.125 211.796875 C 143.222656 210.003906 144.480469 208.191406 146.207031 207.515625 C 146.492188 207.402344 146.769531 207.332031 147.046875 207.296875 C 146.683594 206.875 146.328125 206.46875 145.855469 206.285156 " fill-opacity="1" fill-rule="nonzero"/><path fill="#352a25" d="M 124.757812 210.082031 C 124.234375 209.472656 123.375 209.3125 122.925781 208.730469 C 122.574219 209.410156 122.1875 210.066406 121.773438 210.710938 C 122.457031 210.808594 123.058594 211.347656 123.417969 212.359375 C 123.929688 213.800781 123.542969 215.164062 123.652344 216.648438 C 123.722656 217.617188 124.246094 218.664062 125.113281 217.953125 C 125.613281 217.546875 126.039062 216.199219 126.164062 215.570312 C 126.535156 213.695312 126.007812 211.542969 124.757812 210.082031 " fill-opacity="1" fill-rule="nonzero"/><path fill="#85aa11" d="M 48.761719 223.207031 C 47.296875 221.769531 42.917969 219.234375 40.871094 214.542969 C 38.820312 209.847656 37.542969 200.683594 43.898438 194.402344 C 50.257812 188.121094 58.6875 184.203125 63.8125 180.804688 C 68.933594 177.40625 69.652344 175.921875 69.851562 174.824219 C 70.046875 173.726562 70.871094 177.652344 70.734375 179.074219 C 70.59375 180.496094 55.453125 210.554688 55.027344 211.359375 C 54.601562 212.160156 51 217.859375 50.636719 218.152344 C 50.269531 218.445312 48.761719 223.207031 48.761719 223.207031 " fill-opacity="1" fill-rule="nonzero"/><path fill="#a3d133" d="M 52.207031 234.714844 C 51.855469 235.570312 50.640625 233.082031 49.726562 230.136719 C 48.816406 227.191406 47.832031 223.171875 49.355469 216.601562 C 50.878906 210.035156 58.539062 197.085938 61.945312 191.78125 C 65.347656 186.476562 70.386719 178.304688 69.9375 175.636719 C 69.484375 172.96875 70.9375 175.242188 71.207031 177.386719 C 71.480469 179.53125 73.804688 190.402344 70.039062 199.917969 C 66.273438 209.433594 64.414062 209.21875 57.832031 212.878906 C 51.25 216.539062 49.394531 220.570312 49.453125 223.171875 C 49.507812 225.769531 50.632812 229.234375 51.511719 230.667969 C 52.390625 232.097656 53.097656 232.546875 52.207031 234.714844 " fill-opacity="1" fill-rule="nonzero"/><g clip-path="url(#c0914b77cb)"><path fill="#a3d133" d="M 139 224.207031 C 138.625 224.523438 138.242188 224.5 137.628906 224.628906 C 136.230469 224.917969 134.828125 224.988281 133.402344 225.007812 C 129.910156 225.054688 125.214844 228.972656 126.71875 235.5 C 128.222656 242.027344 134.363281 249.957031 140.15625 253.28125 C 145.949219 256.609375 148.933594 257.148438 152.445312 258.1875 C 155.957031 259.226562 160.027344 263.308594 160.664062 265.152344 C 161.296875 266.992188 161.597656 267.621094 161.804688 267.757812 C 162.011719 267.890625 160.863281 263.507812 162.011719 259.875 C 163.160156 256.238281 161.859375 244.152344 161.355469 241.976562 C 160.855469 239.800781 159.148438 236.292969 158.023438 234.386719 C 156.898438 232.484375 147.585938 223.324219 146.527344 223.308594 C 145.1875 223.289062 143.929688 223.320312 142.671875 223.53125 C 141.71875 223.691406 141.109375 223.046875 140.1875 223.027344 C 139.625 223.015625 139.695312 223.300781 139.355469 223.796875 C 139.234375 223.976562 139.117188 224.105469 139 224.207031 " fill-opacity="1" fill-rule="nonzero"/></g><g clip-path="url(#4d57471b7d)"><path fill="#85aa11" d="M 142.523438 222.480469 C 146.246094 221.074219 149.886719 218.90625 156.761719 222.585938 C 163.636719 226.261719 167.34375 230.121094 167.5 235.675781 C 167.660156 241.226562 168.160156 254.820312 165.894531 258.441406 C 163.628906 262.0625 162.105469 265.199219 162.070312 267.265625 C 162.035156 269.328125 161.355469 266.515625 161.136719 263.738281 C 160.917969 260.960938 160.4375 251.996094 157.875 244.59375 C 155.3125 237.191406 151.890625 230.515625 147.605469 228.128906 C 144.320312 226.296875 141.253906 224.488281 138.503906 221.894531 C 136.464844 219.972656 134.25 217.847656 131.507812 216.964844 C 130.796875 216.738281 129.109375 216.773438 128.921875 215.8125 C 128.707031 214.695312 130.226562 215.121094 130.789062 215.308594 C 132.503906 215.878906 134.226562 216.9375 135.664062 218.027344 C 136.976562 219.023438 138.042969 220.175781 139.148438 221.382812 C 140.125 222.453125 141.113281 223.011719 142.523438 222.480469 " fill-opacity="1" fill-rule="nonzero"/></g><path fill="#85aa11" d="M 224.9375 255.691406 C 225.246094 256.589844 228.582031 252.007812 230.253906 248.359375 C 231.925781 244.714844 235.148438 241.507812 235.742188 232.300781 C 236.335938 223.09375 233.300781 217.414062 228.242188 213.398438 C 223.1875 209.386719 207.832031 210.972656 208.238281 211.367188 C 208.644531 211.761719 224.1875 235.367188 225.484375 247.367188 C 225.972656 251.902344 224.9375 255.691406 224.9375 255.691406 " fill-opacity="1" fill-rule="nonzero"/><path fill="#a3d133" d="M 224.9375 255.691406 C 225.476562 255.78125 226.75 253.570312 226.738281 249.53125 C 226.726562 245.492188 227.09375 237.242188 230.464844 228.761719 C 233.832031 220.285156 231.148438 210.386719 228.167969 208.96875 C 225.191406 207.554688 219.085938 207.265625 214.589844 207.574219 C 210.09375 207.882812 202.476562 207.394531 200.738281 207.003906 C 199 206.613281 193.902344 203.378906 191.96875 202.429688 C 190.03125 201.484375 189.269531 202.601562 191.976562 203.804688 C 194.683594 205.011719 197.738281 205.980469 201.515625 208.886719 C 205.289062 211.792969 214.175781 219.269531 216.5625 225.894531 C 218.953125 232.519531 223.660156 238.644531 225.15625 248.1875 C 225.945312 253.230469 224.609375 255.640625 224.9375 255.691406 " fill-opacity="1" fill-rule="nonzero"/><path fill="#85aa11" d="M 205.148438 178.582031 C 206.582031 172.058594 206.632812 172.921875 205.84375 170.300781 C 205.058594 167.679688 205.828125 164.757812 200.292969 163.28125 C 194.757812 161.808594 194.558594 157.515625 192.835938 154.40625 C 191.113281 151.296875 191.226562 148.886719 188.511719 147.5625 C 185.796875 146.234375 187.945312 146.296875 190.242188 147.320312 C 192.542969 148.34375 198.832031 149.957031 202.300781 154.570312 C 205.773438 159.179688 203.304688 162.910156 204.414062 164.121094 C 205.523438 165.328125 206.03125 168.351562 206.242188 168.632812 C 206.457031 168.910156 207.679688 162.335938 205.6875 156.949219 C 203.695312 151.566406 202.921875 142.921875 205.4375 138.4375 C 207.957031 133.953125 208.839844 132.070312 209.261719 132.476562 C 209.683594 132.882812 208.046875 135.878906 209.097656 140.878906 C 210.152344 145.882812 208.285156 151.421875 207.859375 154.464844 C 207.4375 157.507812 207.917969 164.347656 207.605469 168.339844 C 207.292969 172.332031 206.984375 174.675781 206.121094 177.351562 C 205.261719 180.023438 204.71875 180.542969 205.148438 178.582031 " fill-opacity="1" fill-rule="nonzero"/><g clip-path="url(#a208b2c275)"><path fill="#a3d133" d="M 238.792969 142.222656 C 238.816406 141.59375 235.566406 144.046875 232.847656 146.957031 C 230.125 149.867188 225.996094 151.792969 220.523438 154.691406 C 215.050781 157.59375 210.082031 160.101562 208.125 168.835938 C 206.167969 177.570312 204.058594 180.386719 202.445312 182.980469 C 200.828125 185.570312 198.527344 190.285156 199.820312 191.433594 C 201.113281 192.582031 199.832031 189.589844 201.90625 185.652344 C 203.976562 181.710938 205.703125 178.738281 207.738281 176.046875 C 209.773438 173.351562 224.429688 165.71875 229.140625 160.257812 C 233.851562 154.800781 238.753906 143.351562 238.792969 142.222656 " fill-opacity="1" fill-rule="nonzero"/></g><path fill="#754c24" d="M 35.980469 241.523438 C 31.414062 241.410156 49.460938 233.175781 58.550781 224.890625 C 67.640625 216.601562 79.285156 196.410156 82.542969 191.144531 C 85.804688 185.882812 86.214844 187.480469 83.496094 192.722656 C 80.777344 197.964844 76.398438 209.679688 72.164062 215.199219 C 67.933594 220.71875 73.027344 219.535156 80.898438 217.53125 C 88.769531 215.527344 131.542969 210.835938 149.625 208.34375 C 167.707031 205.851562 192.566406 195.050781 199.042969 190.769531 C 205.515625 186.488281 216.765625 176.660156 218.101562 177.96875 C 219.433594 179.277344 210.664062 185.875 203.9375 190.46875 C 197.210938 195.058594 194.191406 196.558594 196.972656 197.332031 C 199.75 198.109375 213.253906 196.882812 222.582031 196.910156 C 231.90625 196.941406 237.753906 198.527344 237.910156 199.960938 C 238.0625 201.394531 228.054688 198.066406 217.277344 199.960938 C 206.503906 201.855469 190.644531 201.804688 178.484375 205.976562 C 166.320312 210.152344 159.945312 213.703125 134.054688 216.539062 C 108.164062 219.375 89.691406 220.167969 74.125 225.449219 C 58.554688 230.734375 47.679688 241.8125 35.980469 241.523438 " fill-opacity="1" fill-rule="nonzero"/><path fill="#352a25" d="M 160.253906 210.917969 C 159.753906 208.703125 158.164062 206.886719 156.109375 205.976562 C 154.667969 205.335938 153.023438 205.15625 151.546875 204.664062 C 151.167969 204.539062 150.777344 204.40625 150.378906 204.273438 C 149.25 203.90625 148.066406 203.566406 146.921875 203.496094 C 145.6875 203.421875 144.449219 203.742188 143.226562 203.859375 C 140.726562 204.09375 142.515625 201.960938 143.03125 200.597656 C 143.265625 199.980469 144.390625 197.101562 142.71875 197.578125 C 141.90625 197.808594 140.972656 199.625 140.5625 200.316406 C 139.898438 201.433594 139.328125 202.578125 138.625 203.667969 C 138.035156 204.578125 137.707031 205.328125 138.714844 206.136719 C 139.660156 206.898438 141.023438 206.28125 142.042969 206.078125 C 142.429688 206.003906 143.527344 205.703125 143.820312 206.101562 C 144.203125 206.617188 143.371094 207.28125 142.605469 207.804688 C 143.460938 207.804688 144.324219 207.917969 145.136719 208.125 C 145.464844 207.875 145.820312 207.664062 146.207031 207.515625 C 149.824219 206.09375 152.683594 211.027344 152.34375 213.957031 C 152.246094 214.800781 151.085938 217.664062 152.78125 217.527344 C 156.046875 217.261719 155.152344 210.996094 153.65625 209.429688 C 153.152344 208.902344 152.464844 208.453125 152.335938 207.734375 C 152.324219 207.648438 152.316406 207.558594 152.347656 207.476562 C 152.566406 206.949219 155.4375 208.5625 155.75 208.753906 C 156.742188 209.355469 157.574219 210.277344 157.859375 211.425781 C 158.179688 212.726562 157.523438 214.105469 158.03125 215.375 C 158.601562 216.804688 160.050781 215.292969 160.394531 214.351562 C 160.792969 213.265625 160.496094 212.003906 160.253906 210.917969 " fill-opacity="1" fill-rule="nonzero"/><path fill="#352a25" d="M 119.675781 211.671875 C 120.53125 210.765625 121.480469 210.484375 122.25 210.859375 C 122.707031 210.308594 123.234375 209.824219 123.824219 209.402344 C 123.292969 209.105469 122.777344 208.820312 122.660156 208.117188 C 122.636719 207.976562 122.632812 207.84375 122.644531 207.71875 C 122.824219 205.6875 126.109375 206.128906 125.078125 203.914062 C 124.539062 202.746094 124.15625 201.460938 123.523438 200.320312 C 123.09375 199.546875 122.296875 198.1875 121.347656 197.953125 C 120.507812 197.742188 120.058594 198.359375 120.058594 199.09375 C 120.058594 200.542969 120.914062 201.988281 121.386719 203.3125 C 122.71875 207.074219 118.136719 207.25 115.980469 208.226562 C 114.03125 209.109375 112.46875 210.46875 111.394531 212.328125 C 110.265625 214.28125 109.628906 217.1875 110.390625 219.375 C 110.71875 220.320312 112.953125 223.234375 113.882812 221.46875 C 114.421875 220.449219 113.222656 219.265625 112.988281 218.304688 C 112.632812 216.855469 113.097656 215.246094 113.605469 213.894531 C 113.8125 213.34375 114.441406 212.097656 115.109375 212.015625 C 116.703125 211.808594 115.566406 214.125 115.464844 214.789062 C 115.246094 216.238281 115.527344 217.734375 116.128906 219.0625 C 116.570312 220.035156 117.902344 221.484375 119.09375 221.269531 C 121.460938 220.84375 118.875 218.761719 118.496094 217.886719 C 117.613281 215.863281 118.167969 213.269531 119.675781 211.671875 " fill-opacity="1" fill-rule="nonzero"/><path fill="#c14d4d" d="M 106.546875 115.535156 C 100.371094 113.238281 86.558594 125.316406 87.804688 145.332031 C 89.054688 165.351562 106.121094 196.769531 111.382812 194.550781 C 116.648438 192.335938 116.460938 119.222656 106.546875 115.535156 " fill-opacity="1" fill-rule="nonzero"/><path fill="#c14d4d" d="M 152.382812 195.476562 C 148.152344 192.636719 162.707031 116.957031 171.851562 122.082031 C 181 127.210938 187.957031 143.503906 181.074219 160.898438 C 173.082031 181.097656 156.300781 198.109375 152.382812 195.476562 " fill-opacity="1" fill-rule="nonzero"/><path fill="#ff8d8d" d="M 160.796875 84.648438 C 159.777344 81.566406 160.410156 76.164062 158.503906 74.328125 C 156.597656 72.492188 152.875 68.765625 144.359375 69.0625 C 135.839844 69.355469 131.710938 72.015625 131.710938 72.015625 C 131.710938 72.015625 133.949219 72.28125 135.453125 72.410156 C 135.453125 72.410156 127.777344 72.699219 121.238281 78.296875 C 114.695312 83.894531 110.21875 95.742188 109.53125 102.414062 C 108.847656 109.085938 107.484375 110.082031 103.5 120.226562 C 99.515625 130.371094 96.410156 153.46875 101.800781 166.078125 L 102.378906 162.332031 C 102.378906 162.332031 102.367188 169.386719 106.773438 177.96875 C 111.183594 186.550781 117.371094 201.257812 124.476562 203.90625 C 131.582031 206.554688 146.386719 202.433594 158.703125 187.796875 C 171.023438 173.164062 177.554688 161.308594 176.863281 140.828125 C 176.175781 120.347656 168.199219 113.382812 167.007812 108.472656 C 165.8125 103.558594 167.648438 96.238281 165.960938 93.414062 C 164.273438 90.589844 161.503906 86.796875 160.796875 84.648438 " fill-opacity="1" fill-rule="nonzero"/><path fill="#352a25" d="M 133.597656 91.320312 C 133.597656 90.382812 134.453125 88.539062 135.941406 88.085938 C 137.429688 87.632812 140.378906 89.789062 140.496094 90.476562 C 140.613281 91.164062 138.363281 93.058594 137.046875 93.113281 C 135.730469 93.164062 133.597656 92.296875 133.597656 91.320312 " fill-opacity="1" fill-rule="nonzero"/><path fill="#fccc00" d="M 152.464844 88.894531 C 152.886719 89.6875 156.113281 89.511719 158.703125 90.261719 C 161.292969 91.011719 161.601562 91.832031 162.886719 90.992188 C 164.167969 90.152344 169.515625 84.835938 171.023438 84.355469 C 172.535156 83.875 173.132812 83.457031 171.125 83.203125 C 169.117188 82.953125 163.046875 83.683594 160.140625 85.480469 C 157.238281 87.273438 151.914062 87.851562 152.464844 88.894531 " fill-opacity="1" fill-rule="nonzero"/><path fill="#ffe83e" d="M 151.492188 88.894531 C 151.058594 88.21875 154.210938 86.640625 156.109375 84.253906 C 158.007812 81.867188 158.015625 80.054688 160.140625 80.003906 C 162.269531 79.953125 171.042969 81.957031 172.683594 83.15625 C 174.328125 84.355469 172.375 83.652344 170.667969 83.777344 C 168.472656 83.933594 166.007812 84.21875 162.886719 85.984375 C 159.335938 87.996094 156.664062 88.246094 154.671875 88.777344 C 152.679688 89.308594 151.625 89.109375 151.492188 88.894531 " fill-opacity="1" fill-rule="nonzero"/><path fill="#352a25" d="M 157.957031 84.597656 C 157.546875 84.5625 158.054688 82.308594 158.828125 82.460938 C 159.597656 82.613281 158.367188 84.636719 157.957031 84.597656 " fill-opacity="1" fill-rule="nonzero"/><path fill="#ffbdae" d="M 165.960938 115.128906 C 162.890625 111.136719 158.632812 111.96875 152.828125 112.984375 C 147.027344 114 138.089844 107.351562 129.78125 107.347656 C 121.472656 107.34375 112.933594 109.085938 108.375 115.128906 C 103.816406 121.167969 104.214844 130.695312 104.785156 134.007812 C 104.785156 134.007812 105.132812 131.527344 106.015625 130.289062 C 106.015625 130.289062 104.089844 144.089844 110.710938 157.472656 C 117.328125 170.855469 122 174.46875 128.96875 180.585938 C 135.941406 186.703125 134.652344 194.339844 143.742188 190.769531 C 152.832031 187.199219 165.722656 181.226562 171.535156 160.40625 C 177.351562 139.589844 171.511719 122.339844 165.960938 115.128906 " fill-opacity="1" fill-rule="nonzero"/><path fill="#ffffff" d="M 136.789062 90.042969 C 136.789062 90.621094 136.320312 91.085938 135.742188 91.085938 C 135.167969 91.085938 134.699219 90.621094 134.699219 90.042969 C 134.699219 89.46875 135.167969 89.003906 135.742188 89.003906 C 136.320312 89.003906 136.789062 89.46875 136.789062 90.042969 " fill-opacity="1" fill-rule="nonzero"/><g fill="#020202" fill-opacity="1"><g transform="translate(80.436301, 325.898624)"><g><path d="M 6.75 -10.5625 L 8.140625 -10.5625 C 9.441406 -10.5625 10.414062 -10.816406 11.0625 -11.328125 C 11.707031 -11.847656 12.03125 -12.597656 12.03125 -13.578125 C 12.03125 -14.566406 11.757812 -15.296875 11.21875 -15.765625 C 10.675781 -16.242188 9.828125 -16.484375 8.671875 -16.484375 L 6.75 -16.484375 Z M 16.296875 -13.734375 C 16.296875 -11.585938 15.625 -9.941406 14.28125 -8.796875 C 12.9375 -7.660156 11.03125 -7.09375 8.5625 -7.09375 L 6.75 -7.09375 L 6.75 0 L 2.515625 0 L 2.515625 -19.953125 L 8.890625 -19.953125 C 11.304688 -19.953125 13.144531 -19.429688 14.40625 -18.390625 C 15.664062 -17.347656 16.296875 -15.796875 16.296875 -13.734375 Z M 16.296875 -13.734375 "/></g></g></g><g fill="#020202" fill-opacity="1"><g transform="translate(97.989873, 325.898624)"><g><path d="M 11.875 0 L 11.0625 -2.078125 L 10.953125 -2.078125 C 10.253906 -1.191406 9.535156 -0.578125 8.796875 -0.234375 C 8.054688 0.0976562 7.085938 0.265625 5.890625 0.265625 C 4.429688 0.265625 3.28125 -0.148438 2.4375 -0.984375 C 1.59375 -1.816406 1.171875 -3.007812 1.171875 -4.5625 C 1.171875 -6.175781 1.738281 -7.367188 2.875 -8.140625 C 4.007812 -8.910156 5.71875 -9.335938 8 -9.421875 L 10.640625 -9.5 L 10.640625 -10.171875 C 10.640625 -11.710938 9.847656 -12.484375 8.265625 -12.484375 C 7.046875 -12.484375 5.613281 -12.117188 3.96875 -11.390625 L 2.59375 -14.1875 C 4.351562 -15.113281 6.300781 -15.578125 8.4375 -15.578125 C 10.476562 -15.578125 12.046875 -15.128906 13.140625 -14.234375 C 14.234375 -13.335938 14.78125 -11.984375 14.78125 -10.171875 L 14.78125 0 Z M 10.640625 -7.0625 L 9.03125 -7.015625 C 7.820312 -6.984375 6.921875 -6.765625 6.328125 -6.359375 C 5.742188 -5.960938 5.453125 -5.351562 5.453125 -4.53125 C 5.453125 -3.351562 6.125 -2.765625 7.46875 -2.765625 C 8.425781 -2.765625 9.191406 -3.039062 9.765625 -3.59375 C 10.347656 -4.15625 10.640625 -4.894531 10.640625 -5.8125 Z M 10.640625 -7.0625 "/></g></g></g><g fill="#020202" fill-opacity="1"><g transform="translate(114.874613, 325.898624)"><g><path d="M 12.828125 -4.53125 C 12.828125 -2.96875 12.28125 -1.773438 11.1875 -0.953125 C 10.101562 -0.140625 8.476562 0.265625 6.3125 0.265625 C 5.207031 0.265625 4.265625 0.191406 3.484375 0.046875 C 2.703125 -0.0976562 1.96875 -0.316406 1.28125 -0.609375 L 1.28125 -4.046875 C 2.050781 -3.679688 2.921875 -3.375 3.890625 -3.125 C 4.859375 -2.882812 5.710938 -2.765625 6.453125 -2.765625 C 7.960938 -2.765625 8.71875 -3.203125 8.71875 -4.078125 C 8.71875 -4.410156 8.617188 -4.675781 8.421875 -4.875 C 8.222656 -5.082031 7.875 -5.316406 7.375 -5.578125 C 6.882812 -5.835938 6.234375 -6.140625 5.421875 -6.484375 C 4.242188 -6.972656 3.378906 -7.425781 2.828125 -7.84375 C 2.273438 -8.257812 1.875 -8.738281 1.625 -9.28125 C 1.375 -9.820312 1.25 -10.488281 1.25 -11.28125 C 1.25 -12.644531 1.773438 -13.695312 2.828125 -14.4375 C 3.878906 -15.175781 5.367188 -15.546875 7.296875 -15.546875 C 9.140625 -15.546875 10.929688 -15.144531 12.671875 -14.34375 L 11.40625 -11.34375 C 10.644531 -11.664062 9.929688 -11.929688 9.265625 -12.140625 C 8.597656 -12.359375 7.921875 -12.46875 7.234375 -12.46875 C 6.003906 -12.46875 5.390625 -12.132812 5.390625 -11.46875 C 5.390625 -11.09375 5.585938 -10.769531 5.984375 -10.5 C 6.378906 -10.226562 7.242188 -9.820312 8.578125 -9.28125 C 9.773438 -8.800781 10.648438 -8.347656 11.203125 -7.921875 C 11.753906 -7.503906 12.160156 -7.023438 12.421875 -6.484375 C 12.691406 -5.941406 12.828125 -5.289062 12.828125 -4.53125 Z M 12.828125 -4.53125 "/></g></g></g><g fill="#020202" fill-opacity="1"><g transform="translate(128.770054, 325.898624)"><g><path d="M 12.828125 -4.53125 C 12.828125 -2.96875 12.28125 -1.773438 11.1875 -0.953125 C 10.101562 -0.140625 8.476562 0.265625 6.3125 0.265625 C 5.207031 0.265625 4.265625 0.191406 3.484375 0.046875 C 2.703125 -0.0976562 1.96875 -0.316406 1.28125 -0.609375 L 1.28125 -4.046875 C 2.050781 -3.679688 2.921875 -3.375 3.890625 -3.125 C 4.859375 -2.882812 5.710938 -2.765625 6.453125 -2.765625 C 7.960938 -2.765625 8.71875 -3.203125 8.71875 -4.078125 C 8.71875 -4.410156 8.617188 -4.675781 8.421875 -4.875 C 8.222656 -5.082031 7.875 -5.316406 7.375 -5.578125 C 6.882812 -5.835938 6.234375 -6.140625 5.421875 -6.484375 C 4.242188 -6.972656 3.378906 -7.425781 2.828125 -7.84375 C 2.273438 -8.257812 1.875 -8.738281 1.625 -9.28125 C 1.375 -9.820312 1.25 -10.488281 1.25 -11.28125 C 1.25 -12.644531 1.773438 -13.695312 2.828125 -14.4375 C 3.878906 -15.175781 5.367188 -15.546875 7.296875 -15.546875 C 9.140625 -15.546875 10.929688 -15.144531 12.671875 -14.34375 L 11.40625 -11.34375 C 10.644531 -11.664062 9.929688 -11.929688 9.265625 -12.140625 C 8.597656 -12.359375 7.921875 -12.46875 7.234375 -12.46875 C 6.003906 -12.46875 5.390625 -12.132812 5.390625 -11.46875 C 5.390625 -11.09375 5.585938 -10.769531 5.984375 -10.5 C 6.378906 -10.226562 7.242188 -9.820312 8.578125 -9.28125 C 9.773438 -8.800781 10.648438 -8.347656 11.203125 -7.921875 C 11.753906 -7.503906 12.160156 -7.023438 12.421875 -6.484375 C 12.691406 -5.941406 12.828125 -5.289062 12.828125 -4.53125 Z M 12.828125 -4.53125 "/></g></g></g><g fill="#020202" fill-opacity="1"><g transform="translate(142.665494, 325.898624)"><g><path d="M 11.875 0 L 11.0625 -2.078125 L 10.953125 -2.078125 C 10.253906 -1.191406 9.535156 -0.578125 8.796875 -0.234375 C 8.054688 0.0976562 7.085938 0.265625 5.890625 0.265625 C 4.429688 0.265625 3.28125 -0.148438 2.4375 -0.984375 C 1.59375 -1.816406 1.171875 -3.007812 1.171875 -4.5625 C 1.171875 -6.175781 1.738281 -7.367188 2.875 -8.140625 C 4.007812 -8.910156 5.71875 -9.335938 8 -9.421875 L 10.640625 -9.5 L 10.640625 -10.171875 C 10.640625 -11.710938 9.847656 -12.484375 8.265625 -12.484375 C 7.046875 -12.484375 5.613281 -12.117188 3.96875 -11.390625 L 2.59375 -14.1875 C 4.351562 -15.113281 6.300781 -15.578125 8.4375 -15.578125 C 10.476562 -15.578125 12.046875 -15.128906 13.140625 -14.234375 C 14.234375 -13.335938 14.78125 -11.984375 14.78125 -10.171875 L 14.78125 0 Z M 10.640625 -7.0625 L 9.03125 -7.015625 C 7.820312 -6.984375 6.921875 -6.765625 6.328125 -6.359375 C 5.742188 -5.960938 5.453125 -5.351562 5.453125 -4.53125 C 5.453125 -3.351562 6.125 -2.765625 7.46875 -2.765625 C 8.425781 -2.765625 9.191406 -3.039062 9.765625 -3.59375 C 10.347656 -4.15625 10.640625 -4.894531 10.640625 -5.8125 Z M 10.640625 -7.0625 "/></g></g></g><g fill="#020202" fill-opacity="1"><g transform="translate(159.550235, 325.898624)"><g><path d="M 10.703125 -15.546875 C 11.265625 -15.546875 11.734375 -15.503906 12.109375 -15.421875 L 11.796875 -11.515625 C 11.453125 -11.609375 11.039062 -11.65625 10.5625 -11.65625 C 9.238281 -11.65625 8.203125 -11.3125 7.453125 -10.625 C 6.710938 -9.945312 6.34375 -8.992188 6.34375 -7.765625 L 6.34375 0 L 2.1875 0 L 2.1875 -15.265625 L 5.34375 -15.265625 L 5.953125 -12.6875 L 6.15625 -12.6875 C 6.625 -13.550781 7.257812 -14.242188 8.0625 -14.765625 C 8.875 -15.285156 9.753906 -15.546875 10.703125 -15.546875 Z M 10.703125 -15.546875 "/></g></g></g><g fill="#020202" fill-opacity="1"><g transform="translate(172.244498, 325.898624)"><g><path d="M 5.5 -7.65625 C 5.5 -6.144531 5.742188 -5.003906 6.234375 -4.234375 C 6.734375 -3.460938 7.546875 -3.078125 8.671875 -3.078125 C 9.773438 -3.078125 10.570312 -3.457031 11.0625 -4.21875 C 11.550781 -4.988281 11.796875 -6.132812 11.796875 -7.65625 C 11.796875 -9.164062 11.546875 -10.296875 11.046875 -11.046875 C 10.554688 -11.804688 9.753906 -12.1875 8.640625 -12.1875 C 7.523438 -12.1875 6.722656 -11.8125 6.234375 -11.0625 C 5.742188 -10.3125 5.5 -9.175781 5.5 -7.65625 Z M 16.046875 -7.65625 C 16.046875 -5.175781 15.390625 -3.234375 14.078125 -1.828125 C 12.773438 -0.429688 10.953125 0.265625 8.609375 0.265625 C 7.148438 0.265625 5.859375 -0.0507812 4.734375 -0.6875 C 3.617188 -1.332031 2.757812 -2.253906 2.15625 -3.453125 C 1.550781 -4.648438 1.25 -6.050781 1.25 -7.65625 C 1.25 -10.144531 1.898438 -12.082031 3.203125 -13.46875 C 4.503906 -14.851562 6.332031 -15.546875 8.6875 -15.546875 C 10.15625 -15.546875 11.445312 -15.226562 12.5625 -14.59375 C 13.6875 -13.957031 14.546875 -13.039062 15.140625 -11.84375 C 15.742188 -10.65625 16.046875 -9.257812 16.046875 -7.65625 Z M 16.046875 -7.65625 "/></g></g></g><g fill="#020202" fill-opacity="1"><g transform="translate(106.144307, 31.769057)"><g><path d="M 2.515625 -19.953125 L 8.71875 -19.953125 C 11.550781 -19.953125 13.601562 -19.546875 14.875 -18.734375 C 16.15625 -17.929688 16.796875 -16.65625 16.796875 -14.90625 C 16.796875 -13.707031 16.515625 -12.726562 15.953125 -11.96875 C 15.398438 -11.207031 14.660156 -10.75 13.734375 -10.59375 L 13.734375 -10.453125 C 14.992188 -10.171875 15.90625 -9.644531 16.46875 -8.875 C 17.03125 -8.101562 17.3125 -7.070312 17.3125 -5.78125 C 17.3125 -3.96875 16.648438 -2.550781 15.328125 -1.53125 C 14.015625 -0.507812 12.234375 0 9.984375 0 L 2.515625 0 Z M 6.75 -12.046875 L 9.203125 -12.046875 C 10.347656 -12.046875 11.175781 -12.222656 11.6875 -12.578125 C 12.207031 -12.929688 12.46875 -13.519531 12.46875 -14.34375 C 12.46875 -15.101562 12.1875 -15.648438 11.625 -15.984375 C 11.0625 -16.316406 10.175781 -16.484375 8.96875 -16.484375 L 6.75 -16.484375 Z M 6.75 -8.6875 L 6.75 -3.5 L 9.5 -3.5 C 10.664062 -3.5 11.523438 -3.71875 12.078125 -4.15625 C 12.628906 -4.601562 12.90625 -5.285156 12.90625 -6.203125 C 12.90625 -7.859375 11.722656 -8.6875 9.359375 -8.6875 Z M 6.75 -8.6875 "/></g></g></g><g fill="#020202" fill-opacity="1"><g transform="translate(124.926356, 31.769057)"><g><path d="M 2 -19.203125 C 2 -20.554688 2.753906 -21.234375 4.265625 -21.234375 C 5.773438 -21.234375 6.53125 -20.554688 6.53125 -19.203125 C 6.53125 -18.554688 6.34375 -18.050781 5.96875 -17.6875 C 5.59375 -17.332031 5.023438 -17.15625 4.265625 -17.15625 C 2.753906 -17.15625 2 -17.835938 2 -19.203125 Z M 6.34375 0 L 2.1875 0 L 2.1875 -15.265625 L 6.34375 -15.265625 Z M 6.34375 0 "/></g></g></g><g fill="#020202" fill-opacity="1"><g transform="translate(133.457452, 31.769057)"><g><path d="M 10.703125 -15.546875 C 11.265625 -15.546875 11.734375 -15.503906 12.109375 -15.421875 L 11.796875 -11.515625 C 11.453125 -11.609375 11.039062 -11.65625 10.5625 -11.65625 C 9.238281 -11.65625 8.203125 -11.3125 7.453125 -10.625 C 6.710938 -9.945312 6.34375 -8.992188 6.34375 -7.765625 L 6.34375 0 L 2.1875 0 L 2.1875 -15.265625 L 5.34375 -15.265625 L 5.953125 -12.6875 L 6.15625 -12.6875 C 6.625 -13.550781 7.257812 -14.242188 8.0625 -14.765625 C 8.875 -15.285156 9.753906 -15.546875 10.703125 -15.546875 Z M 10.703125 -15.546875 "/></g></g></g><g fill="#020202" fill-opacity="1"><g transform="translate(146.151715, 31.769057)"><g><path d="M 7.015625 0.265625 C 5.222656 0.265625 3.8125 -0.425781 2.78125 -1.8125 C 1.757812 -3.207031 1.25 -5.140625 1.25 -7.609375 C 1.25 -10.109375 1.769531 -12.054688 2.8125 -13.453125 C 3.851562 -14.847656 5.289062 -15.546875 7.125 -15.546875 C 9.039062 -15.546875 10.503906 -14.800781 11.515625 -13.3125 L 11.65625 -13.3125 C 11.445312 -14.445312 11.34375 -15.457031 11.34375 -16.34375 L 11.34375 -21.234375 L 15.515625 -21.234375 L 15.515625 0 L 12.328125 0 L 11.515625 -1.984375 L 11.34375 -1.984375 C 10.394531 -0.484375 8.953125 0.265625 7.015625 0.265625 Z M 8.46875 -3.046875 C 9.539062 -3.046875 10.320312 -3.351562 10.8125 -3.96875 C 11.3125 -4.59375 11.582031 -5.644531 11.625 -7.125 L 11.625 -7.578125 C 11.625 -9.210938 11.367188 -10.382812 10.859375 -11.09375 C 10.359375 -11.800781 9.539062 -12.15625 8.40625 -12.15625 C 7.476562 -12.15625 6.753906 -11.757812 6.234375 -10.96875 C 5.722656 -10.1875 5.46875 -9.046875 5.46875 -7.546875 C 5.46875 -6.046875 5.726562 -4.921875 6.25 -4.171875 C 6.769531 -3.421875 7.507812 -3.046875 8.46875 -3.046875 Z M 8.46875 -3.046875 "/></g></g></g></svg>