<svg xmlns="http://www.w3.org/2000/svg" xmlns:xlink="http://www.w3.org/1999/xlink" width="360" zoomAndPan="magnify" viewBox="0 0 270 337.499995" height="450" preserveAspectRatio="xMidYMid meet" version="1.0"><defs><g/><clipPath id="0b48092e57"><path d="M 0.199219 0 L 269.800781 0 L 269.800781 337 L 0.199219 337 Z M 0.199219 0 " clip-rule="nonzero"/></clipPath><clipPath id="198013909b"><path d="M 37.039062 71.980469 L 233.25 71.980469 L 233.25 264.445312 L 37.039062 264.445312 Z M 37.039062 71.980469 " clip-rule="nonzero"/></clipPath></defs><g clip-path="url(#0b48092e57)"><path fill="#ffffff" d="M 0.199219 0 L 269.800781 0 L 269.800781 337 L 0.199219 337 Z M 0.199219 0 " fill-opacity="1" fill-rule="nonzero"/><path fill="#8c52ff" d="M 0.199219 0 L 269.800781 0 L 269.800781 337 L 0.199219 337 Z M 0.199219 0 " fill-opacity="1" fill-rule="nonzero"/></g><path fill="#ffd773" d="M 186.070312 168.214844 C 186.070312 169.851562 185.988281 171.484375 185.824219 173.113281 C 185.660156 174.742188 185.417969 176.359375 185.089844 177.964844 C 184.765625 179.570312 184.363281 181.15625 183.878906 182.722656 C 183.394531 184.289062 182.832031 185.832031 182.195312 187.34375 C 181.554688 188.855469 180.84375 190.332031 180.058594 191.777344 C 179.269531 193.222656 178.414062 194.625 177.488281 195.984375 C 176.5625 197.347656 175.570312 198.660156 174.511719 199.925781 C 173.453125 201.191406 172.332031 202.402344 171.15625 203.558594 C 169.976562 204.71875 168.742188 205.816406 167.453125 206.855469 C 166.160156 207.894531 164.824219 208.867188 163.4375 209.777344 C 162.050781 210.6875 160.621094 211.527344 159.152344 212.296875 C 157.679688 213.070312 156.171875 213.769531 154.632812 214.394531 C 153.09375 215.023438 151.523438 215.574219 149.925781 216.050781 C 148.332031 216.523438 146.714844 216.921875 145.078125 217.242188 C 143.445312 217.558594 141.796875 217.800781 140.136719 217.960938 C 138.476562 218.121094 136.8125 218.203125 135.144531 218.203125 C 133.476562 218.203125 131.8125 218.121094 130.152344 217.960938 C 128.492188 217.800781 126.84375 217.558594 125.210938 217.242188 C 123.574219 216.921875 121.957031 216.523438 120.359375 216.050781 C 118.765625 215.574219 117.195312 215.023438 115.65625 214.394531 C 114.113281 213.769531 112.609375 213.070312 111.136719 212.296875 C 109.667969 211.527344 108.238281 210.6875 106.851562 209.777344 C 105.464844 208.867188 104.125 207.894531 102.835938 206.855469 C 101.546875 205.816406 100.3125 204.71875 99.132812 203.558594 C 97.953125 202.402344 96.835938 201.191406 95.777344 199.925781 C 94.71875 198.660156 93.726562 197.347656 92.800781 195.984375 C 91.875 194.625 91.019531 193.222656 90.230469 191.777344 C 89.445312 190.332031 88.734375 188.855469 88.09375 187.34375 C 87.457031 185.832031 86.894531 184.289062 86.410156 182.722656 C 85.925781 181.15625 85.523438 179.570312 85.195312 177.964844 C 84.871094 176.359375 84.625 174.742188 84.464844 173.113281 C 84.300781 171.484375 84.21875 169.851562 84.21875 168.214844 C 84.21875 166.574219 84.300781 164.941406 84.464844 163.3125 C 84.625 161.683594 84.871094 160.066406 85.195312 158.460938 C 85.523438 156.855469 85.925781 155.269531 86.410156 153.703125 C 86.894531 152.136719 87.457031 150.597656 88.09375 149.082031 C 88.734375 147.570312 89.445312 146.09375 90.230469 144.648438 C 91.019531 143.207031 91.875 141.800781 92.800781 140.441406 C 93.726562 139.078125 94.71875 137.765625 95.777344 136.5 C 96.835938 135.234375 97.953125 134.023438 99.132812 132.867188 C 100.3125 131.707031 101.546875 130.609375 102.835938 129.570312 C 104.125 128.535156 105.464844 127.558594 106.851562 126.648438 C 108.238281 125.738281 109.667969 124.898438 111.136719 124.128906 C 112.609375 123.355469 114.113281 122.65625 115.65625 122.03125 C 117.195312 121.402344 118.765625 120.851562 120.359375 120.378906 C 121.957031 119.902344 123.574219 119.503906 125.210938 119.1875 C 126.84375 118.867188 128.492188 118.625 130.152344 118.464844 C 131.8125 118.304688 133.476562 118.226562 135.144531 118.226562 C 136.8125 118.226562 138.476562 118.304688 140.136719 118.464844 C 141.796875 118.625 143.445312 118.867188 145.078125 119.1875 C 146.714844 119.503906 148.332031 119.902344 149.925781 120.378906 C 151.523438 120.851562 153.09375 121.402344 154.632812 122.03125 C 156.171875 122.65625 157.679688 123.355469 159.152344 124.128906 C 160.621094 124.898438 162.050781 125.738281 163.4375 126.648438 C 164.824219 127.558594 166.160156 128.535156 167.453125 129.570312 C 168.742188 130.609375 169.976562 131.707031 171.15625 132.867188 C 172.332031 134.023438 173.453125 135.234375 174.511719 136.5 C 175.570312 137.765625 176.5625 139.078125 177.488281 140.441406 C 178.414062 141.800781 179.269531 143.207031 180.058594 144.648438 C 180.84375 146.09375 181.554688 147.570312 182.195312 149.082031 C 182.832031 150.597656 183.394531 152.136719 183.878906 153.703125 C 184.363281 155.269531 184.765625 156.855469 185.089844 158.460938 C 185.417969 160.066406 185.660156 161.683594 185.824219 163.3125 C 185.988281 164.941406 186.070312 166.574219 186.070312 168.214844 Z M 186.070312 168.214844 " fill-opacity="1" fill-rule="nonzero"/><g clip-path="url(#198013909b)"><path fill="#d1a12a" d="M 135.144531 105.832031 C 133.664062 105.832031 132.5 104.671875 132.5 103.195312 L 132.5 74.617188 C 132.5 73.140625 133.664062 71.980469 135.144531 71.980469 C 136.625 71.980469 137.789062 73.140625 137.789062 74.617188 L 137.789062 103.195312 C 137.789062 104.621094 136.570312 105.832031 135.144531 105.832031 Z M 137.789062 261.808594 L 137.789062 233.230469 C 137.789062 231.753906 136.625 230.59375 135.144531 230.59375 C 133.664062 230.59375 132.5 231.753906 132.5 233.230469 L 132.5 261.808594 C 132.5 263.285156 133.664062 264.445312 135.144531 264.445312 C 136.625 264.445312 137.789062 263.285156 137.789062 261.808594 Z M 71.472656 168.214844 C 71.472656 166.738281 70.308594 165.578125 68.828125 165.578125 L 39.742188 165.578125 C 38.261719 165.578125 37.101562 166.738281 37.101562 168.214844 C 37.101562 169.691406 38.261719 170.851562 39.742188 170.851562 L 68.828125 170.851562 C 70.308594 170.851562 71.472656 169.691406 71.472656 168.214844 Z M 233.1875 168.214844 C 233.1875 166.738281 232.023438 165.578125 230.542969 165.578125 L 201.460938 165.578125 C 199.976562 165.578125 198.816406 166.738281 198.816406 168.214844 C 198.816406 169.691406 199.976562 170.851562 201.460938 170.851562 L 230.542969 170.851562 C 232.023438 170.851562 233.1875 169.691406 233.1875 168.214844 Z M 90.140625 124.078125 C 91.144531 123.023438 91.144531 121.390625 90.089844 120.335938 L 69.515625 100.136719 C 68.460938 99.136719 66.820312 99.136719 65.761719 100.191406 C 64.757812 101.246094 64.757812 102.878906 65.816406 103.933594 L 86.386719 124.128906 C 86.914062 124.65625 87.550781 124.867188 88.238281 124.867188 C 88.925781 124.867188 89.613281 124.605469 90.140625 124.078125 Z M 204.472656 236.289062 C 205.476562 235.234375 205.476562 233.597656 204.421875 232.542969 L 183.847656 212.347656 C 182.792969 211.347656 181.152344 211.347656 180.09375 212.402344 C 179.089844 213.457031 179.089844 215.089844 180.148438 216.144531 L 200.71875 236.339844 C 201.246094 236.867188 201.882812 237.078125 202.570312 237.078125 C 203.257812 237.078125 203.945312 236.816406 204.472656 236.289062 Z M 69.515625 236.289062 L 90.089844 216.09375 C 91.144531 215.089844 91.144531 213.402344 90.140625 212.347656 C 89.136719 211.292969 87.445312 211.292969 86.386719 212.296875 L 65.816406 232.542969 C 64.757812 233.546875 64.757812 235.234375 65.761719 236.289062 C 66.289062 236.816406 66.976562 237.078125 67.664062 237.078125 C 68.351562 237.078125 68.988281 236.816406 69.515625 236.289062 Z M 183.847656 124.128906 L 204.421875 103.933594 C 205.476562 102.933594 205.476562 101.246094 204.472656 100.191406 C 203.46875 99.136719 201.777344 99.136719 200.71875 100.136719 L 180.148438 120.335938 C 179.089844 121.335938 179.089844 123.023438 180.09375 124.078125 C 180.625 124.605469 181.3125 124.867188 182 124.867188 C 182.6875 124.867188 183.375 124.605469 183.847656 124.128906 Z M 110.710938 110.421875 C 112.035156 109.839844 112.667969 108.3125 112.140625 106.992188 L 106.957031 94.707031 C 106.375 93.390625 104.84375 92.757812 103.46875 93.285156 C 102.144531 93.863281 101.511719 95.394531 102.039062 96.710938 L 107.222656 108.996094 C 107.644531 110 108.648438 110.632812 109.65625 110.632812 C 110.078125 110.632812 110.394531 110.578125 110.710938 110.421875 Z M 166.769531 243.195312 C 168.089844 242.617188 168.726562 241.085938 168.195312 239.769531 L 163.011719 227.480469 C 162.433594 226.164062 160.898438 225.53125 159.523438 226.058594 C 158.199219 226.636719 157.566406 228.167969 158.09375 229.484375 L 163.277344 241.773438 C 163.699219 242.773438 164.707031 243.40625 165.710938 243.40625 C 166.082031 243.40625 166.449219 243.300781 166.769531 243.195312 Z M 62.21875 200.695312 L 74.753906 195.582031 C 76.128906 195.054688 76.761719 193.472656 76.179688 192.152344 C 75.652344 190.78125 74.066406 190.148438 72.742188 190.730469 L 60.210938 195.84375 C 58.835938 196.371094 58.199219 197.953125 58.78125 199.269531 C 59.203125 200.273438 60.210938 200.90625 61.214844 200.90625 C 61.53125 200.90625 61.902344 200.851562 62.21875 200.695312 Z M 197.492188 145.75 L 210.027344 140.636719 C 211.402344 140.109375 212.035156 138.527344 211.453125 137.207031 C 210.925781 135.835938 209.339844 135.203125 208.015625 135.785156 L 195.484375 140.898438 C 194.109375 141.425781 193.472656 143.007812 194.054688 144.328125 C 194.480469 145.328125 195.484375 145.960938 196.488281 145.960938 C 196.859375 145.910156 197.175781 145.855469 197.492188 145.75 Z M 163.011719 109.050781 L 168.195312 96.765625 C 168.777344 95.445312 168.144531 93.863281 166.769531 93.335938 C 165.394531 92.757812 163.859375 93.390625 163.277344 94.761719 L 158.09375 107.046875 C 157.511719 108.363281 158.148438 109.945312 159.523438 110.472656 C 159.839844 110.632812 160.210938 110.683594 160.527344 110.683594 C 161.585938 110.632812 162.589844 110.050781 163.011719 109.050781 Z M 106.957031 241.773438 L 112.140625 229.484375 C 112.722656 228.167969 112.085938 226.585938 110.710938 226.058594 C 109.335938 225.476562 107.804688 226.109375 107.222656 227.480469 L 102.039062 239.769531 C 101.457031 241.085938 102.09375 242.667969 103.46875 243.195312 C 103.785156 243.355469 104.15625 243.40625 104.472656 243.40625 C 105.53125 243.40625 106.535156 242.773438 106.957031 241.773438 Z M 76.234375 144.273438 C 76.761719 142.902344 76.128906 141.375 74.804688 140.847656 L 62.273438 135.730469 C 60.898438 135.203125 59.363281 135.835938 58.835938 137.15625 C 58.304688 138.527344 58.941406 140.054688 60.261719 140.582031 L 72.796875 145.699219 C 73.113281 145.855469 73.484375 145.910156 73.800781 145.910156 C 74.804688 145.910156 75.808594 145.277344 76.234375 144.273438 Z M 211.507812 199.269531 C 212.035156 197.898438 211.402344 196.371094 210.078125 195.84375 L 197.492188 190.730469 C 196.117188 190.203125 194.585938 190.835938 194.054688 192.152344 C 193.527344 193.523438 194.160156 195.054688 195.484375 195.582031 L 208.015625 200.695312 C 208.332031 200.851562 208.703125 200.90625 209.019531 200.90625 C 210.078125 200.90625 211.082031 200.273438 211.507812 199.269531 Z M 211.507812 199.269531 " fill-opacity="1" fill-rule="nonzero"/></g><g fill="#020202" fill-opacity="1"><g transform="translate(114.376252, 325.898624)"><g><path d="M 14.296875 -5.546875 C 14.296875 -3.742188 13.644531 -2.320312 12.34375 -1.28125 C 11.050781 -0.25 9.25 0.265625 6.9375 0.265625 C 4.800781 0.265625 2.914062 -0.128906 1.28125 -0.921875 L 1.28125 -4.859375 C 2.625 -4.253906 3.757812 -3.828125 4.6875 -3.578125 C 5.625 -3.335938 6.484375 -3.21875 7.265625 -3.21875 C 8.191406 -3.21875 8.898438 -3.394531 9.390625 -3.75 C 9.890625 -4.101562 10.140625 -4.632812 10.140625 -5.34375 C 10.140625 -5.726562 10.03125 -6.070312 9.8125 -6.375 C 9.59375 -6.6875 9.269531 -6.984375 8.84375 -7.265625 C 8.425781 -7.546875 7.566406 -7.992188 6.265625 -8.609375 C 5.046875 -9.179688 4.128906 -9.734375 3.515625 -10.265625 C 2.910156 -10.796875 2.425781 -11.410156 2.0625 -12.109375 C 1.695312 -12.804688 1.515625 -13.625 1.515625 -14.5625 C 1.515625 -16.332031 2.113281 -17.71875 3.3125 -18.71875 C 4.507812 -19.726562 6.160156 -20.234375 8.265625 -20.234375 C 9.304688 -20.234375 10.296875 -20.109375 11.234375 -19.859375 C 12.179688 -19.617188 13.164062 -19.273438 14.1875 -18.828125 L 12.828125 -15.546875 C 11.765625 -15.984375 10.882812 -16.285156 10.1875 -16.453125 C 9.488281 -16.628906 8.804688 -16.71875 8.140625 -16.71875 C 7.335938 -16.71875 6.722656 -16.53125 6.296875 -16.15625 C 5.867188 -15.78125 5.65625 -15.296875 5.65625 -14.703125 C 5.65625 -14.328125 5.738281 -14 5.90625 -13.71875 C 6.082031 -13.445312 6.359375 -13.179688 6.734375 -12.921875 C 7.109375 -12.660156 8.003906 -12.191406 9.421875 -11.515625 C 11.285156 -10.628906 12.5625 -9.738281 13.25 -8.84375 C 13.945312 -7.945312 14.296875 -6.847656 14.296875 -5.546875 Z M 14.296875 -5.546875 "/></g></g></g><g fill="#020202" fill-opacity="1"><g transform="translate(129.773165, 325.898624)"><g><path d="M 5.5 -7.65625 C 5.5 -6.144531 5.742188 -5.003906 6.234375 -4.234375 C 6.734375 -3.460938 7.546875 -3.078125 8.671875 -3.078125 C 9.773438 -3.078125 10.570312 -3.457031 11.0625 -4.21875 C 11.550781 -4.988281 11.796875 -6.132812 11.796875 -7.65625 C 11.796875 -9.164062 11.546875 -10.296875 11.046875 -11.046875 C 10.554688 -11.804688 9.753906 -12.1875 8.640625 -12.1875 C 7.523438 -12.1875 6.722656 -11.8125 6.234375 -11.0625 C 5.742188 -10.3125 5.5 -9.175781 5.5 -7.65625 Z M 16.046875 -7.65625 C 16.046875 -5.175781 15.390625 -3.234375 14.078125 -1.828125 C 12.773438 -0.429688 10.953125 0.265625 8.609375 0.265625 C 7.148438 0.265625 5.859375 -0.0507812 4.734375 -0.6875 C 3.617188 -1.332031 2.757812 -2.253906 2.15625 -3.453125 C 1.550781 -4.648438 1.25 -6.050781 1.25 -7.65625 C 1.25 -10.144531 1.898438 -12.082031 3.203125 -13.46875 C 4.503906 -14.851562 6.332031 -15.546875 8.6875 -15.546875 C 10.15625 -15.546875 11.445312 -15.226562 12.5625 -14.59375 C 13.6875 -13.957031 14.546875 -13.039062 15.140625 -11.84375 C 15.742188 -10.65625 16.046875 -9.257812 16.046875 -7.65625 Z M 16.046875 -7.65625 "/></g></g></g><g fill="#020202" fill-opacity="1"><g transform="translate(147.081042, 325.898624)"><g><path d="M 6.34375 0 L 2.1875 0 L 2.1875 -21.234375 L 6.34375 -21.234375 Z M 6.34375 0 "/></g></g></g><g fill="#020202" fill-opacity="1"><g transform="translate(108.923393, 31.769057)"><g><path d="M 14.296875 -5.546875 C 14.296875 -3.742188 13.644531 -2.320312 12.34375 -1.28125 C 11.050781 -0.25 9.25 0.265625 6.9375 0.265625 C 4.800781 0.265625 2.914062 -0.128906 1.28125 -0.921875 L 1.28125 -4.859375 C 2.625 -4.253906 3.757812 -3.828125 4.6875 -3.578125 C 5.625 -3.335938 6.484375 -3.21875 7.265625 -3.21875 C 8.191406 -3.21875 8.898438 -3.394531 9.390625 -3.75 C 9.890625 -4.101562 10.140625 -4.632812 10.140625 -5.34375 C 10.140625 -5.726562 10.03125 -6.070312 9.8125 -6.375 C 9.59375 -6.6875 9.269531 -6.984375 8.84375 -7.265625 C 8.425781 -7.546875 7.566406 -7.992188 6.265625 -8.609375 C 5.046875 -9.179688 4.128906 -9.734375 3.515625 -10.265625 C 2.910156 -10.796875 2.425781 -11.410156 2.0625 -12.109375 C 1.695312 -12.804688 1.515625 -13.625 1.515625 -14.5625 C 1.515625 -16.332031 2.113281 -17.71875 3.3125 -18.71875 C 4.507812 -19.726562 6.160156 -20.234375 8.265625 -20.234375 C 9.304688 -20.234375 10.296875 -20.109375 11.234375 -19.859375 C 12.179688 -19.617188 13.164062 -19.273438 14.1875 -18.828125 L 12.828125 -15.546875 C 11.765625 -15.984375 10.882812 -16.285156 10.1875 -16.453125 C 9.488281 -16.628906 8.804688 -16.71875 8.140625 -16.71875 C 7.335938 -16.71875 6.722656 -16.53125 6.296875 -16.15625 C 5.867188 -15.78125 5.65625 -15.296875 5.65625 -14.703125 C 5.65625 -14.328125 5.738281 -14 5.90625 -13.71875 C 6.082031 -13.445312 6.359375 -13.179688 6.734375 -12.921875 C 7.109375 -12.660156 8.003906 -12.191406 9.421875 -11.515625 C 11.285156 -10.628906 12.5625 -9.738281 13.25 -8.84375 C 13.945312 -7.945312 14.296875 -6.847656 14.296875 -5.546875 Z M 14.296875 -5.546875 "/></g></g></g><g fill="#020202" fill-opacity="1"><g transform="translate(124.320305, 31.769057)"><g><path d="M 13 0 L 12.4375 -1.953125 L 12.21875 -1.953125 C 11.769531 -1.242188 11.132812 -0.695312 10.3125 -0.3125 C 9.5 0.0703125 8.566406 0.265625 7.515625 0.265625 C 5.722656 0.265625 4.375 -0.210938 3.46875 -1.171875 C 2.5625 -2.128906 2.109375 -3.507812 2.109375 -5.3125 L 2.109375 -15.265625 L 6.265625 -15.265625 L 6.265625 -6.34375 C 6.265625 -5.238281 6.457031 -4.410156 6.84375 -3.859375 C 7.238281 -3.316406 7.863281 -3.046875 8.71875 -3.046875 C 9.882812 -3.046875 10.726562 -3.429688 11.25 -4.203125 C 11.769531 -4.984375 12.03125 -6.273438 12.03125 -8.078125 L 12.03125 -15.265625 L 16.1875 -15.265625 L 16.1875 0 Z M 13 0 "/></g></g></g><g fill="#020202" fill-opacity="1"><g transform="translate(142.692861, 31.769057)"><g><path d="M 16.265625 0 L 12.109375 0 L 12.109375 -8.90625 C 12.109375 -10.007812 11.910156 -10.835938 11.515625 -11.390625 C 11.128906 -11.941406 10.507812 -12.21875 9.65625 -12.21875 C 8.488281 -12.21875 7.644531 -11.828125 7.125 -11.046875 C 6.601562 -10.265625 6.34375 -8.972656 6.34375 -7.171875 L 6.34375 0 L 2.1875 0 L 2.1875 -15.265625 L 5.359375 -15.265625 L 5.921875 -13.3125 L 6.15625 -13.3125 C 6.625 -14.039062 7.265625 -14.59375 8.078125 -14.96875 C 8.890625 -15.351562 9.8125 -15.546875 10.84375 -15.546875 C 12.625 -15.546875 13.972656 -15.066406 14.890625 -14.109375 C 15.804688 -13.148438 16.265625 -11.765625 16.265625 -9.953125 Z M 16.265625 0 "/></g></g></g></svg>